<?xml version="1.0" standalone="no"?>
<!DOCTYPE svg PUBLIC "-//W3C//DTD SVG 1.1//EN" "http://www.w3.org/Graphics/SVG/1.1/DTD/svg11.dtd" >
<svg xmlns="http://www.w3.org/2000/svg" xmlns:xlink="http://www.w3.org/1999/xlink" version="1.1">
<metadata>
Created by FontForge 20191125 at Wed Feb  5 17:02:30 2014
 By convertio
</metadata>
<defs>
<font id="CigarettesandCoffee" horiz-adv-x="833" >
  <font-face 
    font-family="Cigarettes and Coffee"
    font-weight="400"
    font-stretch="normal"
    units-per-em="1000"
    panose-1="2 0 0 0 0 0 0 0 0 0"
    ascent="750"
    descent="-250"
    x-height="742.5"
    cap-height="750"
    bbox="-131.462 -580 872.2 772"
    underline-thickness="50"
    underline-position="-150"
    unicode-range="U+000D-2021"
  />
<missing-glyph horiz-adv-x="500" 
 />
    <glyph glyph-name=".notdef" horiz-adv-x="500" 
 />
    <glyph glyph-name=".null" horiz-adv-x="0" 
 />
    <glyph glyph-name="nonmarkingreturn" unicode="&#xd;" horiz-adv-x="500" 
 />
    <glyph glyph-name="NULL" horiz-adv-x="0" 
 />
    <glyph glyph-name="NULL" horiz-adv-x="0" 
 />
    <glyph glyph-name="space" unicode=" " horiz-adv-x="236" 
 />
    <glyph glyph-name="exclam" unicode="!" horiz-adv-x="250" 
d="M220 276q-1 -9 -8 -16t-16.5 -11.5t-19.5 -6t-17 0.5q-5 2 -12 3t-14 4q-12 0 -26 0.5t-25 2.5q-13 2 -17 10t-7 19q0 21 -1.5 43.5t-1.5 46.5q0 19 4 37t6 38q0 17 1.5 31.5t1.5 29.5q-2 34 -4.5 67.5t-5.5 67.5q-2 20 2.5 35.5t27.5 25.5q14 8 27 16t27 10
q15 0 27.5 -9t17.5 -24q20 -45 26 -93.5t4 -99.5v-68h6v-126q0 -9 -0.5 -17t-2.5 -17zM97 4q-8 -8 -22 0q-15 13 -20 26t0 33q0 9 -1 18.5t1 20.5q2 17 7.5 34t25.5 26q5 3 11 8.5t11 10.5q8 8 27.5 8t27.5 -8q10 -11 21 -23.5t21 -27.5q12 -14 9 -31t-16 -27q-3 -3 -19 -3
q9 -6 10.5 -11t-0.5 -9.5t-5.5 -9t-4.5 -9.5q-2 -2 -10 -5.5t-16 -3.5q-12 -2 -22 -1.5t-23 -1.5q-2 0 -6.5 -4.5t-6.5 -9.5z" />
    <glyph glyph-name="quotedbl" unicode="&#x22;" horiz-adv-x="319" 
d="M233 523q-2 -5 -10 -7.5t-10 -0.5q-5 7 -11 13.5t-9 14.5q-2 9 -1 18.5t2 17.5q0 26 1 51l2 50q0 14 3.5 24.5t16.5 17.5q5 5 9.5 9t9.5 8l4.5 4.5t0.5 -1t1 -4t4 -4.5q6 -4 16 -8t19 -8.5t16 -10.5t7 -15q0 -16 1.5 -32.5t-8.5 -32.5q-5 -10 -5.5 -21.5t-2.5 -22.5
q-2 -8 -3 -15.5t-3 -15.5q-1 -5 -6 -8q-10 -7 -19 -17q-7 4 -13.5 4.5t-11.5 -8.5zM84 525q-10 0 -16 -6q-15 -9 -25 3q-10 10 -12 13t-2 17v105q-1 10 1.5 17.5t10.5 14.5q11 8 19.5 18.5t21.5 13.5q5 1 10 1.5t8 -1.5q21 -11 32.5 -28t8.5 -43q-2 -22 -3.5 -43t-6.5 -43
q-2 -15 -16.5 -26.5t-30.5 -12.5z" />
    <glyph glyph-name="numbersign" unicode="#" 
d="M778 403q0 -2 -0.5 -6t-2.5 -6q-7 -10 -13 -21t-15 -20q-10 -12 -23.5 -15.5t-27.5 -0.5q-24 5 -48.5 8t-50.5 8q-7 0 -12.5 -3.5t-2.5 -12.5q2 -12 3 -24t6 -24q0 -2 5.5 -5.5t7.5 -3.5q9 -3 18.5 -3.5t19.5 -0.5q76 -9 66 -79q0 -19 -6 -39t-16 -37q-5 -8 -18 -10.5
t-23 -2.5q-19 0 -38 4t-38 6q-10 2 -13.5 -0.5t-5.5 -12.5q-5 -29 -13 -60q0 -12 -8.5 -19.5t-19.5 -12.5q-5 18 -26 13q-2 -2 -6 -1t-6 1q-5 2 -10 3t-10 3h-9q-5 2 -9.5 2.5t-9.5 0.5q-3 0 -6 -3q2 8 1.5 12.5t1.5 9.5q18 20 12 45q-2 9 -0.5 17t4.5 18q5 15 -13 15
q-14 3 -28.5 4t-28.5 3q-8 0 -9.5 -4t-3.5 -9q-5 -12 -8 -24t-8 -23q-2 -12 -4.5 -25.5t-7.5 -25.5q-10 5 -19.5 9.5t-19.5 9.5q-11 2 -21.5 4.5t-22.5 4.5q-5 2 -7.5 6.5t-5.5 9.5q-5 22 -8 44.5t-8 44.5q0 19 -15 19q-22 2 -43 6.5t-43 6.5q-19 2 -30 12t-11 29
q-2 5 -4.5 9.5t-2.5 9.5q-2 10 -3.5 18.5t0.5 16.5q8 24 27 37t43 11q14 -3 27 -7t27 -9q3 0 6 -4q14 -7 18.5 -4t7.5 20q0 14 0.5 30.5t2.5 33.5q0 14 -16 19q-14 2 -28.5 5.5t-31.5 3.5q-17 3 -22 7.5t-7 21.5q0 2 -2 7.5t-4 5.5q-12 7 -16.5 17.5t0.5 20.5q5 12 15 21.5
t20 19.5q5 5 11 7.5t11 5.5q16 15 35 6q7 -2 14 -3t14 -3q3 0 6 3q2 1 4 3q2 14 2.5 27t0.5 27q0 2 -3.5 4.5t-5.5 4.5q9 14 18 29t17 29q2 7 5 8.5t10 3.5q10 2 18 8t17 11q14 5 28.5 3t26 -8.5t18.5 -16.5t7 -22q0 -17 -0.5 -35.5t-3.5 -37.5q-2 -12 -4 -26t-2 -28
q-5 -16 16 -16q10 0 21.5 -2t22.5 -4q8 0 11 2.5t5 9.5q15 34 29 61q2 2 8.5 4.5t13.5 4.5q35 11 70 0q14 -5 22.5 -24.5t5.5 -38.5q0 -5 -2 -11.5t-4 -14.5q-5 -14 0 -26.5t10 -23.5q2 -3 6 -4t9 -3q3 12 8 14t15 2q33 -5 66 0q12 0 24.5 -4t22 -11.5t15.5 -18t5 -23.5
q0 -7 3 -14t3 -15zM451 305q0 17 1.5 31.5t-1.5 28.5q0 3 -3.5 6.5t-8.5 3.5q-17 5 -35 7t-35 2q-2 0 -6 -2t-4 -4q0 -12 0.5 -24t3.5 -24q2 -2 6 -5.5t6 -3.5q20 -5 38.5 -8t37.5 -8z" />
    <glyph glyph-name="dollar" unicode="$" horiz-adv-x="556" 
d="M315 15q-3 -16 -20 -13q-18 6 -30.5 15.5t-16.5 29.5q-4 15 -8.5 27.5t-1.5 26.5q2 8 -2 10.5t-10 4.5q-28 6 -55.5 12.5t-53.5 14.5q-47 19 -76 60q-8 13 -12 26.5t2 32.5q5 15 12.5 25t16.5 20q8 9 22 9.5t25 -7.5q12 -8 20 -20q11 -13 24.5 -21.5t32.5 -12.5
q13 -2 27 -5.5t27 -7.5q13 -3 13 10q0 17 1.5 33.5t3.5 33.5v44q2 8 -8 15t-19 5q-20 0 -37 10q-2 4 -6.5 5.5t-8.5 1.5q-8 0 -16.5 1t-13.5 7q0 1 -1 2h-1q-7 -4 -12.5 -4t-10 2t-9 5t-8.5 5q-19 9 -37.5 19.5t-39.5 19.5q-4 2 -6.5 6t1.5 9q8 13 8 26t-5 24q-8 14 -2 22.5
t12 16.5q13 15 24.5 29.5t24.5 27.5q14 11 30 21t34 14q8 0 14 2.5t14 4.5q11 4 24 8t28 9q-2 -13 1 -15t11 -2q15 2 17.5 5t2.5 17q-5 34 15 57q4 6 9 10.5t10 4.5q4 0 9 -5.5t9 -9.5q8 -8 9 -18t1 -19q2 -11 3.5 -22t3.5 -22q0 -2 2.5 -5t4.5 -3q25 -5 49 -9l48 -8
q5 -2 10.5 1.5t9.5 3.5q7 -2 13 -4t11 -4q19 -4 34.5 -10.5t25.5 -21.5q2 -5 2.5 -11t4.5 -11q2 -9 3.5 -16.5t-5.5 -15.5q0 -3 -3 -5q-4 -15 -8 -18.5t-19 -1.5q-17 2 -31 5t-28 5t-25 3.5t-22 3.5l-60 15q-8 2 -10 0t-2 -10q-2 -14 -2.5 -30.5t-2.5 -33.5q0 -2 2.5 -3.5
t4.5 -3.5q21 -6 39 -17t33 -25q9 -5 12 -13q6 -5 10.5 -12t9.5 -12q14 -19 29 -38t26 -39q9 -17 6.5 -33.5t-11.5 -33.5q-2 -2 -2.5 -5t-2.5 -5q-2 -5 -5 -12t-5 -12q-5 -8 -3 -10q6 -8 2 -11t-9 -7l-3.5 -3.5l-3.5 -3.5q-11 -20 -30.5 -31t-41.5 -18q-15 -4 -30 -11t-32 -7
q-2 0 -4.5 -6t-2.5 -11q0 -11 1 -22.5t1 -22.5q0 -9 -1.5 -17t-3.5 -17zM253 497q2 0 6 2.5t4 4.5q0 11 1.5 21t1.5 21q0 10 -10 10q-6 0 -13 -2t-12 0q-11 4 -20.5 1t-18.5 -9q-1 0 -2 -1h-1v-1q5 -6 0.5 -7.5t-2.5 -4.5v-2q0 -1 2 -1q15 -8 31 -16t33 -16zM327 267
q0 -13 0.5 -19.5t3 -8t8 0.5t16.5 5q12 3 7 12q-8 35 -32 59q0 -4 -1.5 -6t-1.5 -6v-37z" />
    <glyph glyph-name="percent" unicode="%" horiz-adv-x="736" 
d="M72 54q-12 -5 -22 -11.5t-20 -11.5q-3 -3 -10 -3q-3 0 -3 1v2q10 8 19.5 13.5t19.5 12.5q-4 0 -4 1q-1 1 0 2q-7 -2 -12.5 -4.5t-12.5 -4.5q-4 0 -4 3q5 17 10 32t10 32q2 5 5 11.5t8 11.5q22 22 41.5 43.5t41.5 43.5q22 24 42.5 46t45.5 44q29 29 59.5 58t62.5 58
q34 32 69 63.5t70 65.5q12 10 20.5 22t20.5 27q0 -8 2 -11t2 -5q0 3 1 3h2q5 7 11 12.5t8 13.5q5 17 18 26.5t27 21.5q5 2 10 6.5t13 6.5q5 5 13 6.5t13 -0.5q7 -2 14 -10t2 -22q3 3 13 3q2 -5 3 -11.5t3 -14.5q3 4 13 4q-5 -15 -7 -29t-12 -26q-15 -17 -33 -34t-35 -34
q-6 -6 -10 -6q-14 2 -22 -6.5t-13 -16.5q-14 -20 -29.5 -37.5t-35.5 -30.5q-12 -9 -22 -20.5t-19 -20.5q-13 -13 -27 -26.5t-28 -25.5q-8 -8 -15.5 -15t-16.5 -17l-71 -71q-15 -14 -26.5 -29t-25.5 -29q-22 -22 -45.5 -42t-47.5 -42q-8 -8 -19 -11t-23 -5q-10 -5 -21 -6.5
t-21 -6.5zM268 457q-14 2 -25 0.5t-23 -3.5q-20 -5 -40.5 -5.5t-40.5 11.5q-43 19 -48 65q-2 12 -3 21.5t-3 16.5q0 42 18.5 66t42.5 44q20 17 42 31t48 14q5 0 8 3.5t8 6.5q20 14 43 12t35 -22q12 -17 19.5 -34t15.5 -34q2 -5 0.5 -9.5t-3.5 -9.5q-2 -14 -6 -27t-4 -28
q2 -29 -10.5 -53t-24.5 -50q-8 -12 -22 -16.5t-27 0.5zM578 22q-12 -12 -21.5 -17t-23.5 -3q-12 5 -24.5 5.5t-24.5 -1.5q-7 0 -17 4t-18 9q-14 17 -28 33.5t-24 33.5q-12 27 -7 54.5t17 52.5q8 10 14.5 21.5t14.5 23.5q2 5 8 9t11 4q8 2 10 4t0 12q22 2 41.5 4.5t39.5 4.5
q3 0 9 -6l4.5 -4.5t2.5 -5.5q7 5 14 11t15 9q5 2 9.5 0.5t9.5 -4.5q12 -12 24 -25.5t24 -25.5q15 -14 14.5 -31t2.5 -34q0 -2 -2.5 -6t-4.5 -7q-8 -5 -11.5 -11.5t-4 -14.5t-1 -16.5t-2.5 -15.5q1 -2 3 -4t6 -8h-19q3 0 3 -4q-5 -2 -9.5 -5t-9.5 -8q-8 -12 -21.5 -19
t-23.5 -19zM491 151q5 -12 19.5 -18.5t31.5 -4.5q-12 12 -16.5 26.5t-18.5 21.5q-9 -4 -13 -12q-2 -3 -2.5 -7t-0.5 -6z" />
    <glyph glyph-name="ampersand" unicode="&#x26;" horiz-adv-x="611" 
d="M535 -77q-11 -2 -21.5 -1.5t-18.5 7.5q-14 8 -25 18.5t-24 21.5q-15 13 -29 26t-29 26q-2 2 -4.5 3t-6.5 3q-7 0 -15 -1t-14 1q-20 6 -37.5 5t-37.5 -5q-13 -2 -28 -3t-30 -3h-34q-14 -2 -23 1.5t-18 9.5q-21 14 -41 27t-33 37q0 2 -1.5 5.5t-1.5 5.5q-4 21 -18 35
q-8 8 -9 18.5t1 21.5q2 9 1.5 17.5t1.5 17.5q4 11 9.5 21.5t10.5 21.5q5 7 8.5 12.5t8.5 10.5q7 9 11.5 17.5t11.5 17.5q22 24 0 46q-17 23 -31.5 48.5t-23.5 51.5q-8 26 -9.5 52.5t7.5 54.5q0 6 5 14q12 12 12 32q0 5 3 9t5 6h3v-15q11 5 17.5 10t11.5 16q7 13 18.5 23
t24.5 15q14 6 25 12.5t24 12.5q9 -6 21 -4.5t25 7.5q-4 2 -6.5 4.5l-4.5 4.5q5 7 13 7t13 -7q5 -9 11.5 -10t17.5 4q-2 0 -4.5 1.5t-4.5 1.5l-6 6q6 0 9 3q17 4 34.5 8t37.5 9q2 0 8 -0.5t6 -2.5q7 -17 22 -22.5t30 -11.5q13 -9 28.5 -16.5t29.5 -18.5q15 -12 28 -32
q3 -3 3 -11q0 -17 1.5 -36t1.5 -39q2 -5 5 -9t1 -6q-9 -13 -14.5 -28t-22.5 -23q-17 -11 -31.5 -25t-29.5 -27l-3 -6q-5 -28 -21 -43t-39 -23q-14 -5 -23 -9.5t-20 -10.5q-12 -8 -3 -21q20 -21 37.5 -42.5t34.5 -43.5q6 -8 14.5 -17t19.5 -20q9 15 17.5 28.5t17.5 28.5
q5 9 7 18t7 20q9 4 16.5 10.5t15 12.5t15.5 10t19 4q14 -2 18 -11.5t0 -22.5q-5 -9 -9 -17.5t-6 -17.5q-4 -13 -6.5 -26t-4.5 -26q0 -3 -3 -3q-6 -8 -9.5 -17.5t-6.5 -19.5t-7.5 -19t-14.5 -16q-6 -5 -2.5 -10t5.5 -7q17 -15 34 -28.5t33 -29.5q15 -17 29 -35.5t14 -41.5
q0 -24 -16.5 -38.5t-38.5 -19.5zM207 439q4 -2 5 -6t3 -9q6 0 12 6q30 24 60 47.5t52 56.5q7 8 9.5 15.5t-6.5 18.5q-2 5 -3 11.5t-6 8.5q-4 2 -10.5 1t-14.5 -1q2 3 5 6v2q0 1 3 4q-2 0 -4 1.5t-4 1.5q-39 2 -72 -13t-61 -39q-7 -7 -5.5 -18t8.5 -20q0 -2 1.5 -4t1.5 -4
q6 -17 9 -35t17 -31zM256 153q6 -2 10.5 -2h9.5q2 0 3 1.5t3 3.5q-20 17 -37.5 36t-34.5 36q0 1 -5 1q-2 0 -4 -1q-2 -6 -3.5 -12.5t0.5 -13.5q5 -36 35 -40q6 -2 12 -4.5t11 -4.5z" />
    <glyph glyph-name="quotesingle" unicode="'" horiz-adv-x="181" 
d="M106 523q-19 -4 -32.5 3.5t-18.5 28.5q-1 8 -1 16v16q-2 7 -2.5 13t-1.5 13v12t-2 12q2 17 5 35.5t5 35.5q3 10 7.5 16.5t13.5 9.5q7 0 9 7q2 6 6 5.5t8 -3.5q23 -11 34 -29.5t9 -46.5v-4v-78v-21q2 -8 1.5 -16.5t-5.5 -16.5q-6 -6 -10.5 -7t-10.5 -1h-14v0z" />
    <glyph glyph-name="parenleft" unicode="(" horiz-adv-x="465" 
d="M358 22q-19 -9 -36 -4.5t-37 6.5q-8 2 -15 3t-16 3h-5q-19 15 -40 18.5t-42 3.5q-2 0 -2 1v2v3q4 2 9.5 3t9.5 3q-4 4 -6.5 8t-7.5 6q-26 19 -45 42t-36 50q-13 22 -21.5 44.5t-15.5 45.5q-8 30 -9 61t1 60q0 13 3 23.5t11 21.5q2 0 2.5 2t2.5 4q7 21 16 40t15 38
q5 15 15 25t16 23q13 26 30.5 44t37.5 37q4 5 6.5 10.5t7.5 9.5q8 8 18 16.5t21 14.5q17 11 29 24.5t24 26.5q7 4 22.5 5t20.5 -5q11 -17 25 -9t28 -5q6 -7 15.5 -13t20.5 -13q-7 -3 -12 -9t-10 -11t-11.5 -7t-16.5 2q3 -3 3 -8q-17 0 -19.5 -3.5t-6.5 -22.5
q-2 -8 -10 -16.5t-15 -16.5q-7 -7 -17 -12q-19 -19 -37.5 -36.5t-38.5 -38.5q-8 -11 -14.5 -23t-13.5 -25q-11 -17 -19.5 -35t-16.5 -35q0 -2 -1.5 -4.5t-1.5 -4.5q0 -21 -2.5 -40t-0.5 -39q2 -19 11 -37.5t17 -35.5q2 -6 4.5 -11t4.5 -11q6 -8 13 -16t15 -15
q11 -8 25 -15.5t25 -18.5q13 -8 25.5 -10t25.5 -6q19 -5 39.5 -7.5t41.5 -4.5l5.5 -5.5t3.5 -5.5q0 -8 -0.5 -16.5t-2.5 -17.5q-2 -4 -4.5 -8t-6.5 -8q-2 -5 -4.5 -8l-7.5 -9q-7 4 -10.5 2.5t-5.5 -5.5t-3 -9t-3 -8q-6 -2 -10.5 -4t-9.5 -4z" />
    <glyph glyph-name="parenright" unicode=")" horiz-adv-x="442" 
d="M104 724q19 8 36 3.5t36 -6.5q9 -2 16 -2.5t15 -2.5h6q19 -15 39 -18.5t41 -3.5q3 0 3 -2v-1v-3q-5 -2 -10 -3t-10 -3q5 -4 7.5 -7.5t6.5 -5.5q26 -19 45 -42t36 -50q24 -42 36 -89q8 -29 9 -59.5t-1 -59.5q0 -13 -3 -23.5t-11 -21.5q-2 0 -2.5 -1.5t-2.5 -3.5
q-7 -21 -15.5 -40t-15.5 -38q-4 -14 -14 -24.5t-16 -22.5q-13 -26 -30.5 -44t-36.5 -37q-4 -4 -6.5 -9.5t-7.5 -9.5q-17 -17 -39 -31q-17 -11 -28.5 -24t-23.5 -26q-7 -4 -22.5 -5t-19.5 5q-12 17 -25 9q-15 -8 -28 5q-6 7 -15.5 13t-20.5 12q7 3 12 9t10 11t11 7t17 -2
q-3 3 -3 9q8 0 12.5 0.5t6.5 2.5t3 7.5t3 14.5q2 8 10.5 16.5t14.5 16.5q7 6 17 11q19 19 37.5 36.5t37.5 38.5q8 11 14.5 22.5t13.5 24.5q11 17 19.5 35t16.5 35q0 2 1.5 4t1.5 4q0 21 2 40t0 38t-10.5 37t-16.5 35q-2 6 -4.5 11t-4.5 11q-6 8 -12.5 16t-15.5 15
q-10 8 -24.5 15t-25.5 18q-12 8 -24.5 10t-25.5 7q-19 4 -39 6.5t-41 4.5q-2 2 -5 5.5t-3 5.5v16.5t2 16.5q5 10 12 17q2 4 4 7t7 9q7 -4 10.5 -2.5t5.5 5t3 9t3 8.5q6 2 10.5 4t8.5 4z" />
    <glyph glyph-name="asterisk" unicode="*" horiz-adv-x="347" 
d="M336 550q0 -1 1.5 -2t2.5 -2q-8 -7 -10 -18q0 -4 -5 -4t-8 -5q-7 -13 -23 -9q-11 3 -21 6t-21 5q-16 5 -25 14q-2 1 -3.5 2t-3.5 1q-6 2 -6 -5v-6v-25v-5q-1 -5 -3 -8.5t-9 -5.5q-8 -2 -16.5 -3.5t-16.5 0.5q-12 3 -16 14q-1 6 -1 12.5v12.5q2 10 -2 17q-9 -5 -15 -9
t-11 -8t-11 -6q-2 -2 -8 -2q-2 2 -5.5 2h-5.5q-5 0 -9.5 0.5t-9.5 2.5q-4 0 -6 -2q-7 -1 -14 1.5t-11 8.5l-1 1q-2 2 0.5 8t3.5 8q2 1 5.5 3.5t5.5 4.5q8 14 24 22q5 2 10 6l10 8q3 2 6.5 5t7.5 6l4 2l4 2q6 0 14 8q-5 4 -8.5 7t-8.5 7q-11 8 -21 17t-18 20q-5 8 -10.5 14
t-11.5 13q-8 8 -5 16q2 3 3 6t6 4q4 0 6.5 2t6.5 3q4 2 6.5 1t5.5 -2q6 -6 19 -8q10 -2 17.5 -7.5t15.5 -12.5q3 -3 6 -4.5t5 -3.5q3 1 3 3v5q0 7 0.5 13t-0.5 13q0 6 3.5 11t5.5 11q0 1 1.5 1.5t3.5 -1.5l3.5 -3.5l2.5 -2.5q2 -4 4.5 -7.5t4.5 -5.5q10 -9 16 -20.5
t11 -23.5q4 -10 11 -4q7 5 12 9.5t11 9.5q13 9 28 24q7 7 18 7h6.5t7.5 -2q6 0 6 -8l4 -4q-1 -2 -1 -3.5t-2 -3.5q4 -5 0 -12q-2 -4 -3.5 -8t-3.5 -8q-4 -7 -9 -13t-10 -13q-8 -11 -16.5 -19.5t-17.5 -18.5q-2 -1 -2.5 -2.5t-2.5 -3.5q6 -6 11.5 -11t13.5 -8q7 0 12 -3
q6 -1 11.5 -2.5t9.5 -4.5q4 -5 10 -5q6 -2 11.5 -5t9.5 -11z" />
    <glyph glyph-name="plus" unicode="+" horiz-adv-x="486" 
d="M25 363q-7 5 -7.5 11t5.5 11q8 7 15 13t15 10q11 6 23 10t24 9q17 7 34 11t35 6q9 1 12 4t2 12q0 18 4.5 34.5t11.5 33.5q4 8 5.5 16.5t8.5 14.5t13.5 13.5t17.5 7.5q4 2 6 4q9 5 16 -1q4 -6 7 -8q4 -5 8 -9.5t9 -8.5q11 -8 15 -19.5t-1 -25.5q-2 -5 -4 -9t-4 -9
q-3 -8 -5.5 -16t-4.5 -16q-3 -11 9 -10q8 0 16.5 1t16.5 3q11 2 22 5t22 4q20 1 37 -4.5t30 -22.5q4 -5 7.5 -10.5t5.5 -11.5q5 -13 0 -21.5t-17 -13.5q-4 -1 -7.5 -3.5t-5.5 -4.5q-15 -15 -39 -18q-8 0 -16 -2.5t-16 -4.5q-11 -2 -20.5 -3t-20.5 -3h-9q-12 -1 -11 -14
q2 -8 3.5 -15t2.5 -15q0 -8 -0.5 -15.5t-2.5 -14.5q-5 -17 -2 -31q6 -27 -13 -48q-2 -1 -2.5 -2t-2.5 -2q-8 -2 -15.5 -5t-13.5 -10q-2 -2 -5.5 -1.5t-5.5 1.5q-8 2 -14.5 4.5t-13.5 4.5q-3 1 -5.5 2t-5.5 2q-14 3 -15 17l-6 72q-1 12 -1 24t3 23q4 12 -8 12q-6 0 -12 -1
t-12 -3q-5 -2 -8.5 -4t-8.5 -4q-16 -8 -32 -8t-33 6q-4 2 -8 2t-8 1q-2 0 -5 0.5t-6 0.5q9 6 10.5 8t-0.5 9q-3 -1 -5.5 -1t-5.5 -1q0 2 -1 2q6 4 9 7q-6 11 -16 18z" />
    <glyph glyph-name="comma" unicode="," horiz-adv-x="306" 
d="M48 -79q-5 3 -9.5 6.5t-8.5 8.5q-8 8 -9.5 18t-3.5 20q5 0 8 1t7 1t6 1q11 8 15 9.5t16 3.5q4 0 4 2q5 9 11.5 8t13.5 -2q3 -2 9 -2q10 -1 15 8q8 11 10.5 23t2.5 26q0 17 -0.5 34t-8.5 34q17 9 21 25q7 16 24 22q5 2 9 4.5t7 5.5q7 6 13.5 5.5t11.5 -5.5q40 -21 49 -66
q5 -26 6 -50.5t0 -50.5q-1 -9 -1 -17t-2 -17q-1 -24 -13 -42t-31 -32q-5 -3 -10 -3.5t-10 -0.5q-19 0 -36 -2.5t-33 -12.5q-10 -9 -24 -2q-5 4 -11 7t-11 7q-10 7 -19 12.5t-18 12.5z" />
    <glyph glyph-name="hyphen" unicode="-" horiz-adv-x="514" 
d="M478 343q10 -11 13 -24t2 -27q-3 -11 -3 -23q-1 -2 -2 -5t-2 -5q-6 -4 -7.5 -8.5t4.5 -14.5q-15 -2 -27.5 -3.5t-24.5 -1.5q-54 2 -108.5 4t-108.5 4q-9 0 -18.5 2.5t-20.5 4.5q-16 3 -32.5 6.5t-33.5 5.5q-24 1 -47 0q-20 0 -26 5t-7 25q0 7 1 14.5t2 13.5q2 11 2.5 22
t1.5 20q2 10 5 13t11 4q5 2 7.5 2h5.5q25 -2 49.5 2t49.5 9q20 3 39.5 1.5t39.5 -4.5q47 -6 93 -9t93 -5h9t9 -1q10 0 17 -3.5t8 -15.5q0 -6 6 -8z" />
    <glyph glyph-name="period" unicode="." horiz-adv-x="250" 
d="M200 102q14 -27 4 -54q-10 -29 -38 -40t-57 1q-21 9 -38 24t-31 34q-5 5 -4 7.5t7 7.5q1 1 2.5 1t1.5 2q2 14 12 23t15 21q2 8 12 12q9 1 12.5 6.5t5.5 12.5q0 2 0.5 4l1.5 6q11 -5 21.5 -6t21.5 1q9 0 16.5 -5t11.5 -12q5 -5 7.5 -11.5t6.5 -13.5q2 -5 4.5 -10t4.5 -11z
" />
    <glyph glyph-name="slash" unicode="/" 
d="M596 743q17 -15 25 -44t1 -55q-3 -11 -4.5 -22t-0.5 -24q5 -34 -12 -62q-10 -14 -13 -36q-2 -16 -8 -29t-14 -26q-17 -28 -34 -55.5t-34 -55.5q-4 -7 -6 -15.5t-6 -16.5l-30 -58t-35 -52q-5 -5 -9 -13t-7 -16q-13 -35 -36 -61q-14 -15 -24 -33q-11 -17 -23.5 -27
t-27.5 -18q-4 -2 -8 -2.5t-9 -2.5q-2 2 -6 4t-7 6q-7 9 -13.5 19t-13.5 20q-5 8 -8.5 17.5t-3.5 20.5q-1 4 -1 8t-2 6q-7 10 -5 18t7 16q8 16 17 31.5t18 32.5q19 35 37.5 71t38.5 71q17 30 33 59.5t33 58.5q2 5 4 9t4 9q3 8 5.5 14.5t6.5 13.5q14 29 29 58t31 57
q8 17 17.5 32t19.5 29q6 8 13 14t15 12l21 18q11 8 25 -1zM367 135q2 2 1.5 6t-0.5 8q-2 2 -4 2q-11 -14 -20 -28.5t-17 -31.5l3 -3q9 11 18.5 23t18.5 24z" />
    <glyph glyph-name="zero" unicode="0" horiz-adv-x="639" 
d="M599 387q9 -23 9.5 -46.5t-5.5 -46.5q-4 -17 -10.5 -33t-12.5 -33q-2 -5 -3.5 -10.5t-2.5 -10.5q-3 -20 -16 -34q-5 -8 -10 -16.5t-10 -16.5l-8 -10t-9 -10t-9.5 -10.5t-2.5 -14.5q0 -4 -6 -8q-4 -2 -7.5 -4t-8.5 -3q-7 -2 -13 1q-11 4 -14 3t-10 -11q-8 -11 -15.5 -21.5
t-17.5 -19.5q-17 -16 -37.5 -20.5t-42.5 -6.5q-45 -3 -87 12q-33 11 -64.5 25t-60.5 34q-17 11 -29 25.5t-17 34.5l-8 24t-9 24q-2 5 -8 13q-10 14 -14.5 29t1.5 32q4 10 6 19.5t4 19.5q1 3 1 7q-5 28 -1 55t4 54q0 21 6.5 41.5t13.5 40.5q4 11 6 27q0 17 -10 25
q-11 8 -4 22q6 12 12 24.5t13 23.5q8 15 16.5 30t18.5 29q8 11 16.5 20t17.5 17q4 4 10 4t11 2q7 6 14 12.5t15 12.5q3 3 11 3q15 -4 30.5 -8t30.5 -9q11 -3 21 -8l20 -10q76 -33 133 -89q19 -20 45 -33q14 -8 27 -17t23 -21q14 -17 25.5 -36t10.5 -44q-1 -17 2 -37
q2 -12 3 -24.5t6 -23.5zM217 729q2 -4 4 -6t9 1q-3 3 -5.5 4.5t-4.5 3.5zM197 522q0 -2 1 -3q0 -1 1 -2l9 3q-1 2 -1 2.5t-1 2.5zM340 39q3 0 6 -0.5t7 -1.5q-2 7 -4 8t-6 -1zM422 262q5 14 8.5 29t-0.5 29q-4 17 -10.5 33t-13.5 33q-5 11 -9.5 21.5t-5.5 24.5
q-1 13 -5.5 25t-19.5 17q-2 2 -4.5 5t-4.5 6q-4 5 -7.5 11.5t-8.5 11.5q-9 11 -19 20.5t-26 13.5q-5 2 -10.5 5t-7.5 8q-5 13 -14.5 17.5t-18.5 9.5q-7 4 -13 1.5t-8 -10.5q-1 -5 -1 -10.5t2 -9.5q8 -17 -4 -32q-15 -18 -4 -38q2 -4 3.5 -8t3.5 -8q-7 -2 -12 -3.5t-10 -3.5
q-1 3 -1.5 6.5t-2.5 8.5q-2 -4 -3.5 -6t-2.5 -4q-3 -8 -4.5 -15.5t-6.5 -14.5q-6 -8 -7.5 -17t-1.5 -19q-1 -13 -2 -25.5t-7 -24.5q-8 -15 4 -32q4 -5 7 -13q5 -12 9 -24t9 -24q18 -38 46 -64q7 -8 18 -13q14 -7 32 -8t36 3t33.5 12.5t24.5 22.5q6 6 10 7q7 2 10.5 6.5
t6.5 10.5q3 8 6.5 14.5t6.5 14.5z" />
    <glyph glyph-name="one" unicode="1" horiz-adv-x="611" 
d="M565 76q2 -10 -4 -16q-7 -6 -10 -16l-2 -4l-2 -4l-8 -10t-8 -11q-6 -13 -21 -16q-7 -2 -13.5 -2.5t-13.5 -1.5h-25q-38 -2 -75 -5t-75 -4q-21 -1 -42 2t-41 16q-5 3 -10.5 4t-10.5 3l-24 4t-23 4q-3 1 -7 2.5t-5 4.5q-4 9 -11 15t-15 11t-9 7.5t1 12.5q2 6 3.5 12.5
t0.5 12.5q-2 10 5 16t5 16q0 2 7 4q0 6 -2 16l5 2q17 -2 34 -4.5t34 -4.5q11 -2 21 -2t19 9q14 14 6 29q-7 13 -5 25t9 23h1q0 -5 0.5 -10t6.5 -7q5 10 4 12.5t-11 4.5h-1q1 16 6.5 30t13.5 28q21 32 14 65q-5 23 -1 44.5t15 42.5q12 25 11 52q-1 8 -0.5 15.5t-0.5 15.5
q0 13 -14 9q-4 -1 -12 -5q-45 -18 -90.5 -24.5t-93.5 -4.5q-13 0 -25 2.5t-25 4.5q-4 1 -12 5q-11 5 -5 16q2 2 3 4l2 4q2 5 3 9.5t2 9.5t1.5 10t0.5 10q1 8 2 14t8 11q2 1 2 4.5t-1 5.5q-1 10 8 13q21 8 42.5 15t44.5 8q21 1 41.5 3.5t40.5 7.5q13 3 24.5 9.5t23.5 11.5
q13 6 25 11q11 5 22.5 10t25.5 3t22 6.5t16 18.5q8 11 19 12q5 0 8.5 1t7.5 3q6 1 11.5 2.5t10.5 1.5q13 2 24.5 -1.5t19.5 -14.5q3 -5 7 -10.5t9 -10.5q-4 -5 -7.5 -8.5l-8.5 -8.5q8 -8 7.5 -15t-3.5 -16q-3 -8 -1.5 -18t4.5 -19q5 -14 6 -27t0 -27q-1 -13 0.5 -25.5
t-0.5 -25.5q-2 -20 -5 -39t-8 -38q-2 -8 -7 -15.5t-10 -15.5q-3 -5 -7 -8t-12 -1q-2 1 -5 -1t-5 -4q-20 -25 -4 -54q12 -20 11.5 -41t-8.5 -42q-4 -13 -17 -19q-5 -3 -9 -6.5t-6 -8.5q-5 -11 -10 -23l-10 -24q-2 -4 -2 -8v-8q2 -27 28 -24q8 2 14.5 0.5t14.5 -2.5
q14 -3 28 -3.5t28 -1.5q4 -1 7 0t6 1q7 -2 13 -3t13 -3t8 -8.5t3 -11.5q2 -7 5 -13t4 -13zM270 236q7 6 0 13q-9 -5 -5 -12q1 -1 5 -1z" />
    <glyph glyph-name="two" unicode="2" horiz-adv-x="569" 
d="M535 157q11 -8 11.5 -13.5t-8.5 -14.5l-4.5 -4.5l-4.5 -4.5q-3 -5 -5.5 -9t-5.5 -9q-2 -6 -4.5 -12t-6.5 -11q-5 -8 -7.5 -15t3.5 -16q-21 -5 -40.5 -6.5t-39.5 6.5q-17 6 -35 0q-15 -6 -30.5 -11t-31.5 -11q-25 -8 -50.5 -11t-51.5 -2q-37 2 -71 -7q-20 -5 -38 -2.5
t-35 16.5q-5 4 -9 7.5t-9 6.5q-11 6 -17 16t-14 18t2 19q8 8 15.5 14.5t15.5 14.5q4 4 5 6q2 9 6 16t13 11q3 3 2 4q-1 4 0.5 6t4 4.5l4.5 4.5t2 6q0 1 3.5 2t5.5 1q10 0 12 5q2 6 5.5 10t8.5 8q3 2 4.5 6t3.5 8q2 8 5.5 14t11.5 10q24 13 44.5 30.5t40.5 37.5q11 11 20 23
t17 24q13 18 25 35.5t22 36.5q11 19 19.5 38t12.5 40q2 7 3.5 13.5t3.5 13.5q6 21 0.5 38.5t-19.5 33.5q-7 7 -16 2l-78 -27q-11 -4 -20 -10.5t-17 -14.5q-4 -5 -7 -9t-8 -9q-9 -9 -20.5 -15.5t-25.5 -5.5q-4 0 -12 -2q-9 -2 -17.5 0t-16.5 7q-10 5 -12 13.5t5 17.5
q4 5 3.5 8t-3.5 8q-9 10 0 20q3 5 5.5 8.5t1.5 9.5q0 4 3 7q13 16 25 33t29 30q18 13 35 21q8 4 16.5 7t17.5 6q3 1 6 2.5t6 3.5q6 2 12 5t12 5q7 2 13.5 4t10.5 10q25 -5 41 10q5 5 10 4.5t10 -2.5l33 -12q5 -2 11 -2.5t11 -2.5q10 -2 18 -6.5t14 -12.5q5 -8 11 -15t12 -15
q5 -5 12 -8q21 -6 23 -28t2 -43v-43q0 -20 -3 -40t-8 -40q-2 -4 -2 -8t-2 -7q-14 -43 -29.5 -85t-35.5 -83q-22 -43 -60 -77l-14 -14t-14 -15q-2 -2 -3.5 -5.5t-3.5 -7.5q8 -4 15 -2.5t14 2.5q20 3 39.5 3.5t39.5 -3.5q11 -2 20.5 -5.5t20.5 -5.5q9 -2 18 -3t18 -3
q5 -1 9.5 -2t9.5 -3zM272 154q3 3 7 5q-1 1 -1 1.5t-1 1.5q-2 -2 -3.5 -2.5t-3.5 -2.5q0 -1 2 -3zM294 172q14 6 13 17q-13 -1 -13 -17z" />
    <glyph glyph-name="three" unicode="3" horiz-adv-x="667" 
d="M601 353q21 -31 27.5 -64.5t-7.5 -69.5q-2 -5 -5.5 -10.5t-5.5 -10.5q-6 -10 -11.5 -19.5t-9.5 -19.5q-3 -9 -7.5 -17t-11.5 -13q-15 -13 -25 -28.5t-20 -31.5q-2 -5 -5 -6t-7 -3q-17 -7 -33.5 -11.5t-35.5 -2.5q-7 0 -13.5 -3t-12.5 -7q-15 -8 -30.5 -11.5t-32.5 -7.5
q-11 -3 -14 -5t-10 -11q-5 0 -6 1q-6 8 -14.5 10.5t-17.5 4.5q-17 3 -35 6.5t-36 6.5q-26 5 -46 19q-14 11 -29 19.5t-29 18.5q-6 5 -12.5 9t-12.5 9q-23 22 -54 30q2 9 2 18t-5 17q-2 3 -0.5 7.5t2.5 8.5q0 6 0.5 11.5t1.5 11.5q4 3 8 6.5t9 7.5q-4 12 -1 23t7 22
q13 -5 25.5 -11t25.5 -11q19 -7 33 -23q4 -5 9.5 -8t10.5 -7q6 -3 12.5 -5t11.5 -6q19 -13 42 4q-6 2 -10.5 4.5t-9.5 4.5q-2 1 -2.5 2t-2.5 3l4 4t4 1q9 -2 14 -7q13 -12 28 -20t31 -14q8 -3 17 -2.5t17 -0.5q9 0 17.5 0.5t17.5 -0.5q17 0 34 6q12 5 24 8t22 11q3 2 8 2.5
t9 2.5q17 5 28 10q30 16 17 48q-2 2 -3 4t-1 5q-5 23 -20 37t-34 25q-8 5 -16 5q-18 2 -36.5 3.5t-36.5 3.5q-11 1 -21 3t-21 2q-14 -1 -25.5 2t-19.5 17q-2 4 -12 8q-11 9 -7 23q5 -3 9.5 -5t8.5 -4q5 10 4.5 12.5t-8.5 6.5l-12 6t-13 7q6 7 11 13l10 12q3 5 5.5 10t3.5 11
q2 8 4.5 15t5.5 15q6 12 15 17t20 7q12 0 21 10q2 4 7 5.5t10 3.5q16 4 26 11q8 5 16.5 8t16.5 8q13 6 25 14q19 12 1 27q-9 8 -22 11q-21 4 -42.5 5.5t-43.5 -5.5q-55 -16 -112 -3q-20 5 -38.5 3.5t-37.5 -6.5q-6 -2 -11 -1q3 1 9 5q-13 19 -11.5 37.5t12.5 38.5q-2 4 -3 7
q-5 18 11 25q20 9 39.5 14.5t40.5 7.5q39 2 78 2.5t78 -1.5q20 -2 39.5 -4.5t39.5 -4.5q21 -3 37 -13.5t30 -27.5q7 -9 14 -17.5t14 -18.5q8 -11 11 -25q5 -22 2.5 -43.5t-10.5 -41.5q-6 -16 -12.5 -31.5t-18.5 -28.5q-3 -2 -4.5 -6t-3.5 -8q-4 -8 -9.5 -14.5t-16.5 -10.5
q7 -5 12.5 -10t11.5 -9q48 -34 84 -85zM71 204q2 2 2.5 2t1.5 1l-3 3q-1 -1 -2 -1t-1 -1q0 -2 1 -2.5t1 -1.5z" />
    <glyph glyph-name="four" unicode="4" horiz-adv-x="569" 
d="M534 322q15 -7 21 -19.5t5.5 -25.5t-7 -24.5t-16.5 -17.5q-13 -8 -26.5 -13t-28.5 -4q-6 0 -10 -1q-16 -1 -20.5 -6.5t-2.5 -22.5q2 -20 5 -39.5t5 -39.5q2 -15 -2 -29.5t-16 -25.5l-4.5 -4.5t-4.5 -2.5q-14 -2 -21.5 -10t-11.5 -21q0 -2 -1 -3t-2 -3q-3 1 -5.5 1.5
t-6.5 0.5q-1 -2 -2 -3.5t-2 -3.5q-6 -14 -17 -5q-13 10 -26.5 16.5t-27.5 13.5q-7 3 -8.5 8t-1.5 12h12q-1 5 -1.5 10.5t-2.5 9.5q-10 20 -12.5 40.5t-7.5 40.5q-1 2 -1 7q-2 12 -6.5 14.5t-15.5 -2.5l-15 -9q-16 -8 -33 -9t-34 2q-15 2 -29.5 6t-29.5 8q-12 4 -21.5 11
t-18.5 17t-19.5 19t-21.5 17t-15 18t-4 22q1 23 7 43t20 39q12 17 23 33.5t22 33.5q3 5 5 10t0 9q-3 9 -0.5 15t7.5 11l40 52l40 52q14 18 26.5 36.5t18.5 41.5q0 8 5 10q8 4 13.5 10t11 12.5t11.5 12.5t15 9q8 3 16 10t16 12q13 9 18.5 9.5t22.5 -4.5q8 8 11.5 9t16.5 -1
q1 1 1.5 1t1.5 1q14 15 22.5 15t20.5 -16q14 -19 18 -38.5t-7 -42.5q-11 -25 -8 -52q2 -7 0.5 -14t-3.5 -14q-5 -16 -7.5 -31.5t2.5 -32.5q3 -14 1.5 -27.5t0.5 -27.5q2 -22 6 -44t7 -44q3 -14 18 -17q9 -1 17.5 -2t16.5 -2q10 -1 18 -4.5t11 -14.5q1 -2 3.5 -4t4.5 -4z
M246 325q14 2 17 6t1 18q-3 17 -5 32.5t1 32.5v4q-1 5 -4.5 7t-7.5 -1q-5 -2 -9 -9q-13 -17 -21 -35t-15 -37q-5 -12 -0.5 -16.5t19.5 -4.5q5 1 11 1.5t13 1.5z" />
    <glyph glyph-name="five" unicode="5" horiz-adv-x="583" 
d="M559 270q-8 -13 0 -28q7 -11 6.5 -22.5t-4.5 -23.5q-5 -15 -10.5 -29.5t-12.5 -29.5q-8 -16 -16.5 -31.5t-22.5 -26.5q0 -1 -0.5 -1t-0.5 -1q-9 -24 -28.5 -37t-39.5 -24q-13 -7 -27 -10.5t-28 -8.5q-8 -2 -16 -4.5t-16 -3.5q-23 0 -46.5 -1t-46.5 3q-27 5 -53.5 12
t-50.5 22q-17 11 -30.5 25t-25.5 29q-5 6 -7.5 13.5t-4.5 14.5q-2 6 0 12t3 11t2 9.5t0 8.5q-1 10 3 19t13 14q13 7 16 22q6 -5 12.5 -9t15.5 -1q2 1 4.5 -1.5l4.5 -4.5q7 -6 10 -5t11 9q8 -5 16 -10.5t16 -11.5q5 -4 10.5 -6.5t12.5 -0.5q6 2 11 0.5t11 -3.5
q17 -6 35 -10.5t38 -0.5q8 2 10 2q18 -2 30.5 7.5t26.5 17.5q3 3 3 4q5 11 9 22t9 22q1 4 2.5 7.5t3.5 6.5q3 9 2 14t-9 10q-11 8 -18.5 18.5t-13.5 21.5q-4 8 -9.5 10.5t-13.5 3.5q-13 2 -25.5 3t-25.5 3q-17 4 -32 1t-31 -10q-5 -2 -10.5 -3.5t-10.5 -3.5q-11 11 -18.5 13
t-21.5 -5q-8 -5 -15.5 -7.5t-16.5 0.5q-5 0 -7 -1q-10 -7 -19 -3.5t-18 7.5q-7 2 -7 9q0 14 -2.5 27.5t1.5 27.5q2 6 -1 15q-6 12 -3 26q1 3 0.5 6.5t-1.5 6.5q-6 16 -3 33q2 10 2.5 19.5t0.5 20.5q2 3 -1 6q-8 8 -9.5 18t-2.5 20q0 9 -5 17q-7 11 -9.5 22.5t-5.5 23.5
q-2 10 -5 19t-7 20q10 1 13 7.5t5 14.5q2 12 13 17q18 6 11 23l7 3.5t5 3.5q1 6 1 11t2 9q5 9 13 11t16 -6q15 -17 33.5 -20.5t38.5 -4.5q25 -1 50 -2.5t50 -6.5q45 -6 88.5 -7t88.5 1q13 1 25.5 0.5t25.5 -1.5q13 0 11 -14q-1 -5 -1.5 -9t-0.5 -9q-3 -5 1 -7q5 -6 6 -13
t1 -15q0 -10 2.5 -19t11.5 -17q-4 -3 -7 -5.5t-5 -5.5q-2 -2 -4.5 -5.5t-2.5 -6.5q0 -7 -3 -9t-8 -3q-35 -6 -70 -10t-70 3q-5 1 -15 1q-20 3 -40.5 5t-40.5 7q-23 5 -45.5 4.5t-45.5 -0.5q-12 0 -10 -13q0 -9 3 -18q4 -17 8 -33.5t9 -33.5q2 -11 6 -13.5t15 -3.5q9 0 14 1
q15 2 30 0t29 -4q17 -3 33.5 -4.5t33.5 -3.5q4 -1 12 4t12 10l5 5q21 -8 42.5 -15.5t41.5 -17.5q18 -9 32.5 -23.5t25.5 -31.5q7 -10 2 -23q-2 -7 -0.5 -12.5t5.5 -12.5q7 -14 10.5 -28t-6.5 -30z" />
    <glyph glyph-name="six" unicode="6" horiz-adv-x="597" 
d="M557 362q5 -30 11 -59.5t4 -59.5q-2 -16 -6.5 -31.5t-8.5 -31.5q-2 -6 -3.5 -12l-3.5 -14q-17 4 -23 -12q-2 -5 -5.5 -10.5t-6.5 -10.5q-2 -2 -5 -4.5t-5 -5.5q-2 3 -5 5.5t-5 5.5q-2 -2 -4 -4.5t-4 -5.5q-2 -2 -3.5 -5t-3.5 -3q-16 -3 -29 -12.5t-30 -8.5q-5 1 -10 -2.5
t-10 -6.5q-12 -8 -23.5 -17.5t-24.5 -17.5q-5 -4 -12 -5.5t-14 -3.5q-11 -5 -21.5 -9.5t-22.5 -3.5q-3 0 -5 -2q-17 -10 -36 -11t-37 -3q-33 -5 -56 15q-16 13 -31.5 26.5t-30.5 27.5t-26 31.5t-20 35.5q-3 4 -3 9q0 17 -4 34t-1 35q2 8 0 15.5t-2 15.5q-1 4 -1 11
q3 30 5.5 60t6.5 59q1 7 3.5 13t4.5 12q9 27 17.5 53.5t18.5 52.5q3 9 6.5 17t8.5 15q11 15 18 32.5t18 32.5q10 14 16 30t5 35q0 8 1.5 15.5t3.5 15.5q1 5 3.5 8t8.5 1q7 -1 10.5 2.5t6.5 8.5q2 2 3.5 4.5t3.5 3.5q5 2 10 2.5t9 3.5q4 2 6.5 5.5t6.5 8.5q7 -4 14 -6
q3 -1 6.5 -1t5.5 2q6 6 12.5 5.5t14.5 -0.5q9 -20 8.5 -40t-6.5 -39q-8 -26 -13.5 -52t-9.5 -52q-2 -8 -3.5 -15.5t-3.5 -15.5q-3 -8 -10 -17q-11 -11 -18.5 -23.5t-2.5 -30.5q0 -2 -4 -8q24 -3 37 7q5 3 9.5 4.5t9.5 3.5q6 2 11.5 3.5t11.5 3.5l4 2t4 1q13 -1 25.5 -2
t24.5 -3q8 -1 16 -1.5t16 -3.5q26 -8 51.5 -17t49.5 -21q20 -10 37 -24.5t26 -37.5l2 -4t1 -4zM418 246v5q3 38 -31 52q-29 11 -58 11.5t-58 -15.5q-5 -3 -11 -5.5t-11 -4.5q-14 -5 -28.5 -11t-29.5 -11q-11 -4 -11 -17q0 -9 -0.5 -17.5t0.5 -16.5q1 -11 5 -22t15 -16
q17 -7 33 -16t34 -6q24 0 44.5 5t38.5 18q4 3 8.5 5t9.5 4q12 3 18.5 9.5t11.5 15t9 17.5t11 16z" />
    <glyph glyph-name="seven" unicode="7" horiz-adv-x="653" 
d="M555 454q-6 -8 -12 -16.5t-13 -16.5q-10 -10 -4 -23q6 -11 5 -14.5t-11 -11.5l-7.5 -7.5t-5.5 -8.5q-5 -11 -9.5 -22t-9.5 -22q-3 -5 -10 -8q-14 -8 -25.5 -18.5t-18.5 -27.5q-6 -15 -13.5 -29.5t-14.5 -29.5q-4 -8 -9.5 -14t-12.5 -11q-14 -11 -26 -22.5t-20 -27.5
q-5 -9 -8.5 -17.5t-6.5 -17.5q-8 -22 -24 -37.5t-34 -28.5q-8 -7 -17 -12.5t-17 -10.5q-10 -6 -24.5 -4.5t-22.5 9.5q-10 11 -17 12.5t-22 -3.5h-3q-5 23 -6 45.5t7 45.5q3 9 8 19q17 35 35 71t35 71q2 4 4 8.5t4 10.5q-5 2 -9 4t-9 3l-34 6l-34 6q-5 0 -7 1q-14 4 -18 13
t4 21q4 5 7 10.5t8 10.5q2 3 6 4.5t9 3.5q-9 16 9 26q2 1 2 2t2 2q8 9 13 14.5t11 8.5t14 4.5t21 3.5l2 6t3 8q7 -2 13 -4l12 -4q5 -2 10 -3l10 -2q10 -2 16 -2.5t10.5 1.5t8 7t8.5 14q8 12 14 24.5t12 24.5q10 17 19 31q3 5 6 11t1 15q-5 1 -8.5 1.5t-8.5 0.5
q-50 -5 -99 -4.5t-99 4.5q-23 2 -46.5 3.5t-47.5 -0.5q-5 8 -10.5 15t-10.5 15q-2 7 -3.5 13.5t-2.5 13.5q1 8 1 16.5t1 16.5q0 5 2 13q5 5 11 10.5t10 12.5q3 5 4 9.5t2 9.5v6h1q2 2 4 5t4 5l1 1q37 5 74 5h75q37 0 73 -3q29 -2 56.5 1t55.5 8q21 4 42 7t43 7q22 3 47 9
q22 4 39 -10q33 -26 39 -67q9 -64 -8.5 -119.5t-54.5 -106.5z" />
    <glyph glyph-name="eight" unicode="8" horiz-adv-x="583" 
d="M546 270q5 -13 1.5 -25t-8.5 -23q-16 -31 -36 -58.5t-41 -55.5q-29 -37 -65.5 -62t-83.5 -35q-31 -8 -62.5 -12t-63.5 -1q-39 3 -69 23q-4 3 -8 5q-15 5 -25 15.5t-18 24.5q-9 17 -16 34t-5 37q1 6 0 12.5t-3 12.5q-6 35 -3.5 68.5t10.5 67.5q5 19 15 34.5t21 31.5
q2 3 4 5l4 4q9 11 -1 17q-18 12 -23 29t-4 37q1 33 6.5 66t13.5 65q3 12 8 28q8 29 24.5 51.5t39.5 40.5q8 7 15.5 13t15.5 11q10 6 19.5 11t19.5 7q44 12 86 7t81 -25q33 -17 52 -54l6.5 -13t5.5 -8.5t6.5 -7t10.5 -9.5q-1 5 -1 7.5t-1 7.5q11 -9 21 -16.5t18 -18.5
q2 -2 2 -3.5t2 -2.5q11 -11 8.5 -21t-8.5 -20q-6 -11 -12.5 -20t-12.5 -20q-4 -7 -5 -14t2 -16q5 -11 8 -23t5 -24q4 -33 -18 -62q-12 -13 -1 -26q4 -4 6 -5q22 -19 34 -43t23 -49zM225 530q-1 -16 4 -23t20 -14q8 -3 15 -7t15 -9q16 -11 32 -20.5t35 -15.5q12 -4 15.5 -2
t5.5 14l6 57q2 13 2 25.5t6 24.5q2 7 -2 14q-3 8 -7 14.5t-7 13.5q-7 19 -26 19h-33v2q-8 0 -14.5 -0.5t-13.5 0.5q-14 2 -24 -5.5t-20 -15.5q-4 -4 -4 -10q-2 -16 -3 -31.5t-2 -30.5zM380 198q10 9 15 13t5.5 8.5t-2.5 11.5t-9 20q-5 11 -12 20.5t-18 15.5q-24 13 -40 34
q-13 14 -34 16q-17 0 -33 11q-25 16 -37 -11q0 -2 -3.5 -7t-7.5 -11t-8 -10.5t-5 -5.5q-6 -6 -6 -17q1 -13 -5 -24.5t-1 -25.5q-1 0 -1 -1v-2l-18 -42q-5 -11 0 -19q8 -14 19.5 -25t28.5 -13l33 -3q17 0 33 3.5t30 13.5q8 6 13 8q19 6 34 17.5t29 24.5z" />
    <glyph glyph-name="nine" unicode="9" horiz-adv-x="583" 
d="M37 387q-5 30 -11 59.5t-4 59.5q2 17 6.5 32.5t8.5 31.5l4 12t4 14q16 -4 22 12q2 5 5.5 10.5t6.5 10.5q2 3 5 5.5t5 4.5q3 -2 5.5 -5t5.5 -6q2 2 3.5 5t3.5 5t4 5t4 3q16 3 29 12.5t30 8.5q5 0 10 3l10 6q12 9 23.5 18.5t24.5 17.5q5 4 12 5.5t14 3.5q11 4 21.5 9
t23.5 4q1 0 5 2q17 10 35.5 11t37.5 3q32 5 56 -15q17 -14 32.5 -27t30.5 -28q14 -14 25.5 -31.5t20.5 -35.5q1 -2 2 -4.5t1 -4.5q0 -17 4 -34t1 -35q-2 -8 -0.5 -16t2.5 -16q1 -3 1 -11q-3 -30 -5.5 -60t-6.5 -60q-1 -6 -3.5 -12t-4.5 -13q-9 -26 -17.5 -53t-18.5 -53
q-7 -20 -16 -32q-11 -16 -17.5 -33t-17.5 -33q-11 -14 -17 -30t-5 -35q0 -8 -1.5 -15.5t-3.5 -15.5q-1 -5 -3.5 -8t-7.5 -1q-8 1 -11.5 -2.5t-6.5 -8.5q-2 -2 -3.5 -4.5t-3.5 -3.5q-5 -2 -10 -3t-9 -3t-7 -6l-6 -8q-4 2 -7.5 3.5t-6.5 2.5t-7 0.5t-6 -2.5q-6 -6 -12.5 -5
t-13.5 1q-10 20 -9 40t7 39q8 26 13.5 52t9.5 53q2 8 3.5 15.5t3.5 15.5q3 8 10 17q11 11 18.5 24t2.5 30q0 1 4 9q-11 1 -20.5 -0.5t-17.5 -7.5q-4 -3 -9 -4.5t-10 -3.5t-11 -3.5t-11 -3.5q-2 -1 -4.5 -2t-4.5 -1q-13 2 -25 2.5t-25 2.5q-8 1 -16 1.5t-16 3.5
q-26 9 -51.5 17.5t-49.5 20.5q-20 11 -37 25.5t-26 37.5q-2 2 -4 8zM177 504q-1 -1 -0.5 -2.5t0.5 -3.5q-3 -38 31 -51q29 -11 58.5 -12t58.5 15q5 3 11 5.5t11 4.5q14 6 28.5 11.5t29.5 10.5q11 5 11 18q0 8 0.5 16.5t-0.5 17.5q-1 11 -5 22t-15 16q-17 7 -33 16t-34 6
q-24 0 -44.5 -5t-38.5 -18q-5 -3 -9.5 -5.5t-9.5 -3.5q-12 -3 -18.5 -9.5t-11.5 -15t-9 -17.5t-11 -16z" />
    <glyph glyph-name="colon" unicode=":" horiz-adv-x="306" 
d="M253 511q14 -29 3 -59q-2 -5 -7 -9.5t-10 -6.5q-7 -4 -10.5 -8t-2.5 -12q2 -10 -6 -14q-13 -7 -26 -15t-28 -7q-28 -1 -45 14.5t-21 44.5q-2 7 -4 13t-4 13q-1 5 -1.5 9t0.5 8q9 23 22.5 42t33.5 33q11 8 23.5 10.5t26.5 -5.5q17 -10 32.5 -20.5t23.5 -30.5zM188 305
q13 -9 18.5 -22t10.5 -27q0 -2 0.5 -3.5t-0.5 -3.5q-8 -20 -15 -41t-29 -33q-5 -3 -8.5 -7t-8.5 -6q-9 -6 -17 -8q-13 1 -22.5 2.5t-17.5 9.5q-13 15 -25 30.5t-25 31.5q-11 12 2 21q2 2 4.5 4t1.5 4q-1 11 5.5 18.5t11.5 15.5q5 9 11.5 16t13.5 15q3 3 6.5 4.5t6.5 3.5
q12 7 24.5 6.5t24.5 -2.5q16 -4 20 -18q1 -5 7 -11z" />
    <glyph glyph-name="semicolon" unicode=";" horiz-adv-x="264" 
d="M231 328q5 -14 13 -27t4 -29q4 -18 -1.5 -32.5t-11.5 -28.5q-5 -14 -21 -17q-5 -1 -8.5 -3t-8.5 -4q-6 -3 -12.5 -5.5t-12.5 -4.5q-3 -2 -6.5 -2.5t-6.5 -2.5q-10 -6 -16.5 -6t-15.5 7q-4 2 -7.5 4t-7.5 4q-11 6 -20.5 12t-20.5 12q-5 3 -10 7.5t-10 7.5q-6 5 -12 9.5
t-9 12.5q-2 7 -3 12.5t6 10.5q2 2 2 3q5 17 18 28t24 25q2 2 6.5 2t7.5 -1q5 -2 10.5 -5.5t11.5 -5.5q18 -7 22 9q3 13 11.5 20t17.5 15q3 3 9 4t10 -1q19 -8 40 -21q5 -4 8 -9zM121 452q-8 5 -8.5 11.5t-0.5 14.5q0 21 7.5 38t21.5 32q8 8 15.5 18t15.5 21q11 -4 22 -6.5
t22 -7.5q21 -9 34.5 -26t18.5 -38t-1 -40t-20 -34q-13 -14 -30 -16.5t-34 3.5q-11 3 -20.5 7.5t-20.5 5.5q-8 0 -12 6.5t-10 10.5z" />
    <glyph glyph-name="less" unicode="&#x3c;" horiz-adv-x="528" 
d="M429 577q10 -5 19 -10.5t17 -14.5q14 -14 14 -32q-1 -6 -1 -12v-12q0 -18 -9 -31t-24 -21q-17 -8 -33 -16.5t-33 -16.5q-14 -7 -27.5 -13t-28.5 -10q-14 -4 -26 -10t-25 -11q-3 -2 -5 -4l-6 -6q6 -3 10.5 -5t9.5 -4q47 -11 88 -31q14 -7 27.5 -15t27.5 -17q22 -14 16 -41
q-2 -13 -7 -23t-17 -18q-7 -5 -12 -12l-10 -14q-3 -2 -6 -4.5t-7 -3.5q-15 -4 -30.5 -3t-29.5 9q-23 14 -47.5 22t-50.5 13q-36 5 -64 24q-15 10 -29 19.5t-28 20.5q-8 6 -14.5 14.5t-11.5 17.5q-4 6 -8 10.5t-12 5.5q-4 0 -10 4q-10 4 -6 15q1 3 0.5 7t-0.5 8q1 9 1 18.5
t7 17.5q3 4 4.5 9t3.5 11q-4 2 -7 2.5t-5 2.5q0 1 0.5 1t0.5 1v1q5 1 8.5 2t3.5 8q0 3 7 5q12 4 23.5 8.5t22.5 12.5q7 5 14.5 7.5t15.5 5.5q24 11 48 21.5t48 20.5q20 8 39.5 16.5t39.5 16.5l10 4t9 6q12 10 25.5 16t27.5 11q22 6 42 -4z" />
    <glyph glyph-name="equal" unicode="=" horiz-adv-x="458" 
d="M419 445q8 -14 5 -37t-14 -35q-9 -9 -20 -12t-23 -3q-4 0 -7.5 1t-8.5 2h-35h-32l-14 2l-14 2q-10 0 -15 -1q-32 -10 -64.5 -10t-65.5 5q-7 1 -13.5 1t-13.5 2q-14 3 -28 9q-19 9 -17 31v12t2 11q2 6 4.5 12t5.5 11q2 5 4.5 9.5t-3.5 9.5q11 8 21 11.5t21 5.5
q18 4 35.5 4t35.5 -2q5 -1 15 1q11 2 22.5 3t23.5 3q20 4 44 -4q17 -8 39 -3q13 2 25.5 2t24.5 -5q14 -6 28 -13.5t27 -17.5q4 -4 5 -7zM365 301q16 -6 23 -19t11 -28q2 -8 4 -15.5t4 -15.5q-12 -26 -42 -25q-14 1 -28.5 1.5t-28.5 4.5q-7 2 -14.5 1.5t-14.5 -0.5h-27.5
t-27.5 -1q-13 0 -22 -5q-15 -8 -30.5 -10t-32.5 0q-23 1 -45.5 2t-45.5 3q-5 0 -10.5 0.5t-10.5 1.5q-10 0 -7 10q1 3 0.5 7t-1.5 7q-2 11 -3 21t3 21q2 5 1.5 9.5t0.5 9.5q6 7 15 9.5t19 3.5h10.5t11.5 -2q22 -4 43.5 -1t42.5 11q15 5 30 8.5t31 2.5q6 -1 12 0l12 2
q6 2 10 2q21 1 42 0t42 -8q6 -2 11.5 -4t11.5 -4z" />
    <glyph glyph-name="greater" unicode="&#x3e;" horiz-adv-x="514" 
d="M84 592q20 10 42 4q14 -5 27.5 -11t25.5 -16q4 -4 9.5 -6t10.5 -4l78 -33q24 -10 48 -20.5t48 -21.5q8 -3 16 -5.5t15 -7.5q11 -8 22 -12.5t23 -8.5q7 -2 7 -5q0 -7 3.5 -8t8.5 -2l1 -1q0 -1 1 -2q-3 -2 -6 -2.5t-7 -2.5q2 -6 4 -11t5 -9q6 -8 6.5 -17.5t0.5 -18.5
q0 -4 -0.5 -8t1.5 -7q3 -11 -7 -15q-6 -4 -10 -4q-8 -1 -12 -5.5t-8 -10.5q-5 -9 -11 -17.5t-14 -14.5q-14 -11 -28.5 -20.5t-29.5 -19.5q-28 -19 -64 -24q-26 -5 -50.5 -13t-47.5 -22q-14 -8 -29 -9t-31 3q-4 1 -7 3.5t-5 4.5q-6 7 -11 14t-12 12q-12 8 -16.5 18t-7.5 23
q-6 27 16 41q14 9 27.5 17t27.5 15q21 11 43 18.5t45 12.5q5 2 9.5 4t10.5 5l-6 6t-5 4q-13 5 -25 11t-26 10t-27.5 10t-27.5 13q-17 8 -33.5 16.5t-33.5 16.5q-32 17 -33 52v24q-1 10 3 17.5t10 14.5q8 9 17 14.5t19 10.5z" />
    <glyph glyph-name="question" unicode="?" horiz-adv-x="472" 
d="M408 608q5 -8 -1 -16q-11 -19 -10 -41q1 -8 0 -16.5t1 -16.5q0 -2 -2 -4.5t-4 -4.5q-3 -2 -6.5 -4t-8.5 -7q3 -2 6 -2.5t5 -1.5q-2 -3 -2 -4.5t-1 -2.5q-3 -2 -5.5 -4t-5.5 -3q-12 -4 -20 -12t-16 -17q-5 -7 -10 -13l-10 -12q-5 -5 -8 -9.5t-3 -12.5t-8 -12q-5 -2 -8 -6
l-6 -8q-10 -14 -29 -19q-13 -2 -19.5 -9.5t-10.5 -19.5q-4 -14 -8 -27t-9 -27q-2 -8 -6 -16l-8 -16q-2 -4 -2 -7q2 -14 -6.5 -22.5t-17.5 -16.5q-5 -5 -10.5 -8.5t-10.5 -6.5q-4 -3 -9.5 -2t-9.5 4q-3 3 -9 3q-8 -2 -18 -3q-1 17 -11 28.5t-18 22.5q1 10 5 23q2 8 3 15.5
t3 15.5q3 8 8 17q9 11 12.5 24t5.5 27q3 14 7 26t17 20q16 13 22 33q6 15 19 21q3 1 7 5q11 11 24 19.5t24 19.5q15 13 26 31q6 11 11 23t10 23q6 11 -1 19q-1 2 -2 3.5t-2 3.5q-5 8 -11 15.5t-17 9.5q-14 2 -27 0t-24 -12q-1 -2 -2 -2.5t-3 -2.5q-9 -12 -24 -11
q-17 1 -33 -4t-33 -12l-6 -2q-1 3 -2 5.5t-1 4.5q0 5 1 11t0 12q-3 20 3.5 37t16.5 33q14 23 35.5 34t46.5 16q19 5 38 5t39 -2q9 -1 17.5 -4.5t17.5 -7.5q8 -3 16.5 -6.5t17.5 -6.5q3 -1 6.5 0t7.5 2q0 -1 1 -1t1 -1q3 -8 7.5 -15.5t14.5 -9.5l2 -2q7 -9 13.5 -17.5
t11.5 -17.5q3 -6 3.5 -13t0.5 -14q-1 -5 -1 -9t2 -9zM207 74q-5 -10 -7.5 -18t8.5 -16l-4.5 -4.5t-2.5 -4.5q0 -11 -6.5 -16t-13.5 -10q-11 -6 -22.5 -11t-24.5 -7q-3 0 -4 -1q-9 -7 -16.5 -3t-11.5 9q-6 8 -13.5 12t-15.5 9q-6 4 -10 7q6 19 -4 40q-2 6 -2.5 12t-1.5 12
q-3 12 -6 27q3 1 5.5 1t5.5 1q5 14 -6 25q11 4 20.5 6t20.5 -1q8 -3 19 -1q22 2 41 -7q4 -2 8 -2.5t9 -1.5q8 -2 10.5 -5t4.5 -11q1 -8 2.5 -16.5t3.5 -16.5q3 -10 14 -8z" />
    <glyph glyph-name="A" unicode="A" horiz-adv-x="520" 
d="M556 74q10 -14 1 -30q-4 -5 -7 -11t-5 -13q-4 -17 -11.5 -19.5t-25.5 -2.5q-5 0 -8.5 1.5t-8.5 2.5q-4 1 -8.5 1.5t-8.5 -0.5q-13 -5 -22.5 -1t-17.5 14q-14 16 -28.5 31.5t-27.5 32.5q-15 18 -24 38.5t-16 43.5q-6 17 -11.5 35t-11.5 36q-2 6 -8.5 9t-14.5 1l-57 -12
q-5 -1 -9.5 -0.5t-8.5 1.5q-27 8 -35 -18q-5 -17 -14.5 -32.5t-19.5 -30.5q-5 -7 -12 -11q-2 -1 -6 -0.5t-7 1.5q-9 3 -13 -5t-9.5 -15t-11.5 -14q-8 -11 -13 -24l-10 -26q-3 -11 -3.5 -22t-2.5 -22q-2 -13 -4.5 -14.5t-13.5 3.5q-18 -7 -31 -13l-3 3q2 5 2.5 10t1.5 10
q2 4 2.5 7.5t2.5 6.5q3 6 9 8q12 3 9 13q-5 13 -10 25.5t-10 25.5q-4 6 -11 6q-10 0 -7 10q5 19 9.5 37t9.5 36q11 36 13.5 72t6.5 73q5 56 21 108q9 32 16 63t15 63q10 48 36 92q4 8 5.5 17t2.5 17q0 9 4.5 18.5t11.5 17t15.5 12t17.5 4.5q12 0 23 -3.5t18 -17.5
q17 -29 34.5 -58t33.5 -59q5 -9 7 -19t5 -20q2 -5 4 -8.5t4 -7.5q10 -20 20 -38.5t21 -38.5q8 -12 14.5 -24.5t13.5 -25.5q15 -30 30 -59.5t29 -59.5q8 -18 12 -36.5t12 -36.5q19 -42 42 -80q12 -20 25 -39t27 -39zM138 617q2 -3 5 -6t5 -6q2 1 3 2l3 3q-5 7 -11 15
q-1 -2 -3 -4.5t-2 -3.5zM156 600q-6 -8 -4.5 -15.5t11.5 -12.5q-1 15 -3 28h-4zM249 326q14 3 12 17q-2 7 -6 15q-11 17 -21 34t-21 34q-2 3 -5.5 6t-6.5 2q-3 0 -6 -3t-4 -6q-3 -10 -4 -18.5t-3 -14.5q2 -17 2.5 -30t2.5 -26q3 -19 21 -16q10 1 19.5 2.5t19.5 3.5z" />
    <glyph glyph-name="B" unicode="B" horiz-adv-x="738" 
d="M729 173q6 -12 2 -23t-9 -22q-2 -5 -5 -8.5t-7 -6.5q-17 -14 -37.5 -23.5t-39.5 -20.5q-4 -3 -9 -3t-10 -1q-16 -3 -31.5 -5t-28.5 -13q-5 -4 -15 -2q-22 6 -38 -10q-5 -4 -11 -6.5t-12 -4.5q-5 -2 -11 -3t-9 -5q-6 -8 -14 -11t-16 -4.5t-17 -3.5t-16 -6q-2 -2 -6 -0.5
t-7 2.5q-7 2 -13 4t-13 3q-16 2 -31 3t-31 3q-14 2 -28.5 5t-28.5 10l-57 27q-10 4 -13 8q-10 11 -22.5 15t-25.5 8q-17 3 -28 -6q-6 -5 -16 0q-36 20 -31 61q1 5 1.5 10t1.5 10q1 11 -2 16t-14 10q-4 2 -8 3t-8 3q-17 7 -4 20l3 3q16 9 20.5 23.5t2.5 31.5q-2 31 -1.5 62
t5.5 62q4 28 -2 58q-6 23 -4.5 45t9.5 44q5 16 9.5 31.5t9.5 31.5q3 8 -4 17q-3 2 -9 8q-7 7 -8 12t3 14q7 15 16 27.5t24 20.5q11 7 21 16l20 18q18 16 40 9q7 -2 13.5 -1.5t14.5 0.5q5 0 9.5 1.5t9.5 0.5q17 -4 33.5 -4t33.5 -2q20 -2 39 -4t38 -10q14 -5 27.5 -9.5
t27.5 -9.5t24 -16q11 -12 17 -13.5t20 5.5q2 -6 2 -8q2 -12 12 -9q16 4 29 -10q2 -3 5 -5q13 -4 20.5 -14t16.5 -18q7 -6 6 -16q-1 -23 -1 -45.5t-2 -45.5q-2 -13 -8 -24q-10 -15 -11 -31t-1 -32q0 -9 4 -15.5t11 -11.5q15 -10 30.5 -19.5t31.5 -19.5q4 -2 7 -5t7 -5
q19 -10 18 -33q-1 -14 4.5 -27.5t14.5 -25.5q4 -5 8.5 -10.5t9.5 -10.5q4 -4 9 -7.5t9 -2.5q9 2 11.5 -2t4.5 -9q4 -9 6.5 -18t0.5 -19q0 -4 1 -6zM164 439q6 -26 26 -8q9 8 20 11t23 5q11 1 22.5 2t22.5 4q30 9 60 19t60 21q42 14 23 55q-8 18 -22 28.5t-33 16.5
q-40 12 -81 16.5t-83 7.5h-28q-17 -1 -23 -7t-6 -23q0 -3 0.5 -6t0.5 -6q1 -16 2 -31.5t3 -31.5q2 -19 5 -37t8 -36zM569 179q2 1 3.5 4.5t0.5 5.5q-8 22 -18 41q-7 12 -17 16q-11 5 -21.5 9.5t-20.5 12.5q-3 2 -11 4q-26 9 -53 18.5t-54 17.5q-18 5 -36.5 8.5t-36.5 8.5
q-5 0 -19.5 -3t-31 -7t-30.5 -7.5t-18 -5.5q-3 -2 -6.5 -4t-4.5 -4q-2 -17 -8.5 -32t-6.5 -32q0 -14 4.5 -26t15.5 -22q4 -4 7 -8.5t6 -9.5q2 -2 5 -5.5t5 -3.5q13 1 22 -5t18 -14q3 -2 13 -4q14 -4 29 -7.5t30 -6.5q8 -3 15 2q4 3 12 3h28q7 1 12 3.5t6 10.5t11 6
q2 0 4.5 -0.5t4.5 -0.5q26 -7 51 -4.5t51 6.5q19 3 27 21q2 5 4 9t8 5z" />
    <glyph glyph-name="C" unicode="C" horiz-adv-x="431" 
d="M362 327q35 -8 54 -36.5t14 -64.5q-1 -2 -1.5 -5t-2.5 -5q-11 -20 -18.5 -41t-10.5 -44q-3 -16 -6.5 -31.5t-5.5 -31.5q-2 -25 -17.5 -42.5t-40.5 -24.5q-29 -8 -59 -7t-59 3q-23 2 -42.5 12t-33.5 31q-4 5 -9.5 10t-9.5 10q-31 38 -43 88q-4 14 -9.5 27t-12.5 26
q-16 29 -22 59t-7 62q2 24 2.5 47.5t2.5 47.5v8q-4 20 -0.5 38t5.5 37q2 17 10.5 31.5t15.5 29.5q9 19 18 37t18 37q2 4 4.5 8.5t6.5 7.5q11 9 20.5 19t15.5 24q4 8 9.5 14t15.5 8q2 0 3.5 1.5l3.5 3.5q15 20 34 22t41 -3q17 -4 33 -9.5t30 -16.5q5 -4 12 -6t13 -4
q39 -12 56 -47q8 -14 14.5 -28t14.5 -28q10 -21 -14 -23q-8 -1 -17 -1t-17 -2q-6 -2 -12 -6t-12 -7q-13 -6 -29 -9q-14 -3 -23 11q-2 5 -6 9l-8 8l-12 10l-12 10q-5 5 -10 7.5t-12 -2.5q-3 -1 -9 -1q-20 2 -29.5 -8.5t-17.5 -28.5q-3 -5 -3 -11q3 -26 -4.5 -49.5t-9.5 -47.5
q-3 -50 -2.5 -99t16.5 -97q10 -31 24 -60t28 -59q3 -10 11 -1q4 6 5 9q6 23 12.5 45t13.5 45q2 9 8 15q15 13 18 35q0 10 11 12q7 0 7 3q2 10 9.5 13.5t12.5 8.5q2 2 6 2h7q3 -1 6 -2.5t7 -2.5z" />
    <glyph glyph-name="D" unicode="D" horiz-adv-x="672" 
d="M625 429q17 -23 28.5 -47t9.5 -53q0 -7 -5 -14q-12 -13 -6 -29q3 -10 -3 -19q-4 -8 -4 -14q-1 -15 -8 -26.5t-16 -22.5q-6 -7 -12.5 -14t-13.5 -13q-6 -5 -12.5 -8.5t-13.5 -8.5q-3 -2 -6 -2t-6 -2q-17 -12 -37 -15.5t-40 -5.5q-23 -2 -44.5 -8.5t-41.5 -19.5l-28 -16
t-31 -13q-8 -2 -13 -10q-6 -8 -14 -12t-17 -7q-11 -3 -22.5 -6.5t-23.5 -6.5q-15 -3 -30 -3h-12t-11 2q-21 4 -38 -4t-31 -22q-12 -12 -19 -14t-24 5q-8 3 -18 1q-6 -1 -12 -2.5t-12 -3.5q-21 -6 -27 14q-2 11 -3 21.5t-3 19.5q2 17 3.5 32t3.5 30q2 12 1.5 23t-5.5 22
q-5 13 2 21t8.5 16.5t0.5 17.5l-2 36t-3 36q-5 47 -4 92.5t6 92.5q4 29 9.5 57t10.5 57q4 27 16.5 49t26.5 45q2 4 5 7t6 5q14 10 27 20t27 19q14 10 34 13q60 8 117 4t114 -27q10 -4 19 -8.5t18 -9.5q7 -5 11.5 -11t3.5 -15q-2 -8 2.5 -13.5t12.5 -8.5q2 -1 4.5 -2t4.5 -1
q11 -2 15 -7t6 -16q2 -9 7.5 -17.5t10.5 -16.5q5 -6 9 -11.5t6 -13.5q2 -7 6 -11q12 -12 12 -32q1 -17 8.5 -31.5t12.5 -29.5q7 -18 29 -25q5 -2 10 -3.5t8 -5.5zM495 369q4 21 0.5 40t-12.5 38q-21 47 -57 83q-11 12 -24 20.5t-30 12.5q-6 2 -12 4.5t-11 5.5
q-33 17 -69 20.5t-72 5.5q-16 1 -22.5 -6t-9.5 -22q-3 -16 -5.5 -31t-5.5 -31q-5 -21 -5.5 -42.5t2.5 -43.5q7 -45 11.5 -88t2.5 -88q-1 -9 -0.5 -18t0.5 -17q0 -19 14 -23q8 -1 10 -11q3 -15 19 -10q8 2 7 7t-3 12q35 -6 68.5 -2t65.5 12q15 4 29.5 11.5t26.5 17.5
q14 11 24 24t21 27q15 20 23.5 43t13.5 49z" />
    <glyph glyph-name="E" unicode="E" horiz-adv-x="708" 
d="M697 710q5 -4 6.5 -9t-3.5 -11q-20 -21 -9 -49q5 -14 -7 -22q-3 -2 -5 -6.5t-5 -7.5q-3 -5 -5.5 -8.5t-5.5 -7.5q-2 -3 -4.5 -5.5t-4.5 -5.5q-8 -21 -33 -18q-23 3 -45.5 6t-45.5 5q-67 8 -133 12q-25 2 -50 2h-51h-2q-24 0 -31.5 -7t-8.5 -32v-6q2 0 3 -1
q-3 -14 -5 -27.5t-6 -27.5q-4 -18 3 -36.5t21 -22.5q12 -4 25 -3.5t27 0.5l52 2t52 1q14 0 15.5 -3.5t-3.5 -15.5q-2 -5 -3 -10t-3 -10q-3 -15 -10.5 -27.5t-18.5 -23.5q-7 -8 -11.5 -17.5t-9.5 -18.5q-6 -17 -22 -15q-16 1 -31.5 2t-31.5 4q-17 3 -23.5 -1.5t-8.5 -22.5
l-4 -22l-4 -22q-1 -2 -3.5 -5t-5.5 -3q-12 -1 -19 -8t-12 -16q-8 -15 5 -30q9 -9 16 -25q9 -18 28 -15q17 3 35 6.5t36 6.5q3 0 5 2q21 19 46.5 21t51.5 4q15 2 30 5.5t29 7.5q10 2 19 6.5t19 6.5q5 2 12 1t10 -4q4 -5 10 -7t11.5 -4.5t9.5 -7t4 -12.5q0 -24 -19 -43
q-2 -2 -5 -3.5t-5 -3.5q-10 -7 -15.5 -15.5t-4.5 -20.5q2 -19 -16 -16q-15 3 -28.5 -2.5t-27.5 -5.5q-19 -1 -36 -7t-34 -13q-19 -8 -35 8l-8.5 8.5t-8.5 3.5q-9 -1 -18 -4l-18 -6q-9 -4 -17.5 -8t-17.5 -8l-14 -4t-12 -6q-15 -13 -38 -11q-20 0 -40 3t-40 11
q-8 4 -15.5 6.5t-15.5 4.5q-22 6 -39 -6q-9 -7 -13 -5t-6 13q-3 16 -10 27q-5 11 -6 21.5t4 21.5q11 20 15.5 41t5.5 44q1 24 2.5 48t3.5 48q3 26 -7 54q-2 6 -2 13t2 13q11 29 19.5 57.5t4.5 60.5q0 4 1.5 8t1.5 8q2 10 2.5 19t1.5 19v26q1 21 1.5 42.5t0.5 42.5
q0 24 -24 31q-10 2 -12 9t6 15q12 14 25.5 26t26.5 25q2 2 3.5 2.5t3.5 1.5q14 2 28 5t28 1q48 -7 96 -9.5t97 1.5q30 2 59.5 2.5t59.5 -1.5q29 -1 57.5 -3.5t57.5 -5.5q13 -2 25.5 -6t26.5 -7q6 -2 12.5 -2.5t13.5 -2.5q5 -2 9.5 -3.5t9.5 -4.5z" />
    <glyph glyph-name="F" unicode="F" horiz-adv-x="583" 
d="M224 580q-13 -2 -17.5 -7t-5.5 -19v-23h1q-1 -14 -2 -29t-3 -29q-2 -22 5.5 -30t29.5 -6q20 2 39 2t38 5q21 5 42 4.5t42 0.5q11 0 16 -5.5t8 -14.5q2 -6 -2 -10q-7 -6 -6 -11t6 -11q8 -8 7.5 -12.5t-11.5 -9.5q-17 -7 -8 -23q2 -2 2.5 -3.5t2.5 -3.5q2 -4 4.5 -8t5.5 -9
q-6 -2 -12 -5t-11 -3q-20 2 -39.5 4t-39.5 4q-57 8 -109 -7q-5 -1 -9.5 -7.5t-4.5 -11.5q0 -32 7 -60q6 -25 9 -49.5t-3 -50.5q-3 -14 -10 -26.5t-19 -20.5q-12 -9 -20 -19.5t-11 -25.5q-2 -9 -8 -16.5t-11 -15.5q-2 -2 -6 -2t-7 2q-14 7 -18 -8q-5 -16 -12.5 -18t-21.5 7
q-11 7 -16.5 16.5t-6.5 24.5q-2 33 0.5 65.5t4.5 65.5q2 30 2.5 59.5t0.5 59.5v72t-2 71q-3 54 -4 108t-11 108q-2 7 0 17.5t7 21t12.5 19t17.5 11.5q4 2 10 10q3 5 5 10.5t6 6.5q7 2 15 2.5t13 -3.5q23 -14 46 -13.5t47 2.5q36 2 71 0t70 -15q19 -8 38.5 -9.5t39.5 -1.5
q30 2 60 3.5t60 6.5q0 -2 3 -3q8 -1 14 -6l2 -2q3 -12 4.5 -24.5t3.5 -24.5q0 -2 -0.5 -4.5t-0.5 -4.5q-5 -25 -15 -47q-4 -9 -9.5 -17.5t-13.5 -13.5q-2 -2 -3 -2q-4 2 -7.5 2.5t-7.5 2.5q-32 11 -66 11.5t-65 -21.5q-10 -7 -19.5 -7t-20.5 2q-8 3 -16.5 7t-17.5 7
q-11 3 -21 6t-21 4q-12 1 -23.5 0t-23.5 -2z" />
    <glyph glyph-name="G" unicode="G" horiz-adv-x="736" 
d="M672 297q10 -20 9 -41t-15 -39q-11 -14 -23 -26t-26 -23q-11 -9 -19.5 -19t-15.5 -22q-5 -8 -11.5 -14.5t-17.5 -9.5q-5 -2 -8 -9t-6 -13q-2 -4 -2.5 -8.5t-1.5 -11.5q-12 14 -15 14t-10 -16v-2q-10 -8 -19 -16.5t-20 -15.5q-11 -8 -23.5 -13.5t-23.5 -13.5
q-13 -8 -27 -11t-28 -5q-11 -1 -23 -1.5t-23 0.5q-12 2 -24 5.5t-24 6.5q-26 7 -46.5 21.5t-42.5 26.5q-35 20 -66 44.5t-53 58.5q-7 10 -9.5 23t-4.5 25q-2 16 -3.5 32t0.5 31q2 14 7.5 27t9.5 27q2 10 3 19.5t2 19.5q1 5 0 9t1 8q5 11 11.5 22t11.5 23q5 13 9 26t8 27
q2 5 2.5 9t1.5 9q1 2 2 5t3 4q10 2 13.5 9t6.5 14q21 41 49 76t60 67q3 4 6.5 7.5t5.5 8.5q8 18 23 25t31 15l39 18q2 1 8 1h10t10 -1q3 -1 6 -1.5t5 -2.5q8 -13 19 -12.5t22 2.5q17 3 34.5 4t35.5 -6q12 -4 23 -1t22 8q12 6 17 -5q3 -9 5.5 -18t5.5 -18q2 -6 3 -12t3 -11
q5 -10 3 -14t-10 -11q-6 -5 -10 -13.5t-8 -16.5q-5 -8 -8 -16.5t-8 -16.5q-4 -6 -12 -6q-9 -2 -18 -3t-19 -3q-40 -6 -81 10q-31 11 -60 -5q-9 -5 -15.5 -14t-12.5 -18q-17 -23 -33.5 -47t-33.5 -48q-5 -7 -8 -15l-6 -16q-17 -38 -34 -80q-11 -26 -10 -52.5t6 -52.5
q5 -29 19.5 -52.5t40.5 -38.5q9 -5 19.5 -7t21.5 -4q13 -4 30 -7l20 -2t20 0q12 2 23.5 5t22.5 7q9 2 14 7q14 14 26.5 27t23.5 27q17 18 22 40.5t8 45.5q2 11 -3 15t-16 6q-20 3 -33 -5t-26 -19q-4 -3 -8.5 -5t-8.5 -5q-12 -10 -27.5 -13.5t-27.5 -11.5
q-18 -12 -34.5 -10.5t-33.5 8.5q-8 3 -14 12t-12 17q-2 2 -0.5 6t3.5 7q4 8 -5 12q-14 7 -15.5 13t9.5 17q11 12 24.5 21t31.5 12q12 2 24.5 4.5t21.5 13.5l3 3q18 7 35.5 13.5t34.5 13.5q7 2 13 4t13 3q8 2 16 2h16q4 1 7.5 0.5t6.5 1.5q9 2 17 5t17 5h5q35 -13 66 -38
q7 -5 11.5 -12.5t9.5 -15.5q8 -12 17.5 -24t15.5 -26z" />
    <glyph glyph-name="H" unicode="H" horiz-adv-x="556" 
d="M557 258q2 -23 3 -45.5t-2 -45.5q-2 -17 -4 -34.5t-4 -34.5q-1 -6 -9 -14q-4 -4 -8 -7t-9 -7q-2 -2 -4 -6q-8 -10 -12.5 -10t-9.5 11q-8 16 -22 11q-7 -2 -10 -8q-8 -16 -22 -6q-6 5 -13 8.5t-13 7.5q-23 17 -23 48q-1 33 0 66.5t0 66.5q0 14 -3 27.5t-7 27.5
q-2 7 -7 9.5t-12 -1.5q-20 -11 -41 -12t-42 -3q-8 -1 -16 -3.5t-15 -7.5q-4 -3 -5.5 -10t-1.5 -13q-2 -35 -2.5 -70t-2.5 -70q-1 -26 -3 -51.5t-4 -51.5v-22q-1 -1 -1 -1.5t-1 -1.5q-5 12 -9 10t-10 -6q-9 -5 -18.5 -8.5t-19.5 -7.5q-2 -1 -5.5 1t-6.5 4q-3 1 -7 3t-6 0
q-17 -9 -30 -2.5t-27 12.5q-9 5 -11.5 4.5t-11.5 -8.5q-1 5 -1.5 9t-0.5 8l2 36l2 36q0 14 -3 28q-8 25 -8.5 49.5t2.5 50.5v2q-3 29 -6.5 58.5t-5.5 58.5q-2 12 -2 23.5v23.5q0 15 1 30l2 30q0 2 -0.5 3t0.5 3q7 24 4.5 48t-0.5 48q2 21 6 42t7 41q3 21 3 42q0 11 1 21
t7 20q3 5 5.5 6.5t7.5 -3.5q4 -3 11 -3q10 3 19.5 5.5t17.5 11.5q1 2 4.5 1.5t5.5 -1.5q15 -13 29 -25.5t22 -31.5q2 -6 6 -11.5t7 -11.5q11 -23 14 -48t2 -50q-2 -22 -3.5 -44t-3.5 -44q0 -4 -0.5 -7.5t0.5 -7.5q2 -16 16 -17h13t12 1q26 5 53 7t54 -1q14 0 16 14
q0 6 0.5 12t-0.5 12q-2 20 -1 38.5t6 38.5q4 16 3.5 32.5t2.5 32.5q3 18 -1 34t-8 33q-3 11 -2 20t9 17q5 5 12 7.5t13 5.5q4 2 7.5 4t6.5 4q17 14 30 -3q6 -8 14 -12.5t19 -2.5q7 0 8 -1q5 -8 10.5 -16.5t9.5 -17.5q3 -9 4.5 -19t3.5 -20q8 -45 14 -90t4 -92
q-2 -28 -4 -55.5t-1 -55.5q0 -26 3 -53t7 -53z" />
    <glyph glyph-name="I" unicode="I" horiz-adv-x="278" 
d="M260 62q6 -20 -10 -33q-3 -3 -6 -7t-7 -7q-6 -4 -12 -8.5t-14 -6.5q-26 -7 -50.5 0.5t-47.5 17.5q-15 5 -23 18l-16 26q-11 17 -16.5 36.5t-3.5 39.5q5 52 0.5 102.5t-10.5 101.5q-3 22 -2 43.5t0 44.5q-2 32 -3.5 64t-2.5 64q0 25 0.5 49.5t4.5 48.5q2 18 8.5 35
t11.5 34q4 10 12.5 12.5t16.5 4.5l16 4l16 4q27 8 46 -15q7 -8 15 -15.5t16 -14.5q25 -21 27 -51q1 -27 1 -54t1 -54v-17h-1q1 -35 2 -69t3 -69q2 -29 5.5 -58.5t5.5 -59.5q4 -46 7 -91.5t6 -91.5q1 -7 1.5 -14t2.5 -14z" />
    <glyph glyph-name="J" unicode="J" horiz-adv-x="472" 
d="M469 376q4 -11 5.5 -22t-2.5 -22q-2 -4 -5 -7t-6 -7q-3 -2 -6 -4.5t-5 -5.5q-2 -7 -4 -13.5t-4 -13.5q0 -2 -0.5 -3.5t1.5 -3.5q8 -11 5.5 -24t-0.5 -25q2 -7 0.5 -14t-3.5 -14q-3 -11 -6 -21t-7 -21q-6 -16 -11.5 -32.5t-13.5 -30.5t-22 -22t-28 -14q-23 -8 -46 -14.5
t-46 -14.5q-11 -4 -17 -11q-11 -12 -26 -12q-9 0 -19 -5q-34 -19 -68 2q-6 5 -12.5 10t-11.5 11q-11 11 -21 22.5t-20 22.5q-5 6 -9.5 12.5t-9.5 13.5q-6 8 -12.5 16.5t-13.5 16.5q-4 8 -6 13q10 -2 12 2.5t4 10.5q2 7 6 13t8 14l10 -10q2 -2 4.5 -2t4.5 -2l2 4t1 4
q1 13 5.5 16t15.5 -3q6 -4 11.5 -4t12.5 1q6 2 13.5 0.5t14.5 -3.5q11 -3 21.5 -7t21.5 -8q2 -1 5.5 -1.5t5.5 -2.5q8 -7 17.5 -7t18.5 4q17 7 33 15t30 22q21 24 27 53q8 33 13.5 66.5t11.5 67.5q0 2 -0.5 5t-0.5 6q-1 4 -2.5 7.5t-0.5 8.5q2 23 -3 44t-8 43
q-3 23 -6.5 45.5t-9.5 44.5q-5 20 -13 39.5t-16 39.5q-2 5 -7.5 9t-10.5 7q-5 4 -8.5 8t-3.5 11q1 11 15 16q13 3 24 15q4 5 12.5 8t17.5 3t18 -2.5t14 -7.5q8 -8 16.5 -16t15.5 -18q7 -11 12.5 -23t11.5 -24q8 -14 10.5 -28t4.5 -28q3 -24 11 -45.5t16 -44.5
q4 -12 5.5 -24.5t3.5 -24.5q2 -16 0.5 -31t-3.5 -31q0 -5 1.5 -9t3.5 -9z" />
    <glyph glyph-name="K" unicode="K" horiz-adv-x="625" 
d="M615 73q3 -6 7 -12q0 -11 -1.5 -20.5t-1.5 -19.5l-1 -1q-1 2 -2 2.5t-2 2.5q-2 2 -5 0.5t-4 -4.5q0 -4 -0.5 -7.5t-0.5 -7.5q-4 0 -7.5 -0.5t-7.5 0.5q-4 2 -5.5 -1.5t0.5 -5.5q-2 0 -3 0.5t-3 0.5q-9 4 -20 7l-1 1q-4 4 -7.5 8t-1.5 11q2 3 -1 6q-8 8 -15.5 14.5
t-14.5 13.5q-5 -4 -7.5 -7.5t-4.5 -3.5q-7 3 -11 11q-10 23 -34 18q-2 -1 -3.5 -0.5t-3.5 0.5q-17 7 -33.5 13t-33.5 13q-12 6 -23 17q-23 25 -56 25q-23 1 -39.5 12.5t-31.5 26.5q-2 2 -4.5 5t-4.5 5q-3 2 -6.5 3.5t-5.5 0.5t-4 -4.5t-2 -6.5q-4 -21 -4 -42.5t5 -42.5v-2
q10 -26 -0.5 -44t-27.5 -33q-15 -13 -39.5 -13t-44.5 12q-4 2 -7.5 4.5t-7.5 4.5q-15 8 -20.5 20t-7.5 27q-3 25 -3.5 49.5t3.5 49.5q4 23 5.5 47t2.5 47q1 12 -1.5 24t-3.5 24q0 5 0.5 9.5t0.5 9.5q-1 30 -1.5 60.5t-3.5 60.5q-5 41 -6.5 81t0.5 82q1 14 0 28.5t-2 28.5
q0 20 4.5 26t23.5 13q10 4 15 9q8 7 16.5 8t16.5 -1q11 -2 18 -8.5t9 -19.5t17 -16q8 -2 10 -8.5t3 -13.5q5 -37 10 -73.5t10 -73.5q1 -3 1.5 -6.5t1.5 -6.5q3 -10 6.5 -11t11.5 4q17 11 32.5 22t32.5 22l24 16t23 16q3 2 7 8q2 2 4.5 4t5.5 3q15 3 27.5 10t23.5 18
q10 9 21.5 15.5t23.5 13.5q7 4 14 5.5t15 4.5l17 8.5t17 9.5q9 6 14.5 5.5t15.5 -9.5q7 -5 6 -11.5t-3 -12.5q-5 -13 -9 -25.5t-4 -26.5q0 -8 -4.5 -14.5t-6.5 -13.5q-7 -22 -22 -35t-32 -24q-8 -5 -16.5 -8.5t-17.5 -5.5q-15 -4 -26.5 -13t-24.5 -17q-20 -14 -39 -26.5
t-39 -25.5q-12 -8 -24 -15.5t-24 -15.5q-19 -13 -3 -27q9 -8 19 -13t19 -13q25 -20 53 -35.5t57 -26.5q31 -11 58.5 -26t54.5 -32q17 -11 32 -24t32 -25q5 -4 10.5 -6.5t7.5 -7.5q5 -8 6.5 -15.5t2.5 -15.5q1 -6 -1 -12.5t-3 -12.5q0 -2 1.5 -4t2.5 -4q2 1 2.5 2t1.5 2
q2 -2 2 -3q0 -3 2 -4q0 -1 0.5 -1.5t0.5 -2.5v-1q2 -4 5 -4zM554 59q13 -15 35 -19q-2 6 -3 10.5t-3 9.5q-3 8 -10.5 11t-15.5 -1q-2 -2 -3 -5.5t0 -5.5z" />
    <glyph glyph-name="L" unicode="L" horiz-adv-x="556" 
d="M536 199q2 -11 2.5 -21.5t-5.5 -20.5q-2 -3 -4.5 -6.5t-5.5 -4.5q-20 -7 -38 -8q-12 -2 -22.5 -5t-20.5 -11q-9 -7 -20 -7q-14 0 -25.5 -5.5t-24.5 -10.5q-5 -2 -11.5 -2.5t-12.5 -1.5q-8 -2 -15 -2.5t-14 -2.5q-10 -2 -19.5 -4.5t-19.5 -4.5t-14 -4q-11 -5 -20.5 -9.5
t-20.5 -9.5q-10 -5 -17 -11.5t-8 -19.5q0 -8 -5 -11q-10 -5 -19.5 -9.5t-19.5 -9.5h-2q-9 -4 -16.5 -3.5t-14 4t-12.5 8.5t-12 9q-2 1 -4 3q-21 6 -30 21t-15 33q-2 6 -1 10q2 12 4 23.5t5 22.5q4 15 -2 31q-2 5 -1 10t3 10q2 9 5.5 17.5t6.5 17.5q6 13 9 29q2 9 4.5 18.5
t2.5 19.5q-2 48 16 90q8 19 9.5 38t1.5 39q-1 30 -0.5 60t1.5 60q0 8 2.5 17t3.5 17t1.5 16.5t-0.5 16.5q-1 3 -3.5 6t-4.5 6l-4 4l-5 5q8 2 9 2q11 2 14.5 5.5t6.5 14.5q0 6 4 9q13 9 18 28q1 2 3.5 4t4.5 4q20 13 38 23q5 3 9 2q44 -8 41 -52q-1 -5 -1 -10.5t-1 -10.5
v-10.5t8 -6.5q2 0 3 -3t1 -5q-1 -9 -1 -18.5t-1 -19.5q-5 -47 -4.5 -93.5t2.5 -94.5q2 -43 0.5 -85.5t-10.5 -85.5q-2 -6 -2 -12t-2 -13q-2 -14 12 -15q2 0 4 -0.5t4 -0.5q24 4 48.5 7.5t47.5 9.5q15 4 30 11.5t29 15.5q18 10 46 13.5t48 -10.5q6 -5 11 -11l10 -12
q1 -2 1 -4v-4v-15t1 -14z" />
    <glyph glyph-name="M" unicode="M" horiz-adv-x="875" 
d="M869 128q4 -14 3 -25.5t-12 -20.5q-3 -3 -4.5 -8t-3.5 -9l-4 -10t-6 -8q-8 -8 -17 -15t-17 -15q-6 -5 -11 -6.5t-13 3.5q-9 6 -17 13.5t-14 18.5q-10 17 -19.5 34t-13.5 38q-1 3 -2 5.5t-3 5.5q-11 19 -16.5 40t-12.5 41q-5 14 -11 27.5t-13 26.5q-11 20 -22 39t-22 39
q-4 9 -11 11q-2 0 -4.5 -4t-4.5 -7q-5 -8 -9 -16.5t-7 -17.5q-7 -26 -8 -49q-1 -20 -3 -38t-12 -35q-12 -23 2 -46q7 -11 12 -24.5t10 -26.5q2 -7 -2 -15q-7 -11 -16 -16.5t-20 -3.5q-10 0 -22 -7q-16 -10 -31 -20.5t-31 -21.5q-6 -3 -13 1q-9 5 -18.5 10.5t-18.5 11.5
q-2 1 -4.5 4t-1.5 5q0 14 -6.5 23.5t-12.5 18.5q-14 18 -27.5 35.5t-27.5 35.5q-11 15 -20.5 30.5t-19.5 31.5l-30 57q-2 4 -6 10q-14 15 -18 -6q-3 -11 -5 -23.5t-5 -23.5q-5 -19 -11.5 -36.5t-11.5 -36.5q-5 -22 -6 -43.5t5 -43.5q2 -6 2 -13v-14q1 -11 -5 -16.5
t-18 -10.5q-36 -12 -76 1q-11 4 -22 13t-21 19q-11 10 -10 26t-1 34q3 29 6 61t7 64q4 26 9 51.5t9 51.5q5 36 10 71.5t10 71.5q4 29 7.5 57.5t5.5 57.5q2 20 -4 35.5t-21 25.5q-10 7 -10.5 11.5t6.5 14.5q2 2 4 8q10 31 38 32q4 0 7.5 2.5t6.5 5.5q6 5 10.5 11t10.5 11
q7 7 14.5 4t12.5 -13q4 -11 7.5 -21t6.5 -21q5 -14 12 -25t15 -21q3 -4 6 -7.5t5 -8.5q17 -25 32.5 -50t32.5 -49q11 -15 23.5 -27t23.5 -28q17 -26 32.5 -53.5t32.5 -54.5q5 -8 9.5 -17t9.5 -17q2 -2 5 -4t5 -1t4 4t2 6q3 19 5.5 37t3.5 37q0 25 2 48.5t7 47.5q5 21 2.5 42
t-7.5 41q-2 8 -6.5 14.5t-8.5 14.5q-8 17 8 23q17 5 28.5 15.5t15.5 33.5q1 4 4 8t5 4q2 1 5.5 -2.5t5.5 -6.5q4 -6 6.5 -12.5t6.5 -11.5q6 -8 15 -8q28 -2 42 -27q2 -4 3 -5q27 -22 43.5 -54t36.5 -60q8 -11 17.5 -19.5t18.5 -17.5q5 -4 9.5 -7t7.5 -8q19 -29 34 -59.5
t22 -68.5q3 -14 8 -27.5t11 -26.5q7 -18 15.5 -35.5t16.5 -35.5q4 -10 9 -16q8 -10 11 -21.5t5 -25.5q1 -14 6 -27z" />
    <glyph glyph-name="N" unicode="N" horiz-adv-x="693" 
d="M425 -579q4 9 11 2q2 -1 4 -3q1 1 1 2t0.5 2t0.5 2q1 -1 2 -1.5t2 -1.5zM710 103q9 -11 9.5 -21.5t-0.5 -21.5q0 -2 -3 -4.5t-6 -3.5q-10 -2 -18.5 -5t-13.5 -13q-1 -2 -4.5 -3t-5.5 -1q-14 2 -26 -2t-21 -15q-7 -8 -20 -9.5t-21 5.5q-10 9 -19 19.5t-14 21.5
q-10 23 -25.5 40t-34.5 31q-42 31 -75 67.5t-58 81.5q-37 71 -91 125q-2 2 -3.5 3t-3.5 3q-15 12 -18 -6q-2 -9 -1.5 -17.5t0.5 -17.5q2 -37 4 -73.5t2 -74.5q0 -26 -11 -53q-3 -10 -9.5 -18.5t-14.5 -16.5q-6 -6 -9.5 -12.5t-2.5 -16.5q0 -23 -3 -44q-1 -4 -4.5 -8t-7.5 -5
q-13 -3 -22 -10.5t-18 -15.5q-2 -3 -7 -5t-8 0q-20 7 -37 -7q-13 -10 -26 0q-16 11 -24 26.5t-10 35.5q-5 45 0 88t5 87q0 32 0.5 63t0.5 63v60.5t-1 60.5q-2 32 -3.5 64.5t-3.5 64.5q0 8 0.5 17.5t2.5 17.5q2 10 7.5 17.5t17.5 9.5q11 3 18 16q22 35 60 19q19 -8 35 -19
t30 -25q38 -32 74.5 -64.5t74.5 -64.5q37 -33 69 -70t59 -79q7 -11 14.5 -22t15.5 -22q2 0 3 0.5t2 0.5q1 5 1.5 9t-0.5 9q-2 26 -4 51.5t-3 51.5q-2 19 -0.5 37.5t-0.5 37.5q-2 25 -9 48t-27 41q-2 2 -2 3q-8 8 -6.5 14t13.5 8q11 1 13.5 6t0.5 14q-6 31 26 35
q8 1 14.5 3.5t9.5 12.5q2 10 10.5 11t16.5 -5q2 -2 4.5 -4t5.5 -4q0 2 0.5 3t0.5 2l3 9q2 -2 4.5 -3.5t3.5 -3.5q5 -8 7.5 -16t7.5 -16q2 -4 6.5 -7t7.5 -8q7 -6 9 -12q2 -17 10.5 -30.5t19.5 -25.5q11 -11 10 -27q-1 -8 3.5 -15.5t8.5 -15.5q3 -8 7.5 -15.5t5.5 -15.5
q2 -18 0.5 -35t-15.5 -33q-5 -6 -5 -17.5t2 -21.5q5 -36 13 -68q2 -10 7.5 -18.5t7.5 -18.5q6 -28 -2 -53q-5 -14 -6.5 -28.5t-2.5 -28.5q0 -17 1 -33.5t4 -33.5q3 -18 18 -35z" />
    <glyph glyph-name="O" unicode="O" horiz-adv-x="595" 
d="M572 506q1 -9 2.5 -18t0.5 -18q-1 -13 -1 -26t-6 -26q-4 -9 -7 -17t-9 -16q-5 -7 -6.5 -15t-0.5 -16q1 -35 -1.5 -69.5t-10.5 -68.5q-9 -39 -34 -70l-48 -57q-7 -8 -15 -13t-19 -5q-4 0 -8 -2.5t-7 -4.5q-27 -24 -67 -32l-156 -30q-5 0 -7 -1q-20 -10 -39 -5.5t-38 12.5
q-17 7 -32 16.5t-26 23.5q-8 11 -14.5 22t-13.5 23q-6 11 -2 25q4 -8 6 -13.5t4 -10.5q2 -2 8 -4l2 4t1 4q0 5 -1 9.5t-2 9.5q-2 14 0.5 27t12.5 25q9 11 13.5 23.5t0.5 27.5q-3 12 -2.5 24t-6.5 23q-2 3 -1.5 7.5t0.5 9.5q2 20 -12 31q-7 5 -7 11t2 13q5 18 12.5 36
t19.5 33q22 31 44 60.5t46 58.5q17 20 32.5 40.5t30.5 41.5q15 20 29 40.5t29 40.5q14 18 31.5 30t35.5 24q3 2 7 3l8 2q20 3 26 -16q3 -8 4.5 -17t2.5 -17q3 -23 23 -27q13 -3 22.5 -10t19.5 -16q17 -16 34 -30.5t34 -30.5q12 -11 23 -23l22 -24q6 -7 8 -15t3 -17zM457 317
q9 24 6 50q-2 21 -8.5 40t-15.5 37q-10 19 -23 30q-22 18 -41 37.5t-35 42.5q-4 7 -7 13t-1 14t-3 12t-13 2q-8 0 -14 -6q-6 -7 -12 -13.5t-11 -14.5q-17 -33 -31.5 -66.5t-26.5 -68.5q-8 -24 -18.5 -47t-24.5 -45q-25 -38 -26 -93q-1 -19 9.5 -36.5t25.5 -34.5
q42 -46 102 -31q26 6 51 16.5t49 22.5q17 10 25 23q11 17 19.5 35.5t12.5 39.5q3 20 11 41z" />
    <glyph glyph-name="P" unicode="P" horiz-adv-x="583" 
d="M600 545q5 -12 -4 -26q-6 -11 -11 -22t-11 -22q-2 -5 -7 -7q-2 -2 -5.5 -2t-3.5 -2q-2 -5 -2.5 -9.5t-1.5 -9.5q-1 -3 -0.5 -7t-1.5 -6q-8 -13 -10.5 -26t2.5 -27q2 -5 -0.5 -9t-7.5 -7q-4 -2 -8 -5t-7 -6q-14 -16 -31.5 -22.5t-36.5 -11.5q-7 -2 -14 -1.5t-15 -1.5
q-18 -4 -36.5 -8t-36.5 -8q-8 -2 -12 -2q-14 0 -27 -4.5t-25 -11.5q-9 -5 -17 -8q-18 -6 -18 -25q0 -6 -0.5 -12.5t-0.5 -12.5h-3q2 -23 3.5 -44.5t2.5 -44.5q0 -5 -1.5 -9.5t-2.5 -9.5q-1 -7 -1.5 -14t1.5 -14q3 -11 3.5 -20.5t-7.5 -19.5q-2 -2 -2 -5t-2 -6t-4 -7t-6 -6
q-8 -4 -16.5 -6.5t-17.5 -4.5l-20 -4t-19 -5q-26 -7 -34 17q-3 10 -7 19t-7 18q-3 6 -3 13q3 23 -5 48q-8 29 -10 59t-1 60q0 19 -1.5 37.5t-3.5 36.5q-5 35 -12 70t-12 70q-3 19 -2 38.5t-1 39.5q-1 15 -3 29.5t-4 28.5q-3 12 -17 10q-10 -1 -19 -1.5t-19 -1.5q-3 0 -7 1
t-5 3q-1 3 0.5 6.5t2.5 7.5q3 13 13.5 18.5t18.5 13.5q7 7 11.5 15t11.5 14q10 12 26 18q13 5 25 11t20 19q2 4 6 5q24 8 47.5 17t51.5 2q13 -2 26.5 -0.5t27.5 1.5h53q19 -1 38 -1.5t39 -1.5l12 -2t12 -3q17 -7 33.5 -14t33.5 -15q8 -5 14.5 -12t13.5 -14q5 -5 9.5 -11.5
t9.5 -12.5q6 -9 11.5 -17.5t10.5 -17.5q9 -20 18 -39.5t18 -39.5zM437 532q4 5 5.5 12t0.5 13q-2 23 -20.5 38.5t-41.5 12.5q-8 -1 -16 -1h-16q-11 -1 -21 -1t-20 -2q-14 -2 -27 -5.5t-27 -7.5q-1 1 -1 3h-11q-14 1 -17.5 -3t-0.5 -17q8 -33 12 -66.5t6 -66.5q2 -20 11 -27
t29 4q15 8 30 15.5t30 15.5q5 3 10.5 6t8.5 8q12 18 32 27q15 6 25 17.5t19 24.5z" />
    <glyph glyph-name="Q" unicode="Q" horiz-adv-x="680" 
d="M675 303q-1 -12 -3.5 -24.5t-4.5 -24.5q0 -2 -0.5 -4.5t-0.5 -4.5q5 -24 -3.5 -43t-22.5 -36q-2 -4 -6 -6q-11 -1 -15.5 -9.5t-12.5 -13.5q-2 -2 -1 -7t3 -8q8 -12 15.5 -23t15.5 -23q5 -8 8.5 -15.5t7.5 -15.5q6 -14 -7 -17q-14 -3 -25 -15q-4 -4 -11 -5.5t-13 -2.5
q-8 -1 -15.5 -2.5t-13.5 -8.5q-12 -12 -26 0l-33.5 33.5l-33.5 33.5q-7 7 -11.5 11t-9 5t-10.5 -0.5t-15 -5.5q-17 -8 -34.5 -14t-35.5 -11q-15 -5 -30 -9.5t-30 -3.5q-17 2 -33 7.5t-31 11.5q-30 11 -55.5 28.5t-48.5 40.5q-14 14 -27.5 29.5t-22.5 34.5q-3 8 -7.5 14
t-8.5 12q-15 23 -20.5 49t-6.5 52q-2 38 5 75.5t20 74.5q5 15 12.5 29.5t15.5 29.5l18 36t19 35q17 29 37.5 56t46.5 48q14 11 28.5 24t34.5 18q7 2 13 2t11 -5q3 -3 6.5 -6t7.5 -5q8 -4 11.5 -6.5t7 -3t9 1t18.5 6.5q1 -3 2 -5t1 -4q1 -8 5.5 -10t10.5 -1q3 0 5.5 0.5
t5.5 1.5q24 10 45 -11q3 -2 7 -3t9 -3q4 -2 8.5 -4t7.5 -5q17 -19 33.5 -37.5t33.5 -36.5q7 -8 14.5 -14.5t14.5 -14.5q14 -17 27.5 -34t25.5 -35q10 -14 18.5 -29t13.5 -31q5 -18 6 -37t3 -38q2 -11 3 -20.5t8 -19.5q5 -5 5.5 -13t0.5 -15zM487 289q2 11 3 23t-1 23
q-3 15 -8 29.5t-10 28.5q-8 22 -17 43.5t-18 43.5l-3 3q-5 6 -11 11t0 16q1 1 -0.5 3t-3.5 4q-2 4 -5.5 7t-6.5 7q-5 8 -11 14.5t-9 14.5q-6 14 -16.5 21t-22.5 10q-16 4 -29.5 -3.5t-23.5 -18.5q-8 -8 -13 -20t-10 -23q-10 -26 -20 -51t-19 -51q-8 -21 -14 -42.5t-13 -41.5
q4 -13 6.5 -25t7.5 -23q11 -29 25 -55.5t40 -46.5q12 -11 27 -8q7 2 12.5 1.5t12.5 -5.5q4 -2 10.5 -0.5t11.5 2.5q-1 5 -2 8.5t-3 8.5l-3 3q-13 13 -26 25t-25 26q-10 11 -11 24t7 24t17 17.5t24 0.5q17 -6 21 13q2 7 5.5 7.5t8.5 -1.5q13 -4 21 -1q11 2 15.5 0t9.5 -11
q2 -3 4.5 -6.5t5.5 -6.5q10 -8 20 -14.5t20 -14.5q17 -11 20 7z" />
    <glyph glyph-name="R" unicode="R" horiz-adv-x="764" 
d="M747 93q15 -7 7 -22q-2 -5 -6 -10t-9 -12q2 -6 0 -13t-12 -9q-15 -3 -24.5 -12.5t-19.5 -18.5q-23 -21 -53 -12q-66 17 -127.5 43.5t-118.5 63.5q-21 14 -42 27.5t-43 27.5q-11 7 -23 13.5t-25 11.5q-12 5 -16.5 2t-5.5 -17l-6 -57q-1 -15 -7 -26t-21 -16q-8 -3 -13 -7
q-16 -11 -33 -4q-8 3 -15 3t-14 -6q-10 -10 -23 -3q-4 2 -8 2.5t-8 2.5q-25 8 -30.5 27t-2.5 43q1 5 2 9.5t1 9.5q-1 18 -1.5 36t-0.5 36q0 7 3 13q5 10 5.5 20t-1.5 21q-2 6 -1 10q7 12 5 23.5t-4 24.5q-1 5 0.5 11.5t2.5 12.5l4 30t2 29q0 30 -1 59.5t-1 58.5
q0 17 -5.5 30t-23.5 21q-13 5 -24.5 12t-22.5 15q-20 12 -8 33q8 14 16.5 26t25.5 17q1 1 2 1.5t2 2.5q9 17 24 19.5t30 4.5q9 2 16 4.5t14 8.5q13 12 27.5 16t32.5 3q24 -2 48.5 0t48.5 2q38 0 75 -5.5t72 -23.5q39 -20 67 -49.5t50 -66.5q13 -21 25 -42t21 -44
q13 -30 20.5 -61.5t-4.5 -66.5q-8 -20 -20 -37t-32 -28q-5 -2 -9.5 -6.5t-8.5 -9.5q-5 -5 -11 -7t-13 3q-12 8 -21.5 5t-19.5 -10q-9 -6 -18 -11t-20 -11q8 -11 17.5 -18.5t20.5 -13.5q19 -12 38.5 -22.5t38.5 -22.5q14 -10 27 -18.5t30 -13.5q9 -2 18.5 -4t18.5 -4
q9 -3 16 -10q9 -8 18 -14.5t24 -1.5q4 2 8.5 -0.5t9.5 -4.5q22 -11 43 -23zM416 456q3 20 -10 39q-8 15 -21 31q-36 50 -95 56q-17 2 -31 -1q-11 -2 -15 -8t-3 -17q3 -35 2.5 -70t-3.5 -70q-1 -6 0 -11l2 -10q16 -6 31 -11.5t32 -11.5q2 14 9 18t16 5q13 1 25.5 1.5
t26.5 1.5q17 1 23 7t8 22q1 8 1 14.5t2 14.5z" />
    <glyph glyph-name="S" unicode="S" horiz-adv-x="635" 
d="M619 277q-3 7 -4.5 14t-4.5 14q-3 8 -6 15t-7 13q-2 6 -8 6q-3 0 -3.5 -3t-1.5 -6q0 -2 -1 -4t-2 -2q-4 -2 -6 3q-2 4 -2 11q0 11 -1.5 14t-9.5 4q-8 0 -11.5 5t-5.5 12t-0.5 11t8.5 11l-6 2t-6 1q-4 -1 -8 -2.5t-7 0.5q-2 2 -3 6.5t-3 9.5q-2 4 -4 12q-2 4 -3.5 8
t-4.5 6q-11 11 -22.5 22t-24.5 20q-17 13 -35 24.5t-36 23.5q-20 14 -42 24.5t-45 18.5q-32 13 -64 26.5t-61 33.5q-4 2 -8.5 4.5t-2.5 8.5q2 5 6.5 5.5t9.5 0.5q11 0 22 -0.5t22 -1.5q10 0 19.5 -0.5t19.5 0.5q24 2 47.5 0.5t46.5 -11.5q15 -6 30.5 -6t29.5 -5h3
q11 1 18.5 8t10.5 18q2 9 -1.5 18.5t-12.5 15.5q-6 4 -12 7.5t-13 5.5q-45 15 -90 26.5t-93 17.5q-11 1 -21 1.5t-21 0.5q-24 -1 -48 -7t-47 -13q-13 -4 -25.5 -8.5t-23.5 -13.5q-3 -2 -9 -4q-8 -1 -12 -6t-7 -13q-6 -11 2 -18q10 -7 1 -19q-1 0 -1 -1q4 -3 7 -5.5t6 -5.5
q8 -8 14.5 -17t11.5 -21q1 -5 5 -8q15 -17 34 -14q22 3 33 -17q4 -8 10 -13t13 -10q15 -11 30 -21.5t29 -21.5q42 -35 84 -68t86 -65q16 -11 29.5 -24.5t25.5 -29.5q22 -26 25 -65q2 -7 -1 -12q-4 -11 -10 -20t-17 -12q-5 -2 -10 -4.5t-10 -4.5q-8 -3 -15.5 -6.5t-15.5 -4.5
q-10 -1 -19.5 1t-19.5 4q-9 2 -17.5 3.5t-16.5 3.5q-6 2 -12.5 3.5t-11.5 5.5q-19 13 -37 26t-36 27q-2 1 -2.5 2t-1.5 2q-13 12 -17 32q-2 8 -5.5 14.5t-11.5 6.5q-6 1 -9.5 4.5t-6.5 8.5q-6 11 -13.5 16t-18.5 3q-6 0 -8 5q-2 8 -6.5 8.5t-8.5 -1.5q-8 -3 -13 2q-2 4 -6 2
q-4 -1 -7.5 -1.5t-7.5 2.5q-1 1 -3 -0.5t-2 -3.5q-2 -7 -3.5 -14t-1.5 -14q-1 -7 1 -14t8 -11q15 -10 20 -32q2 -6 2.5 -11.5t3.5 -9.5q8 -13 16 -25t19 -20q10 -8 17.5 -17t12.5 -22q2 -5 5.5 -8.5t6.5 -7.5q8 -8 16 -15.5t16 -15.5q8 -9 17 -18l18 -18q2 -2 4.5 -5t5.5 -6
q5 -7 9.5 -13.5t9.5 -12.5q3 -4 5.5 -6t7.5 0q5 1 12 -6q3 -4 6 -7t7 -5q18 -7 36 -11t37 -3q36 0 70 12.5t66 33.5q14 9 26.5 19t23.5 22q20 21 34 46t22 56q6 23 6.5 44.5t-7.5 43.5zM321 748z" />
    <glyph glyph-name="T" unicode="T" horiz-adv-x="522" 
d="M498 714q9 -8 -1 -21q-5 -5 -7 -11t2 -14q3 -6 0 -10.5t-7 -7.5q-10 -8 -19 -16t-23 -10q-2 0 -3.5 -1t-3.5 -2q-18 -8 -22 -14t-2 -26q7 -53 13.5 -105.5t11.5 -105.5q5 -40 8 -79t6 -79q2 -24 3.5 -48t3.5 -48q1 -11 0.5 -21.5t-0.5 -21.5q0 -17 -15 -18
q-16 -3 -22 -17q-4 -11 -16 -14q-6 -2 -9 -4q-13 -8 -17 -7.5t-16 11.5q-19 16 -27 -8q-5 -11 -14 -12q-8 -2 -15 -4.5t-14 -5.5q-10 -5 -17 5q-14 22 -25.5 45t-14.5 49q-2 20 -3.5 39t-2.5 36q1 17 2 31t1 28q1 29 1.5 59t0.5 59q0 42 -0.5 82t0.5 82q0 14 0.5 26.5
t1.5 26.5q1 4 1 8v8q0 18 -18 18q-26 2 -51 2.5t-51 1.5q-17 1 -33.5 1.5t-33.5 2.5q-4 0 -7.5 0.5t-8.5 1.5q-26 8 -9 30q3 4 6 7.5t7 6.5q5 5 8.5 9.5t2.5 12.5t4.5 10.5t11.5 3.5q11 2 22.5 2.5t22.5 2.5q16 1 29 10q7 5 15.5 7.5t17.5 4.5q11 3 22 4t22 3q13 2 25.5 4
t23.5 9q7 4 16 4q21 2 42.5 5t43.5 4q21 1 42.5 -0.5t43.5 -3.5q14 -1 24 -10zM76 664q8 1 14.5 1.5t13.5 1.5v6q-16 4 -28 1q-2 0 -3.5 -1.5t-0.5 -3.5q0 -5 4 -5z" />
    <glyph glyph-name="U" unicode="U" horiz-adv-x="764" 
d="M770 381q2 -39 -27 -56q-23 -14 -32 -45q-2 -7 -5 -11t-10 -5q-9 -1 -14 -7t-8 -15q-2 -4 -2.5 -8t-1.5 -8q-7 -28 -19.5 -50.5t-27.5 -44.5q-4 -7 -9.5 -12t-10.5 -10q-10 -8 -17.5 -16t-9.5 -22q0 -5 -4 -9q-11 -8 -21.5 -17t-21.5 -16q-18 -12 -39 -1q-19 9 -39 14
q-24 6 -45 -9q-32 -22 -62.5 -18.5t-62.5 24.5q-45 30 -78 72.5t-57 94.5q-12 26 -24.5 50t-23.5 50q-13 32 -23.5 65t-20.5 66q-11 38 -11.5 75.5t8.5 75.5q5 23 8.5 46t6.5 46q5 23 18 36q5 4 9 9t9 10q10 11 21.5 18t25.5 5q4 -1 7.5 0t7.5 2q36 9 53 -28
q6 -13 11.5 -25.5t10.5 -26.5q4 -11 7 -22.5t4 -23.5q1 -11 0.5 -23.5t-2.5 -23.5q-6 -33 -6 -65.5t4.5 -64.5t11.5 -64t15 -63q5 -17 13.5 -30.5t19.5 -25.5q20 -19 40.5 -34.5t45.5 -25.5q22 -8 38 4q14 10 28 19.5t28 20.5q5 4 9 10.5t6 13.5q4 15 7 31t7 32q2 6 5 11.5
t6 11.5q2 5 5.5 8.5t3.5 7.5q0 21 0.5 42t-2.5 41q-2 17 -7.5 34.5t-10.5 34.5q-2 8 -3.5 15t-3.5 14q-2 11 -1.5 20.5t11.5 17.5q6 5 6 11.5t-2 13.5q-2 6 -4.5 11.5t-3.5 11.5q-5 24 -6 47q-2 16 12 17q8 2 12 12t6.5 15t5.5 7.5t8.5 2t15.5 -1.5q2 5 5 10.5t6 11.5
q20 -1 36 -11t32 -25q-4 -8 -4.5 -14.5t6.5 -13.5q13 -12 24 -25.5t24 -26.5q18 -20 11 -45q-4 -11 -3 -22.5t3 -23.5q7 -35 19.5 -66t28.5 -61q14 -25 14 -57z" />
    <glyph glyph-name="V" unicode="V" horiz-adv-x="625" 
d="M624 630q2 -3 2 -7.5t1 -12.5q-11 6 -13 7q-9 3 -15.5 -1t-4.5 -13q2 -11 -1.5 -20t-8.5 -19q-5 -7 -5.5 -16t-1.5 -18q-1 -10 -1 -20t-1 -21q-5 1 -9 1h-7q-2 -15 1.5 -25t13.5 -20q5 -4 4.5 -8.5t-5.5 -5.5q-14 -2 -15.5 -11t-3.5 -17q-4 -17 -7 -35t-6 -35
q-2 -8 -3.5 -16.5t-2.5 -16.5q-2 -10 -1.5 -20.5t0.5 -22.5q-14 -5 -18 -18t-5 -29q-2 -22 -4 -43t-4 -43q0 -7 0.5 -13.5t-1.5 -12.5q-1 -6 -2 -12.5t-5 -9.5q-14 -10 -22 -23t-18 -24q-5 -6 -10 -9.5t-13 -5.5q-11 -2 -20.5 -3.5t-18.5 -4.5q-23 -7 -43 0t-40 17
q-15 8 -25.5 19.5t-18.5 27.5q-17 34 -37 66t-41 64q-22 32 -35 68.5t-27 72.5q-5 13 -11 25.5t-11 25.5q-2 4 -4 7.5t-3 8.5q-15 47 -45 86q-24 32 -26.5 67.5t6.5 72.5q5 23 28 32q6 3 11.5 9t10.5 11q3 3 4.5 6.5t4.5 5.5q29 29 60 1q19 -16 39 -26q6 -3 11.5 -9t9.5 -12
q5 -9 8.5 -19t8.5 -20q9 -20 18 -41l18 -42q15 -32 30.5 -64t30.5 -64q5 -11 10 -21.5t19 -17.5q2 5 5 9.5t5 9.5q11 29 18 58.5t11 59.5q3 28 17 47q11 17 16.5 35t7.5 38q5 43 33 68q7 5 11 11t-1 13q9 11 16.5 19.5t14.5 16.5q5 5 7 6q4 2 12.5 1t17.5 -4t16 -7t10 -8
q1 -2 1 -3t1 -2q13 -11 18 -26t10 -31q4 -11 11 -22t12 -22z" />
    <glyph glyph-name="W" unicode="W" horiz-adv-x="861" 
d="M809 516q-1 -21 0 -42t-4 -41q-6 -26 -10.5 -52t-15.5 -49q-4 -7 -5 -15.5t-2 -16.5q-3 -21 -15 -32q-6 -4 -6 -11q0 -23 -7 -42t-13 -39l-6 -20l-6 -20q-3 -8 -5.5 -16t-6.5 -16q-8 -17 -15.5 -34.5t-8.5 -37.5q-1 -14 -11 -18q-13 -6 -25.5 -12.5t-26.5 -11.5
q-5 -2 -9 -1.5t-9 0.5q-4 0 -8 0.5t-7 -1.5q-20 -12 -37 -4.5t-30 25.5q-19 25 -34 53.5t-23 63.5q-5 17 -12.5 33t-15.5 34q-8 -8 -13.5 -14.5t-10.5 -14.5q-3 -4 -3.5 -9.5t-1.5 -10.5q-2 -20 -4 -38.5t-4 -37.5q-1 -5 -4.5 -10t-8 -9t-10 -6.5t-9.5 -2.5q-9 0 -15.5 -4.5
t-8.5 -19.5q-7 2 -12 0t-6 -13q-7 3 -13 6t-11 5l-6 4t-5 0q-11 -7 -18 0.5t-15 12.5q-11 8 -21.5 16.5t-19.5 20.5q-43 58 -47 134q-2 37 -13 69.5t-28 62.5q-26 47 -42 97.5t-18 108.5q-1 20 -4 39t-7 39q-2 13 -0.5 16.5t12.5 9.5q9 5 17.5 12t14.5 18q9 14 22.5 14
t22.5 -14q3 -4 6 -7.5t7 -5.5q30 -17 43 -46.5t18 -67.5l6 -54q4 -38 15 -72t26 -66q2 -2 2.5 -5t2.5 -7q7 9 11 17t12 9q2 0 4 5l4 10q7 27 13.5 53.5t6.5 55.5q0 7 3 13.5t5 14.5q20 -5 39 12q-5 2 -8.5 4.5t-8.5 4.5q2 4 3 6.5t3 3.5q11 3 15 17q2 7 9 11t15 9v15
q12 -2 23 -3.5t22 -4.5q5 -2 9.5 -6t7.5 -9q16 -25 31.5 -50t32.5 -51q3 -5 8 -8t10 -7l3 3q2 -5 3.5 -9.5t0.5 -8.5q-2 -13 -0.5 -25t3.5 -24q3 -21 -4 -35q-6 -10 -6 -19t4 -19q5 -14 10.5 -27.5t10.5 -27.5q6 0 10 3.5t7.5 7t7.5 5t10 -2.5q7 22 11 43t7 43
q0 5 -1.5 10.5t-2.5 10.5q9 2 10.5 4.5t3.5 13.5q3 14 5 27t6 26q1 6 4 11.5t6 10.5q0 1 1 1.5t1 1.5q-2 14 4 27t1 28q-2 6 -2 9q1 16 1.5 31t1.5 31q2 16 -1.5 20t-16.5 -1q-2 19 3.5 28t27.5 23q-3 5 -6 9t-7 9q12 7 20 8q5 2 11 2t11 2q9 3 15 13q8 14 12.5 15t16.5 -7
q6 -4 10 -4q12 -2 17.5 -7.5t7.5 -19.5q3 -29 19 -41q-1 -10 -2 -18.5t-2 -17.5q0 -4 -0.5 -8t1.5 -6q7 -12 5 -22.5t-7 -21.5q-2 -4 -2 -9t-1 -11q11 -3 15 -12.5t4 -21.5z" />
    <glyph glyph-name="X" unicode="X" horiz-adv-x="708" 
d="M716 701q11 -8 10.5 -15t-12.5 -11q-11 -8 -20 -17.5t-19 -17.5q-14 -12 -25 -27t-24 -29q-14 -16 -24.5 -33t-19.5 -34q-2 -5 -5 -10t-8 -8q-31 -21 -56 -43t-46 -48q-5 -5 -10.5 -10t-10.5 -8q-11 -10 -11.5 -14.5t7.5 -15.5q5 -10 12.5 -20.5t14.5 -21.5
q26 -32 53.5 -64.5t53.5 -64.5q5 -6 8.5 -12t7.5 -11q11 -17 9.5 -34t-11.5 -31q-10 -12 -19.5 -21t-20.5 -18q-7 -7 -16.5 -8t-17.5 0q-10 2 -17 3.5t-16 -3.5q-4 -1 -9 0t-7 6q-26 24 -53 47t-44 54q-9 17 -20.5 32t-22.5 31l-15 15q-9 10 -23 4q-14 -13 -29 -22t-32 -20
q-19 -13 -37.5 -23.5t-36.5 -23.5q-12 -8 -23.5 -17.5t-22.5 -18.5q-13 -13 -27 -25t-34 -15q-8 -2 -15.5 -6.5t-15.5 -9.5q-8 -6 -14.5 -11t-15.5 -10q-18 -15 -41 -12q-13 2 -24.5 -1t-22.5 -3q-7 -2 -14.5 -3t-12.5 7q-4 8 -1.5 15t5.5 16q9 14 15.5 30t10.5 32
q5 23 17.5 36.5t28.5 27.5q6 6 14.5 12.5t15.5 12.5q3 5 6.5 7t7.5 6q40 17 69.5 44.5t60.5 57.5q30 30 64 57q6 5 9.5 8.5t3.5 6.5t-2.5 7.5t-8.5 12.5q-20 25 -39.5 49t-39.5 50q-21 27 -40 55t-39 55q-10 17 -9 26t17 23q5 5 11.5 9t14.5 8l3.5 3.5l3.5 3.5q5 12 15 16
t21 7q8 2 13 6.5t9 6.5q22 -17 42.5 -31.5t37.5 -28.5q19 -17 38 -33t36 -33q11 -11 19.5 -21t17.5 -21q6 -7 12.5 -10.5t15.5 -1.5q2 2 4.5 2.5t4.5 0.5q15 -7 28 -0.5t25 14.5q45 25 83 59.5t75 71.5q7 5 13.5 10t16.5 7q14 0 26 1t27 3q5 2 11.5 4.5t11.5 4.5
q20 7 29 -15q2 -4 5.5 -9t8.5 -9z" />
    <glyph glyph-name="Y" unicode="Y" horiz-adv-x="528" 
d="M438 683q7 -7 6 -13.5t-4 -14.5q-11 -19 -14 -39t-5 -41q-3 -20 -6 -39.5t-12 -38.5q-11 -22 -11 -45q0 -10 -5 -20q-9 -20 -9 -41q-1 -22 -12 -43q-6 -11 -11 -21.5t-9 -22.5q-6 -21 -19.5 -35.5t-30.5 -26.5q-10 -7 -18.5 -13.5t-13.5 -17.5q-3 -8 -12 -13
q-11 -7 -13 -17q-1 -5 -3.5 -7.5t-9.5 0.5q-2 1 -5 -0.5t-7 -2.5q4 -24 -18 -35q-20 -11 -34.5 -27.5t-27.5 -36.5q-12 -19 -29 -31.5t-37 -22.5q-5 -2 -11 -3.5t-12 -3.5q-7 5 -8 12t-1 15q1 8 1.5 15.5t-3.5 15.5q-2 5 -1.5 10.5t0.5 10.5q-1 2 -1 4t-1 5q-4 -1 -7 -1
t-5 -1v3q16 24 32 47.5t33 46.5q6 8 10 16.5t0 19.5q14 5 22.5 15t14.5 22q5 11 11 20.5t11 20.5q2 5 4.5 9.5t1.5 8.5q-3 7 3 23.5t14 34.5t15 34t7 24q0 4 -7 -1.5t-15.5 -13.5t-17 -14.5t-11.5 -4.5q-5 4 -9.5 7.5t-9.5 6.5q-40 24 -69.5 57.5t-52.5 74.5q-13 21 -25 42
t-25 42q-1 3 -4 9q7 9 13 18l12 18q4 6 5 10q2 14 11.5 22t20.5 16q9 6 24 1q37 -14 65 -37.5t50 -55.5q11 -16 21.5 -30.5t25.5 -25.5q4 -2 7 -5t7 -5q8 5 10 11.5t4 12.5q2 14 4.5 28t4.5 28q2 5 2.5 10.5t2.5 10.5q8 19 18 35t23 31q7 9 12.5 12.5t19.5 8.5
q10 -11 23 -9.5t26 1.5q2 -1 2.5 0t2.5 1q9 6 13 6t10 -7q5 -5 9.5 -11t9.5 -12q2 -3 5 -6t6 -5q8 -3 10.5 -9t3.5 -13v-8t2 -6z" />
    <glyph glyph-name="Z" unicode="Z" horiz-adv-x="722" 
d="M692 154q7 -27 -5 -51.5t-32 -37.5q-8 -5 -17.5 -7.5t-19.5 -4.5q-22 -6 -47 -9q-8 -2 -16.5 -2.5t-17.5 -1.5h-35t-35 -1q-5 0 -9.5 -0.5t-9.5 -1.5q-23 -5 -44.5 -11t-43.5 -11q-14 -2 -27.5 -1.5t-27.5 0.5q-28 1 -55.5 2.5t-55.5 1.5q-17 0 -37 -10
q-17 -8 -31.5 -6.5t-29.5 15.5q-4 4 -9.5 6t-10.5 4q-15 5 -25 21t-9 35q1 8 1.5 14.5t1.5 14.5q1 18 -9 49q7 8 14 15.5t15 15.5q14 17 27.5 33.5t28.5 32.5q7 7 15 11.5t15 11.5q20 22 39 43.5t39 44.5q7 8 13 16.5t13 16.5q8 11 20 21q7 7 12.5 13.5t9.5 17.5
q2 6 6.5 10.5t8.5 9.5l16.5 16.5t17.5 16.5l8 8t9 5q14 4 22 16t16 23q-3 8 -8 9t-10 0q-35 -4 -69 -3t-68 -6q-16 -3 -31.5 -1.5t-31.5 2.5h-20t-20 2q-11 3 -21 9q-4 3 -6.5 7.5t-6.5 6.5q-12 9 -9 25q1 4 0.5 8t-0.5 9q3 2 6.5 5t7.5 6q-2 4 -3.5 7.5t-3.5 7.5
q-4 10 -4.5 19t5.5 19q2 4 3.5 8t3.5 9q9 24 31 25q54 3 108 7t108 6q29 2 59 0t59 -1q12 0 24.5 1.5t24.5 3.5q5 0 9 0.5t8 0.5q18 -1 35.5 -1.5t35.5 -1.5q16 -2 26 -20t6 -37q-2 -7 -2.5 -12.5t4.5 -10.5q4 -5 2.5 -10.5t-4.5 -10.5q-5 -7 -9 -14t0 -18q1 -2 -1.5 -5.5
t-4.5 -5.5q-13 -21 -6 -45q5 -17 3 -21t-13 -15q-17 -17 -31.5 -35t-28.5 -38q-14 -21 -30 -40t-33 -37q-14 -14 -28.5 -26.5t-28.5 -26.5q-16 -15 -31 -31l-30 -32q-2 -3 -4 -7.5t-5 -10.5q14 -8 27.5 -12t27.5 -2q16 1 32 3.5t32 4.5q5 1 10 3l10 4q10 2 19.5 6t19.5 3
q23 -3 46 -7t46 -10q10 -2 18.5 -9t16.5 -13t11.5 -15t4.5 -20q0 -11 3 -21z" />
    <glyph glyph-name="bracketleft" unicode="[" 
d="M698 592q5 -45 -12 -74t-52 -40q-24 -8 -48 -6.5t-48 7.5q-30 8 -60 6l-60 -4q-8 -2 -12 -2q-23 -3 -29 -12t-7 -38q0 -8 0.5 -15.5t-0.5 -15.5q-1 -14 -1.5 -27.5t-2.5 -27.5t-4 -28.5t-2 -28.5q0 -18 -1 -35.5t-7 -34.5q-2 -6 -2 -9q-4 -35 -7.5 -68.5t-5.5 -68.5
q-2 -21 4.5 -27.5t22.5 -4.5q12 2 24 5t24 3q23 0 47 -1t47 -3q8 -1 16.5 -6t13.5 -16q3 -6 8 -10.5t10 -10.5q-6 -9 -18 -22q11 -12 20 -23.5t20 -23.5q-8 -5 -15.5 -6.5t-9.5 -15.5q-1 -13 5.5 -18t13.5 -11t14.5 -13t4.5 -22q-3 -14 -11 -21.5t-19 -9.5q-17 -3 -34 -3
q-24 1 -48.5 2.5t-49.5 3.5h-9t-8 2q-23 12 -45 8t-45 -9q-8 -2 -16.5 -2.5t-16.5 1.5q-15 3 -30 7.5t-30 6.5q-9 2 -18.5 1t-19.5 -3q-12 -2 -23.5 -3.5t-23.5 -3.5q0 3 -1 5q2 2 4.5 4t5.5 4q-3 10 -6.5 19t-6.5 19l-6 18t-5 18q-1 3 -2.5 6t-0.5 6q1 23 2 47t4 47
q2 13 5 24.5t3 25.5q-1 45 -0.5 89.5t1.5 89.5q1 11 3 21t4 21l6 51q1 10 2 19.5t3 19.5q6 35 10.5 69t-10.5 69q-4 9 -3.5 21.5t0.5 23.5q1 19 2.5 37t2.5 38q28 -5 35 28q2 6 4 8l19.5 19.5t20.5 17.5q11 7 23 12l24 10q4 2 8 0.5t8 -2.5q29 -5 56.5 -5t56.5 7
q57 12 113.5 12t113.5 -19q9 -3 15 -9.5t12 -14.5q17 -23 21.5 -50t8.5 -55z" />
    <glyph glyph-name="backslash" unicode="\" 
d="M196 631q-7 26 1 55t25 44q12 9 25 1l21 -18q8 -6 15 -12t13 -14q10 -14 19.5 -29t17.5 -32q16 -28 30.5 -57t29.5 -58q4 -7 6.5 -13.5t5.5 -14.5q2 -5 4 -9t4 -9q17 -29 33 -58.5t33 -59.5q19 -35 37.5 -71t38.5 -71q8 -17 17 -32.5t18 -31.5q5 -8 7 -16t-5 -18
q-3 -5 -3 -14q0 -11 -3.5 -20.5t-8.5 -17.5q-7 -10 -13.5 -20t-13.5 -19q-3 -4 -7 -6t-6 -4q-5 2 -9 2.5t-8 2.5q-15 8 -28 18t-23 27q-11 18 -24 33q-23 26 -36 61q-3 8 -7 16t-9 13q-20 23 -35 52l-30 58q-4 8 -6 16.5t-6 15.5q-17 28 -34 55.5t-34 55.5q-8 13 -14.5 26
t-8.5 29q-2 21 -12 36q-8 14 -11.5 30t-1.5 32q2 13 0.5 24t-4.5 22zM450 136q0 -4 -0.5 -8t1.5 -6l18 -24t19 -23l3 3q-8 17 -17 31.5t-20 28.5q-2 0 -4 -2z" />
    <glyph glyph-name="bracketright" unicode="]" 
d="M167 592q3 28 8 55t22 50q6 8 12 14.5t14 9.5q57 19 114 19t114 -12q29 -7 56.5 -7t55.5 5q5 1 9 2.5t8 -0.5q12 -5 23.5 -10t22.5 -12q11 -8 20.5 -17.5t20.5 -19.5l2 -4t1 -4q9 -33 35 -28q2 -20 3 -38t2 -37q1 -11 1 -23.5t-4 -21.5q-8 -18 -9.5 -35t-0.5 -34.5
t4 -34.5l6 -34q2 -10 3 -19.5t3 -19.5q2 -13 2.5 -25.5t2.5 -25.5q2 -11 4.5 -21t2.5 -21q1 -45 1.5 -89.5t-0.5 -89.5q0 -14 3 -25.5t5 -24.5q4 -23 4.5 -47t2.5 -47q0 -3 -1 -6l-2 -6q-3 -9 -5.5 -18t-5.5 -18q-4 -10 -7 -19t-7 -19q3 -2 5.5 -4t4.5 -4q0 -3 -1 -5
q-11 2 -23 3.5t-24 3.5q-9 2 -18.5 3t-19.5 -1q-15 -2 -29.5 -6.5t-29.5 -7.5q-8 -2 -16.5 -1.5t-16.5 2.5q-23 5 -45.5 9t-45.5 -8q-4 -2 -8 -2h-8q-25 -2 -49.5 -3.5t-49.5 -2.5q-18 0 -34 3q-11 2 -19 9.5t-10 21.5q-3 15 4 22t15 13q6 6 13 11t5 18q-2 14 -9.5 15.5
t-14.5 6.5q10 12 19.5 23.5t19.5 23.5q-6 7 -9.5 12t-8.5 10q5 6 10.5 10.5t8.5 10.5q5 11 13 16t17 6q23 2 46.5 3t46.5 1q12 0 24 -3t24 -5q17 -2 23 4.5t5 27.5q-3 35 -6.5 68.5t-6.5 68.5l-3 9q-6 17 -6.5 34.5t-1.5 35.5q0 14 -1.5 28.5t-3.5 28.5t-3 27.5t-2 27.5
q-1 8 0 15.5t1 15.5q-1 29 -7.5 38t-28.5 12q-4 0 -12 2q-31 2 -60.5 4t-60.5 -6q-23 -6 -47 -7.5t-49 6.5q-35 11 -51.5 40t-11.5 74z" />
    <glyph glyph-name="asciicircum" unicode="^" horiz-adv-x="271" 
d="M32 530q-5 10 -2 22l6 14t8 13q2 2 3 5l2 6l17 40q6 13 11.5 25.5t10.5 24.5q2 4 3 8t4 8q4 6 6.5 11.5t4.5 11.5q1 4 2 4q4 0 4.5 2t1.5 4v1h1q1 -1 1.5 -2.5t1.5 -3.5q3 1 5.5 2t4.5 2q4 3 9 3.5t10 0.5q2 0 4 -0.5t4 0.5q5 2 7 -3q3 -3 3 -5q0 -5 2.5 -7t5.5 -4
q4 -2 8.5 -5.5t7.5 -7.5q6 -7 11 -14.5t10 -15.5q10 -14 13 -33q2 -14 6.5 -26.5t11.5 -24.5q4 -7 4.5 -15t-1.5 -16q-1 -2 -2 -3.5t-2 -2.5q-4 -3 -7.5 -6t-6.5 -6q-4 -6 -9 -8.5t-12 -4.5q-14 -3 -21 9q-5 7 -9 14l-8 14q-6 11 -9.5 22.5t-6.5 23.5q-1 2 -2 4.5t-3 5.5
l-3 -3l-2 -2q-2 -7 -5.5 -13.5t-5.5 -13.5t-5 -14t-7 -14q-4 -9 -8.5 -17.5t-8.5 -17.5q-9 -17 -27 -17h-12q-5 -1 -9 1t-8 5q-5 5 -7.5 9.5t-5.5 9.5z" />
    <glyph glyph-name="underscore" unicode="_" horiz-adv-x="526" 
d="M478 117q10 -11 13 -24t2 -27q-3 -11 -3 -23q-1 -2 -2 -5t-2 -5q-6 -4 -7.5 -8.5t4.5 -14.5q-15 -2 -27.5 -3.5t-24.5 -1.5q-54 2 -108.5 4t-108.5 4q-9 0 -18.5 2.5t-20.5 4.5q-16 3 -32.5 6.5t-33.5 5.5q-24 1 -47 0q-20 0 -26 5t-7 25q0 7 1 14.5t2 13.5q2 11 2.5 22
t1.5 20q2 10 5 13t11 4q5 2 7.5 2h5.5q25 -2 49.5 2t49.5 9q20 3 39.5 1.5t39.5 -4.5q47 -6 93 -9t93 -5h9t9 -1q10 0 17 -3.5t8 -15.5q0 -6 6 -8z" />
    <glyph glyph-name="a" unicode="a" horiz-adv-x="520" 
d="M462 54q0 1 -2 1.5t-3 -0.5q-4 -4 -3 -7q2 -4 4.5 -7t4.5 -7q13 -29 27 -60l-20 10q-5 -7 0 -11.5t6 -9.5q2 -4 2 -8q1 -8 1.5 -17t2.5 -17q2 -14 -6 -19q-9 -7 -21 0q-8 6 -15.5 12.5t-11.5 17.5q-2 5 -4.5 8.5t-4.5 7.5q-4 7 -7.5 13.5t-7.5 12.5q-2 4 -4.5 7.5
t-5.5 6.5q-1 2 -4 1.5t-5 -1.5q-3 -2 -3 -8q0 -2 1 -3t2 -3q5 -14 9.5 -28t9.5 -30q-8 1 -11 4.5t-5 7.5q-8 15 -15 30l-14 30q-19 45 -32 91.5t-24 94.5q-2 5 -3.5 9t-3.5 9q-5 10 -11 12t-17 -2t-23 -7t-24 -7q-8 -2 -15 -4.5t-15 -5.5q-32 -10 -44 -44q-23 -67 -70 -115
q-8 -7 -15.5 -14t-15.5 -12q-18 -13 -24 8q-3 11 -5 22l-4 22q-1 3 -1 9q-11 48 -4.5 92t23.5 89q24 66 46.5 131t46.5 131q7 18 13 35.5t11 36.5q7 24 17 47.5t19 47.5q0 3 1 4q17 17 29.5 36.5t32.5 33.5q11 8 14 -4q3 -9 1 -21q0 -11 4 -19.5t10 -16.5q2 -3 6 -6.5
t7 -2.5q13 1 17.5 -6.5t6.5 -15.5q10 -27 19 -54l18 -54q4 -11 6.5 -23t7.5 -23q9 -22 18.5 -43.5t18.5 -43.5q8 -19 15.5 -37.5t15.5 -37.5q6 -15 11.5 -30.5t10.5 -30.5l2 -6t1 -6q2 -17 3.5 -32.5t3.5 -31.5q1 -6 1.5 -12t2.5 -12q1 -5 2.5 -10.5t0.5 -10.5
q-3 -14 0.5 -27t8.5 -27l18 -60q2 -7 5 -13l6 -12q2 -5 6 -13q-27 13 -42 39q-5 10 -11 19zM247 348q7 5 4 17q-2 9 -5 14.5t-8 4.5q-9 -2 -11 -25q2 -2 3.5 -5.5t4.5 -6.5q2 -2 5.5 -1.5t6.5 2.5zM362 30q1 1 1.5 1t1.5 1q1 0 1 1l-3 12h-2h-2q-3 -3 -1 -5q2 -6 4 -10z" />
    <glyph glyph-name="b" unicode="b" horiz-adv-x="765" 
d="M721 282q11 -11 18.5 -23.5t6.5 -29.5q0 -11 -5 -18t-13 -13q-11 -9 -21 -18.5t-21 -18.5q0 -1 -0.5 -1.5t-0.5 -1.5q1 -9 -2 -15t-7.5 -10.5t-10 -9t-8.5 -10.5q-2 -2 -3.5 -5t-0.5 -5q1 -8 -3 -12t-11 -6q-11 -3 -21 -11q-7 -5 -14.5 -7.5t-15.5 0.5q-10 5 -19 3
t-19 -3q-19 -3 -37.5 -4.5t-37.5 -3.5h-4q-17 8 -33.5 4t-33.5 -3q-4 0 -5 -1q-8 -8 -18.5 -8t-19.5 -5q-24 -13 -49 -13q-8 0 -14.5 -3.5t-10.5 -11.5q-5 -8 -13.5 -9.5t-16.5 -1.5q-15 1 -27 -8q-11 -8 -24 -6t-23 11q-13 13 -26.5 25t-27.5 25q-21 20 -20 45q0 4 -1.5 8
t-1.5 8q-1 5 -0.5 9t1.5 9q1 8 3 15t2 15q-1 13 -2.5 25.5t-3.5 26.5q-6 58 -20.5 114.5t-28.5 113.5q-8 31 -14 62l-12 62q-3 18 -18 18q-16 0 -31.5 -1t-31.5 0q-8 0 -16 3t-15 7q-10 5 2 15q14 11 29 19.5t22 26.5q5 10 13 8t15 0q6 0 9 -1q21 -1 21 21q-1 27 22 37
l33 18q13 8 24 -1q14 -12 28 -23.5t28 -22.5q5 -5 11 -5q11 0 22.5 1t22.5 1q17 2 33.5 3t33.5 0q17 0 34 -1.5t34 -3.5q2 0 3.5 -0.5t3.5 0.5q24 6 45.5 -1.5t42.5 -15.5l28 -12t28 -13q25 -12 49 -26t41 -37q3 -5 8.5 -8t10.5 -7q15 -11 23 -26.5t12 -32.5q5 -20 -16 -29
q-11 -4 -22.5 -8t-16.5 -12q-6 -10 -14.5 -16t-17.5 -11t-18.5 -9.5t-16.5 -11.5q-9 -8 -9.5 -12.5t10.5 -9.5q12 -5 24 -9t24 -7q10 -3 17.5 -6.5t11.5 -14.5q0 -4 4 -6q8 -2 14.5 -7t12.5 -7q12 -4 19 -12l14 -16t13 -11.5t17 -2.5q5 0 11 -1.5t9 -5.5zM261 455
q11 3 22.5 5t22.5 4q0 -1 0.5 -1.5t0.5 -1.5q11 1 21 2t21 3q15 4 31 8t30 11q13 6 25 12t27 7q7 1 12 5.5t4 11.5q0 5 -3 10.5t-7 7.5q-39 21 -86 23h-10.5t-10.5 1q-19 4 -37 8.5t-36 7.5q-15 2 -29.5 3t-29.5 1q-25 0 -20 -23q5 -22 9.5 -43.5t10.5 -43.5q4 -16 10 -19
t22 1zM575 219q12 6 7 18q-2 5 -5 11.5t-8 8.5q-15 8 -30 15t-30 9q-21 3 -42.5 5.5t-42.5 -3.5q-5 -1 -11 -0.5t-11 1.5q-25 3 -49 6t-49 6v-1h-7q-19 1 -24.5 -5.5t-1.5 -24.5q2 -10 2 -14q5 -23 8.5 -45.5t8.5 -45.5q4 -17 8.5 -21t21.5 -2q18 2 36 5.5t35 8.5
q18 5 36.5 6.5t35.5 11.5q6 4 12 7t13 5q25 4 46 15t41 23z" />
    <glyph glyph-name="c" unicode="c" horiz-adv-x="519" 
d="M514 525q-1 -11 -1 -21.5t-1 -21.5q0 -4 -1 -7.5t0 -6.5q4 -25 -5.5 -45.5t-17.5 -41.5q-3 -7 -7 -13.5t-14 -4.5q-9 1 -12 7.5t-5 14.5t-2 12q-1 26 -8.5 49.5t-14.5 47.5q-9 29 -27.5 51t-41.5 41q-7 6 -16 9.5t-18 7.5q-10 3 -19.5 6t-18.5 6q-17 4 -29 -10
q-11 -13 -22 -25.5t-22 -26.5q-11 -13 -18 -27.5t-9 -31.5q-2 -12 -6.5 -24t-9.5 -24q-20 -50 -17 -108q2 -23 4.5 -46t7.5 -46q5 -22 12 -42.5t14 -40.5q2 -5 4.5 -9t2.5 -9q0 -16 8 -30q8 -10 -4 -15q-3 -2 -5.5 -4.5t-0.5 -6.5q2 -3 6 -6t7 -2q13 2 26.5 2.5t26.5 8.5
q21 14 42.5 27t43.5 27q7 5 13 12t12 13q12 13 23.5 25.5t23.5 25.5q2 -1 2.5 -1.5t2.5 -1.5q-2 -8 -0.5 -15t3.5 -15q7 -25 8 -46q0 -11 -4.5 -23t-10.5 -23q-6 -13 -14.5 -24.5t-17.5 -22.5q-11 -14 -26.5 -23.5t-32.5 -16.5q-32 -13 -62.5 -9t-62.5 10q-23 5 -47 10.5
t-48 10.5q-20 4 -35 14t-24 28q-25 51 -36 103.5t-6 109.5q2 23 3.5 47t3.5 48q2 26 6 52t12 52q5 14 12 26.5t21 21.5q5 3 9 9t6 11q9 21 21.5 39t28.5 35q6 6 10.5 14.5t8.5 17.5q13 29 32.5 48.5t50.5 27.5q14 3 29 5.5t29 5.5q8 2 16.5 1.5t16.5 -4.5q8 -3 14 -2t11 10
q3 6 7.5 5t8.5 -4q67 -52 103 -130q8 -16 16.5 -31t18.5 -29q5 -9 8.5 -18t3.5 -20z" />
    <glyph glyph-name="d" unicode="d" horiz-adv-x="740" 
d="M730 395q4 -12 -2 -25q-8 -20 -3 -44q2 -17 1.5 -33.5t-7.5 -33.5q-5 -11 -9 -22t-9 -22q-3 -8 -8.5 -13.5t-7.5 -12.5q-10 -33 -11 -65q0 -26 -13 -45.5t-27 -38.5q-9 -11 -21.5 -10t-23.5 -1q-12 -3 -24.5 -6t-24.5 -7q-10 -2 -17.5 -2t-15.5 9q-8 8 -18 12t-21 8
q-26 8 -50 8q-9 0 -18.5 -3t-18.5 -8q-10 -5 -18 -12.5t-19 -12.5q-9 -5 -19 -7.5t-20 -5.5q-8 -2 -16.5 -2.5t-16.5 -3.5q-9 -4 -17.5 -2.5t-16.5 3.5q-5 1 -11 0t-11 -1q-5 -1 -9.5 -2t-8.5 1q-26 9 -53 18.5t-54 18.5q-5 2 -8 1q-8 -7 -14.5 -4t-12.5 8q-15 13 -13 33
t3 39t3 39q2 22 5 44t2 45q0 20 -3 41t-8 41q-4 23 -10.5 45t-4.5 46q0 8 -3.5 16.5t-6.5 16.5q-2 6 -3.5 11.5t-2.5 10.5q-4 31 -1.5 61t6.5 60q2 17 -1.5 31t-17.5 25q-3 2 -4 7t-1 9q0 7 1 13.5t0 13.5q-1 8 0.5 13t8.5 10q14 8 26 16.5t26 16.5q4 2 9 3t10 1
q21 1 41.5 1.5t40.5 -0.5q20 0 40 -1.5t40 -3.5q12 0 23 -3t22 -8q8 -4 18 -4t19 -2q16 -4 31.5 -8t30.5 -9q20 -7 39 -14t39 -15q8 -4 15 -8.5t15 -9.5q11 -6 22.5 -13t22.5 -14l9 -6q2 -5 4 -5q10 3 15 -0.5t7.5 -9.5t4.5 -12.5t8 -9.5q5 -2 8 -5t10 0q2 1 7.5 -1t6.5 -4
q3 -16 10.5 -27t27.5 -11q-11 -8 -9.5 -13.5t6.5 -13.5q8 -11 17 -21.5t11 -24.5q1 -3 7 -6t11 -4q9 -2 14 -5t7 -13q1 -7 -1 -11t-11 -2q-3 -18 14 -12q3 -6 6 -11t5 -10zM537 270q13 21 21 42.5t3 47.5q-8 35 -29 59q-11 12 -22.5 23.5t-24.5 21.5q-24 19 -48 37t-50 34
q-22 14 -46 25.5t-48 23.5q-20 9 -39.5 17.5t-42.5 9.5q-36 1 -37 -22q-2 -21 -2.5 -42.5t3.5 -42.5q5 -35 13.5 -69t17.5 -69q12 -46 21.5 -91.5t10.5 -93.5q0 -14 6 -24q2 -4 6.5 -7t8.5 -4q10 -1 20 0t20 1q28 -1 57 15q10 6 21 11t22 3q18 -2 33 3t31 11q8 3 17 5.5
t15 7.5q11 9 19.5 20.5t11.5 26.5q2 5 5 10z" />
    <glyph glyph-name="e" unicode="e" horiz-adv-x="558" 
d="M553 644q-2 -8 -4.5 -15.5t-4.5 -15.5q-9 -31 -6 -62q-1 -2 -1 -3t-1 -3q-7 0 -11 -1q-16 -5 -25 -17q-35 6 -68.5 12t-68.5 11q-32 5 -63 9t-63 8q-5 1 -9.5 0.5t-9.5 -0.5q-15 -2 -21 -7.5t-7 -20.5v-28t2 -28q2 -22 10 -28t30 -4q23 2 45.5 2.5t45.5 1.5q20 1 39 -4
t36 -13q5 -2 9 -5t5 -7q5 -19 20 -29q5 -3 4 -7.5t-7 -7.5q-2 -1 -4 -1t-4 -1q-11 -5 -12.5 -8.5t3.5 -14.5q7 -17 5.5 -21.5t-14.5 -14.5q-10 -9 -17 -18q-11 -15 -23 -3l-6 6q-6 4 -10.5 2t-4.5 -10q1 -9 -3 -11.5t-11 -3.5q-22 -2 -43 -5t-43 -5q-26 -3 -43 -23
q-3 -3 -5.5 -8t-1.5 -8t6 -5.5t9 -3.5q21 -6 42 -9t43 3q30 -6 60.5 -6t59.5 -10q14 -6 25 -17q8 -8 8 -12t-8 -13q-16 -14 -5 -29q10 -14 11.5 -26.5t-2 -23.5t-11.5 -21t-17 -19q-20 -21 -55 -21q-45 -2 -88.5 -5t-88.5 -6q-4 -1 -7.5 -1t-6.5 -2q-19 -9 -36 4
q-18 14 -41 -2q-14 -11 -36 -10t-35 12q-8 8 -11 19q-2 8 -2.5 15.5t1.5 14.5q12 29 13.5 59t-1.5 61q-2 21 -0.5 42t0.5 41q0 16 -1 31t-1 30q-1 18 -1.5 35.5t0.5 34.5q0 22 1.5 43t1.5 43q1 25 0 50t0 50q2 67 36 124q28 48 85 48q37 1 73.5 1.5t73.5 0.5q5 0 8.5 0.5
t8.5 1.5q10 3 18.5 0.5t17.5 -8.5q8 -6 18.5 -10t21.5 -7q8 -2 13.5 1t10.5 9q10 11 17.5 11.5t17.5 -9.5q3 -3 7 -9q5 -8 10 -8.5t15 2.5q4 2 8 2.5t9 2.5q6 -4 9 -5q27 -11 40 -33.5t16 -50.5z" />
    <glyph glyph-name="f" unicode="f" horiz-adv-x="551" 
d="M246 557q-22 -1 -23 -24q-2 -15 -2 -30.5t1 -30.5q1 -14 6 -19t20 -7l87 -9q3 -1 6 -1t6 -1q11 -2 12 -4.5t-5 -11.5q-9 -13 -5 -22.5t20 -11.5q7 0 10 -1q21 -5 13 -23q-3 -6 -7.5 -11.5t-8.5 -10.5q-28 -32 -69 -49q-14 -5 -25.5 -14t-22.5 -18q-7 -5 -6 -13t3 -15
q4 -24 8.5 -47.5t7.5 -47.5q2 -17 2.5 -34t0.5 -34q1 -29 -27 -36q-7 -2 -13.5 -4.5t-13.5 -5.5q-8 -2 -11 -5q-34 -32 -81 -16q-3 1 -6.5 2t-4.5 -1q-6 -8 -8.5 -5.5t-4.5 9.5q-2 6 -3 12.5t-3 11.5q-14 29 -18 60.5t-6 63.5q-1 14 -3.5 28t-4.5 28q-1 8 -1.5 16.5
t-0.5 17.5q-1 8 -3 15.5t-9 12.5q-4 3 -10 11q-7 12 -6.5 17t11.5 16q15 17 12 41q-2 18 -5 36t-5 37q-4 31 -8 61.5t-6 62.5q-2 15 -8.5 27t-13.5 24q-4 8 -6 12.5t-2 8t2.5 7.5t7.5 11q8 11 16.5 21.5t16.5 21.5q7 10 17.5 16t21.5 5q21 -1 40 4.5t39 10.5q96 24 191 23
q15 -1 29.5 -5t28.5 -6q5 -1 9.5 -1t9.5 -1q8 -2 15.5 -2.5t15.5 -3.5q5 -2 10.5 -3.5t10.5 -3.5q22 -31 38 -64t21 -68q-2 -8 -4 -15.5t-4 -15.5q-5 -5 -10 -8t-10 -7h-14q-56 -5 -110 2t-109 14q-10 1 -20 1.5t-19 -1.5z" />
    <glyph glyph-name="g" unicode="g" horiz-adv-x="750" 
d="M649 381q11 3 21.5 -0.5t21.5 -8.5q13 -6 23.5 -15t17.5 -25q0 -2 2 -4q16 -14 17.5 -32.5t0.5 -38.5q-1 -17 -4.5 -32.5t-11.5 -29.5q-6 -10 -9 -22.5t-5 -24.5q-6 -24 -23 -35q-16 -9 -28 -19q-5 -5 -10 -9t-8 -10q-11 -18 -27 -24q-18 -6 -32 -15t-29 -13.5t-30 -6.5
q-14 -2 -28 -3.5t-28 -3.5h-2q-13 -7 -25.5 -8t-25 1.5t-25 6.5t-24.5 6q-6 0 -9 3q-16 12 -34 15t-35 8q-37 9 -73.5 18t-70.5 31q-51 31 -73 91q-17 48 -26.5 97.5t-16.5 100.5q-4 29 -6 61q-4 97 55 163q40 44 84.5 77.5t96.5 51.5q39 14 78.5 18.5t79.5 -5.5
q33 -8 66 -11t65 -7q3 -1 6 -1t6 -1q11 -3 15.5 -12t-0.5 -21q-3 -8 -7.5 -15t-9.5 -12q-14 -13 -30.5 -21t-34.5 -10q-17 -1 -32.5 -6t-30.5 -13l-87 -39q-52 -22 -85 -71q-49 -73 -19 -164q21 -60 65 -98q14 -11 22 -21q14 -20 38 -26q29 -9 58.5 -14t56.5 -5q20 -1 36 0
t31 8q17 8 20 26.5t-9 34.5q-6 8 -14.5 11.5t-16.5 6.5t-15 -0.5t-14 -9.5q-15 -14 -31 -18.5t-35 4.5q-9 5 -19 6.5t-20 3.5t-18 8t-13 19q-2 6 -5 10.5t-7 8.5q-14 12 -18.5 28.5t-4.5 36.5q0 7 -1 13t-5 11q-5 6 -3.5 10.5t6.5 5.5q18 3 32 2q8 0 17 -1t17 -2
q59 -5 117 -5.5t116 -12.5q10 -2 16 -1zM57 333q1 2 2 3t1 2q-1 5 -5 9q-1 1 -2.5 -0.5t-3.5 -2.5q3 -5 4.5 -7t3.5 -4z" />
    <glyph glyph-name="h" unicode="h" horiz-adv-x="620" 
d="M612 256q1 -8 2 -16.5t0 -16.5q-2 -9 -3 -18.5t-6 -16.5l-22 -30t-25 -26q-17 -14 -35.5 -26.5t-39.5 -20.5q-11 -5 -21.5 -4.5t-21.5 2.5q-8 2 -10 10q-5 11 -10.5 23t-8.5 25q-5 19 -8.5 37.5t-8.5 36.5q-4 19 -12 24.5t-28 3.5q-23 -3 -45.5 -4.5t-45.5 -3.5
q-12 -1 -24.5 -1t-24.5 -2q-35 -5 -22 -37q5 -15 3.5 -29.5t-0.5 -28.5q0 -16 -1 -31.5t-2 -31.5q-2 -14 -7.5 -19t-19.5 -3q-13 2 -17 -0.5t-7 -15.5q-3 -15 -17 -15q-24 -2 -40 -20q-13 -16 -31 -1q-26 21 -33 53q-8 35 -10 70l-4 70q-1 24 -0.5 48t0.5 48q0 43 -0.5 86
t1.5 86q0 23 2.5 46.5t4.5 46.5q2 20 3 40.5t2 40.5q1 8 2.5 16.5t8.5 14.5q15 14 5 34q-2 5 -3.5 9t-3.5 9q-1 2 0 5t3 5q5 2 10 -1q7 -4 9 -8q12 -14 29 -14q21 1 33 -10t18 -31q2 -5 3 -10.5t2 -10.5q5 -42 11 -84t11 -84q2 -15 2 -29.5t2 -29.5q2 -14 7 -18.5t19 -6.5
q20 -4 40 -7.5t40 -8.5t38.5 -3t37.5 3q5 1 9 2t8 -1q13 -3 24.5 0t22.5 5q17 1 20 20q3 15 5.5 30t4.5 30q2 12 2 24.5t2 25.5t6 25q7 16 6 34q-2 19 3 37t6 38q11 13 12 28.5t3 30.5q1 5 4 9.5t6 9.5q2 3 5 5.5t6 5.5q10 11 18 12t20 -7q30 -21 43 -56q14 -33 17 -68
t5 -71q1 -17 -0.5 -33.5t-1.5 -33.5q0 -11 -0.5 -21.5t0.5 -21.5q2 -29 3.5 -59t3.5 -59q1 -15 2.5 -30t3.5 -30z" />
    <glyph glyph-name="i" unicode="i" horiz-adv-x="217" 
d="M197 709q2 -7 3.5 -14t-0.5 -14q-5 -35 -1 -70t6 -70q1 -25 1 -50t2 -51q0 -33 3 -64q3 -53 -2.5 -104t-13.5 -102q-2 -9 -3.5 -18t-0.5 -18q1 -20 -3.5 -38t-9.5 -36q-5 -20 -22 -27t-31.5 -15t-28.5 -19q-19 -15 -32 8q-19 32 -32.5 66t-17.5 72q0 5 -1 10.5t-1 10.5
q-6 48 -6.5 94t7.5 94q3 20 3.5 39t2.5 39q2 47 11 92.5t20 90.5q5 20 13 38.5t16 36.5q11 23 30.5 36.5t40.5 24.5q5 2 11 0t11 -4q18 -13 25 -38z" />
    <glyph glyph-name="j" unicode="j" horiz-adv-x="513" 
d="M507 450q1 -38 -2 -75.5t-13 -75.5q-2 -9 -5.5 -18t-7.5 -17q-4 -9 -8.5 -17.5t-6.5 -19.5q0 -4 -4 -8l-8 -8q-15 -11 -12 -27q1 -12 -11 -18q-5 -5 -10.5 -10t-10.5 -10q-4 -4 -7 -8t-7 -7q-11 -8 -18.5 -19.5t-13.5 -23.5q-4 -6 -12 -11q-13 -8 -25 -16.5t-24 -17.5
q-5 -4 -7 -13q-2 -15 -17 -15q-7 0 -13 -2.5t-12 -5.5q-6 -4 -13 -5.5t-14 -2.5q-22 -3 -42.5 -3.5t-40.5 13.5q-9 7 -19.5 10.5t-18.5 13.5q-15 21 -37 33q-2 1 -5 4q-10 14 -23 24.5t-28 18.5q-5 3 -6 7.5t4 6.5q22 12 43.5 25t47.5 15q17 1 34.5 2.5t34.5 -0.5
q32 -2 51 22q42 54 70 112.5t36 127.5q2 23 1 46t-1 46q-1 28 -2 55t-1 54q0 18 4.5 35t10.5 34q4 13 16 19q7 3 13.5 7t13.5 8q47 28 80 -14q6 -7 10.5 -15.5t7.5 -16.5q10 -30 15.5 -61t7.5 -63q2 -29 2.5 -57.5t2.5 -57.5z" />
    <glyph glyph-name="k" unicode="k" horiz-adv-x="740" 
d="M726 581q13 -3 7 -15q-8 -14 -17 -28.5t-25 -22.5q-23 -12 -46.5 -24.5t-47.5 -23.5q-38 -18 -75.5 -34.5t-75.5 -34.5q-22 -11 -43.5 -22t-41.5 -23t-20.5 -21.5t19.5 -21.5q12 -8 24 -17t27 -11q12 -3 12 -17l2 -18t0 -18q0 -14 11 -17q13 -3 11 11q-1 6 -1.5 12
t0.5 12q1 2 4.5 4.5t5.5 2.5q3 0 6 -3t3 -6q1 -7 0.5 -13.5t-1.5 -13.5q-3 -22 14 -34q5 -3 8.5 -0.5t3.5 8.5q1 5 0 11t1 11q1 8 5.5 11t11.5 -1q17 -10 35 -23q13 -11 25 -22l4 -4t5 -6q-5 -3 -10 -5.5t-9 -5.5q-15 -11 2 -18q2 -2 5.5 -2t5.5 -2t4.5 -5.5t1.5 -5.5
q-2 -14 -3 -27t-13 -23q-13 -12 -8 -35q-18 -1 -34 2t-32 12q-55 30 -110 59t-112 53q-3 2 -6.5 3.5t-6.5 2.5q-30 11 -31 -22q-2 -27 -3 -53.5t-3 -53.5q-1 -8 -1.5 -15t-2.5 -18q-5 5 -7 7.5t-4 3.5q-6 2 -12 -1q-2 -1 -3.5 -4t-3.5 -5q-27 -33 -64 -14q-2 1 -5.5 2
t-5.5 0q-9 -4 -20 2q-2 1 -5 0t-5 -2q-4 -2 -7.5 -5t-6.5 -2q-3 2 -5.5 5.5t-4.5 7.5q-17 23 -24 50t-9 57q0 20 -2.5 39.5t-4.5 39.5q-2 37 -5 73t0 73q2 24 4.5 48t4.5 49q0 1 0.5 2t0.5 2q-5 38 4.5 73t18.5 70q5 20 10 41t10 41q2 11 6.5 18.5t14.5 12.5q6 3 10.5 9
t9.5 11q8 9 18 16.5t22 11.5q14 3 22 -9q9 -14 13 -29.5t7 -31.5q8 -43 14.5 -86.5t14.5 -87.5q0 -2 0.5 -4.5t0.5 -4.5q3 -13 14 -7q6 3 12 9q41 38 85.5 68t90.5 59q29 18 58 35.5t59 31.5q20 11 43 16t45 12q3 1 6.5 0t7.5 -1h17t17 1q7 1 13 2t12 1q2 0 5 -2t2 -2
q-2 -6 0.5 -11t6.5 -9.5t6 -9.5t-2 -12q0 -1 2.5 -4t4.5 -5q11 -11 11.5 -15.5t-7.5 -17.5q-7 -14 -13 -29q-4 -9 -1.5 -12.5t11.5 -5.5h7zM521 200q-2 -1 -2 -3.5t2 -4.5q2 -5 5.5 -9t8.5 -10q8 19 -6 28q-5 2 -8 -1z" />
    <glyph glyph-name="l" unicode="l" horiz-adv-x="636" 
d="M626 53q12 -12 -4 -19q-19 -7 -37 7q-12 9 -16 8.5t-15 -8.5q-9 -7 -19 -11t-20 -9q-7 -3 -13.5 -5t-12.5 -6q-17 -11 -34 -13.5t-34 9.5q-10 5 -16 4h-1h-1h-1q-1 0 -1 -0.5t-1 -0.5q0 -1 -1 -2q-1 -2 -3 -4q-5 -6 -9 -9h-7h-19h-9h-1q-1 0 -3 -2q-11 0 -23 0.5t-23 1.5
q-9 1 -17.5 1.5t-17.5 1.5q-26 3 -51.5 1.5t-51.5 -4.5q-5 -1 -9 -1.5t-8 -0.5q-7 -1 -12.5 -1t-10.5 3q-1 0 -2 1q-9 4 -20 6q-56 3 -74 56q-5 12 -9 23.5t-8 23.5q-5 12 -5 23q-1 22 -1 43.5v43.5l2 18t4 18q10 32 20.5 64t18.5 64q11 40 18.5 80t14.5 80q7 42 22 78.5
t47 65.5q8 7 13 15t12 15q7 8 13.5 15.5t14.5 12.5q13 10 29 10h5q14 -1 26 -9t17 -22q7 -17 10.5 -35t6.5 -36q2 -14 1.5 -29t-1.5 -29q-6 -94 -9.5 -186t-14.5 -185q-2 -8 -2 -15.5v-15.5q1 -15 6.5 -19.5t20.5 -2.5q20 3 40.5 7t40.5 6v1q2 0 2.5 0.5t2.5 0.5h3q3 0 4 1
q2 0 3.5 0.5t3.5 0.5q18 1 36 1t36 2q22 2 40 -7q30 -14 59 -5q11 5 20 1.5t20 -9.5q-6 -2 -9.5 -4t-6.5 -1q-23 3 -46 1t-46 -5q-8 -1 -16 -1h-16q-14 -1 -17 -16q-2 -9 0 -13t11 -6q12 -2 24.5 -4t24.5 -3q5 -1 11 1.5t11 5.5q11 8 14.5 8t12.5 -9l4 -4t5 -6
q-8 -5 -14.5 -8.5t-12.5 -7.5q-4 -4 -3 -8t6 -4q13 -3 25 1q21 6 32 -10q5 -6 10.5 -10.5t10.5 -9.5z" />
    <glyph glyph-name="m" unicode="m" horiz-adv-x="812" 
d="M807 43q-8 -3 -12 -5t-8 -2.5t-8.5 0.5t-12.5 3l3 -18q2 -8 2 -13t-5 -8q-1 -1 -3 0t-3 3q-9 13 -16.5 26.5t-11.5 29.5q-5 17 -14 29q-4 5 -6 11.5t-5 12.5l-2 4t-3 5q-6 -14 6 -54q4 -14 9.5 -26.5t4.5 -29.5q-4 3 -6.5 5t-4.5 4q-7 15 -13 32q-5 14 -10 28.5t-11 31.5
q-5 -13 -4 -15q2 -12 3.5 -24t3.5 -24q2 -5 4 -9.5t4 -12.5q-8 5 -10.5 10.5t-5.5 10.5q-7 11 -15 -2q-2 5 -3 9l-2 8q-6 21 -12 41.5t-11 42.5q-5 24 -9 48.5t-7 49.5q-4 32 -11 63.5t-15 63.5q-1 2 -1.5 4t-1.5 4q-6 13 -15 4q-9 -11 -19 -20t-15 -22q-5 -12 -9 -23.5
t-8 -22.5q-2 -8 -1 -12q4 -18 0.5 -35t-9.5 -34q-4 -12 -8 -23.5t-9 -22.5q-7 -16 -5 -38q0 -6 -0.5 -12.5t-1.5 -13.5t-3 -13t-9 -11q-4 -2 -5 -6.5t-3 -9.5q-4 -8 -6.5 -9.5t-10.5 2.5q-8 5 -16 -2t-16.5 -12.5t-17.5 -12.5q-4 -4 -10 1q-9 8 -13.5 7.5t-12.5 -8.5
q-3 -4 -5 -8t-10 1q-3 2 -8 1t-7 5l-1 2l-1 1q-14 0 -16 9t-3 17q-3 20 -2.5 40t8.5 40q7 18 -4 36q-14 24 -26.5 48.5t-26.5 48.5q-9 17 -18.5 34.5t-19.5 34.5q0 1 -0.5 1t-0.5 1l-9 6q-4 -6 -5 -10q-1 -5 -1 -9v-9q-2 -29 -3.5 -57t-5.5 -56q-3 -23 -9 -45l-12 -44
q-8 -26 -31 -41q-8 -5 -13.5 -13.5t-10.5 -16.5t-10.5 -13t-16.5 -7q-8 -1 -15 -5t-15 -8q-4 -2 -7.5 -5t-8.5 -6q-2 4 -2.5 6t-1.5 4q-3 11 -5 12t-13 -3q-7 -2 -10 -1t-5 9q-2 11 -3.5 21t-0.5 21q1 27 6.5 53t13.5 52q10 32 19.5 63t20.5 63q5 14 11.5 28t11.5 28
q8 19 11 39q3 19 5 38t6 38q7 39 11 78t4 79q-1 28 5 59q3 12 8 24t11 23q13 22 34 9q14 -9 28.5 -12t31.5 4q13 6 19 -9q2 -5 3.5 -9.5t2.5 -9.5q8 -38 14 -76t14 -76q13 -63 42 -122q11 -22 20.5 -43.5t20.5 -42.5q10 -19 23 -41q10 -18 20 2q8 14 11.5 29.5t5.5 32.5
q5 36 14.5 70.5t23.5 67.5q6 14 15.5 24.5t18.5 21.5q2 2 3 2q14 2 16.5 11t4.5 20q1 9 3 10.5t12 -0.5q6 0 11 3q5 5 9.5 10.5t11.5 13.5q5 -4 9 -7.5t9 -8.5q6 -6 9 -6t9 7q4 4 7 8t7 7q15 10 16 -9q0 -4 4 -8q1 2 2 5t2 5q2 7 2.5 14t2.5 14q2 8 5 9t11 -1q4 -1 8 -1
t9 -1q-2 -3 -2.5 -6.5t-2.5 -7.5q-27 -70 9 -138q21 -42 33.5 -87t21.5 -91q2 -9 1.5 -18.5t0.5 -19.5l2 -12t3 -12q2 -9 4 -18.5t0 -18.5q-3 -32 8 -64q7 -20 13.5 -40.5t12.5 -40.5q2 -10 4 -19t4 -19zM650 572q2 2 1 4.5t-1 5.5q-18 -29 -2 -57q0 2 0.5 3.5t-0.5 3.5
q-6 20 2 40zM668 586q3 11 4 20.5t-2 20.5q-11 -21 -2 -41zM756 60l4 6q0 2 -4 8q-1 -2 -2.5 -2.5t-1.5 -1.5q2 -6 4 -10z" />
    <glyph glyph-name="n" unicode="n" horiz-adv-x="666" 
d="M660 689q2 -9 -1 -15q-7 -17 -9 -34.5t-2 -35.5q0 -38 1 -76t1 -76q1 -29 1 -58v-58q1 -29 0.5 -59t0.5 -60q0 -29 -22 -45q-15 -11 -15 -26q-1 -10 -1 -19.5v-19.5q-1 -7 -0.5 -13t-1.5 -12q-2 -11 -8 -19.5t-19 -10.5q-10 -3 -13 -13l-12 -33q-4 -8 -7.5 -10.5
t-12.5 -0.5q-13 3 -22 11q-7 6 -13 12t-11 14q-6 10 -14.5 17t-16.5 14q-8 6 -14 6q-8 -1 -12 2t-9 8q-10 9 -19 18.5t-20 19.5q-2 2 -5 2.5t-6 1.5q1 -3 1 -6.5t2 -5.5q5 -7 10.5 -13t9.5 -14q-2 -1 -4 -3q-8 6 -11 10q-25 27 -45 57t-38 62q-9 17 -19.5 33t-20.5 33
q-11 19 -22.5 38t-22.5 38l-14 22t-15 22q-2 3 -5 6t-7 1q-6 -3 -6 -12q-2 -13 -3 -26t-1 -26q-2 -37 -8 -73t-19 -71q-5 -13 -9 -25.5t-9 -26.5q-4 -12 -12 -19.5t-19 -13.5q-13 -6 -22 3q-9 8 -18.5 16.5t-18.5 17.5q-12 11 -17.5 25t-7.5 31q-2 29 -1 57t3 56l4 60t2 59
q0 50 7.5 97.5t20.5 95.5q3 11 4 23t3 24v2q1 4 1.5 8t2.5 6q6 4 9 10t5 12.5t4.5 12.5t8.5 11q12 9 24 3q13 -5 24 3q4 2 9 2.5t10 0.5q7 0 14 -0.5t15 -0.5q9 -1 13 -3.5t6 -11.5t3.5 -18t3.5 -19q3 -15 15 -24q5 -3 8.5 -7t6.5 -8q16 -24 31.5 -47.5t30.5 -47.5
q2 -4 4.5 -8.5t1.5 -9.5q-2 -17 5.5 -29t12.5 -26q2 -4 5.5 -6.5t7.5 -4.5q17 -9 17 -29t17 -28q3 -1 5.5 -4.5t4.5 -6.5q5 -12 10.5 -23.5t16.5 -20.5q6 -5 9 -13t8 -16q1 -2 1.5 -4.5t2.5 -4.5q14 -23 28 -45.5t28 -45.5q2 -2 2.5 -3t2.5 -3q9 -9 11 3q2 8 3 15.5t0 15.5
q-1 35 -2 68.5t-3 68.5v12q5 50 10 99t10 99q2 21 2 42v42q0 5 -0.5 10.5t1.5 10.5q3 18 12 36q0 -4 0.5 -7.5t0.5 -6.5v-59q0 -6 0.5 -12t5.5 -11q11 17 8 37q0 3 -1 6.5t-2 6.5q0 11 8 12q20 1 25 23q5 15 19 7q10 -5 15 -10q8 -6 16.5 -8.5t18.5 1.5q9 4 12 -8
q1 -8 2.5 -15t2.5 -15zM640 566q2 14 0 28l-2 26t-3 26q-1 5 -3 9l-6 12q-2 -7 -3 -11t-3 -7q-3 -8 -6 -17t-8 -15q-7 -9 -8 -18t0 -19q1 -5 1 -9.5t-2 -9.5q-3 -5 -2 -9t3 -9q3 -8 7 -15.5t1 -17.5q-3 -12 8 -20l9 -6q4 6 5 10l4 20t4 21q2 8 2.5 15.5t1.5 15.5z" />
    <glyph glyph-name="o" unicode="o" horiz-adv-x="704" 
d="M681 390q2 -24 5 -48t5 -48q2 -23 -2 -46.5t-17 -43.5q-8 -14 -21 -26t-25 -23q-21 -21 -42 -35q-38 -27 -55 -65q-3 -6 -9 -11t-11 -10q-3 -3 -7 -5t-8 -6q-21 -21 -46 -26t-53 0q-15 3 -30 4.5t-30 3.5q-27 2 -52 10t-49 22q-31 17 -62 35.5t-52 49.5q-17 26 -32 53
t-30 55q-14 24 -21.5 48.5t-6.5 46.5q-2 29 2 52t10 45q11 40 21.5 79t29.5 76q17 32 38.5 60.5t44.5 56.5q2 4 5.5 7t5.5 8q14 19 40 24q10 2 19 5.5t19 6.5q12 4 24 6q3 1 6 1t6 1q17 5 26 2t20 -17q4 -6 8.5 -10t12.5 1q1 1 3 0.5t3 -1.5q9 -12 22 -15t25 -8
q6 -3 12 -5.5t13 -4.5q10 -3 19.5 -4.5t20.5 -3.5q1 -1 3 3t1 5q-3 5 -7 10t-9 10q-2 2 -5 3.5t-5 4.5q-2 2 -2.5 5.5t-1.5 6.5q8 -2 12 -4q14 -9 28 -20.5t31 -16.5q27 -8 42.5 -27t29.5 -39q29 -39 54 -80t36 -90q3 -15 0 -27.5t-9 -25.5q-2 -3 -3 -7t0 -8zM454 248
q9 14 14.5 29t3.5 32q-2 16 -5 31.5t-7 30.5q-4 16 -8.5 32.5t6.5 33.5q1 2 0.5 3.5t0.5 3.5q0 12 -8.5 27t-21.5 26q-8 6 -14 12t-7 17q0 6 -8 10q-16 8 -36 17q-14 3 -26 2q-10 0 -19 0.5t-17 8.5q-12 10 -20 -5q-5 -8 -8.5 -17t-8.5 -17q-17 -36 -26 -73.5t-7 -76.5
q1 -31 12 -58.5t22 -55.5q20 -54 79 -66q14 -3 28 -4.5t25 14.5q1 2 5 1.5t6 -1.5q14 -4 24 2.5t13 20.5q1 5 3.5 10t4.5 10z" />
    <glyph glyph-name="p" unicode="p" horiz-adv-x="519" 
d="M508 441q6 -6 6 -17q0 -2 -2.5 -6t-4.5 -4q-8 -1 -10.5 -5t-3.5 -11q-1 -16 -16 -26q-11 -8 -23 -16t-23 -17q-6 -3 -10 -11q-5 -10 -10 -25q-8 -21 -30 -27q-54 -16 -107 -17q-9 -1 -17.5 -1t-17.5 -2q-11 -2 -13.5 -4.5t-3.5 -14.5q-1 -5 -1 -14q0 -2 1 -3.5t0 -3.5
q-7 -15 -2.5 -29t5.5 -28q0 -15 0.5 -29.5t-0.5 -28.5q-1 -22 -2 -43t-3 -43h-3q-2 12 -4 24.5t-5 27.5q-2 -5 -4 -7.5t-3 -4.5q-3 -11 -6 -21t-7 -21q-1 -3 -4 -5l-6 -4q-2 -2 -4.5 -1.5t-4.5 -0.5q-7 -1 -14 -5q-1 5 -2.5 9t-1.5 9q0 12 1 24l2 24q0 4 1 8t-1 7
q-6 10 -8 19.5t-2 20.5q0 2 -2 4t-3 4l-3.5 -3.5t-2.5 -3.5q-6 -17 -12.5 -33t-17.5 -30q-3 -4 -3 -9.5v-10.5q0 -10 -1 -12t-11 -7q-1 0 -3 -2q-3 -2 -7 -4t-6 -1q-5 4 -7 15q-2 3 -1.5 7t-1.5 8q-8 16 -11 34t-8 35q-2 7 -3 13.5t-2 12.5l-6 40t-11 39q-2 4 -2 13
q-2 17 -3 34.5t-2 34.5q-1 2 -1 5t-1 6q-8 35 -7 71t6 72q5 35 10.5 69t10.5 69q2 15 4 30.5t4 30.5q5 32 23 54t44 39q11 5 26 7q33 4 68 -8q8 -3 17 -6t18 -3q27 -1 48 -13.5t40 -30.5q14 -14 28.5 -28t28.5 -28t28.5 -26t28.5 -25q11 -11 18 -22.5t13 -25.5
q5 -14 8.5 -28t2.5 -29q-1 -3 2 -6.5t5 -6.5l10.5 -10.5t10.5 -11.5zM365 399q8 10 6.5 20t-4.5 21q-14 44 -45.5 73t-68.5 52q-5 4 -11 4t-13 -2q-5 -2 -10.5 -3t-11.5 -1l-15 -1.5t-7.5 -3.5t-2.5 -8.5v-15.5v-6q1 -5 1 -11.5t2 -14.5q3 -22 6.5 -43.5t7.5 -43.5
q2 -9 2.5 -18t2.5 -18q3 -12 7.5 -15.5t16.5 -5.5q5 -1 11 -1.5t11 -0.5q13 0 25 1t23 9q10 7 21 6q16 -2 26.5 7t19.5 20z" />
    <glyph glyph-name="q" unicode="q" horiz-adv-x="637" 
d="M632 20q-6 -3 -12 -5.5t-4 -12.5q2 -6 4.5 -12.5t4.5 -14.5q-9 1 -17.5 1t-16.5 1q-8 2 -10.5 -0.5t-0.5 -11.5t4.5 -17.5t4.5 -17.5q2 -6 2 -10t-2 -6q-5 -2 -7 0q-3 2 -5 5.5t-5 5.5q-5 5 -9.5 9t-9.5 9q-2 1 -4.5 1.5t-4.5 -0.5q-2 -4 -2 -10l8 -20q-5 4 -7.5 5.5
t-4.5 3.5q-5 3 -9 6.5t-9 3.5q-14 3 -25 15q-14 14 -28.5 28t-32.5 22q-8 15 -18 13.5t-21 -6.5q-4 -2 -8 -2t-8 -1q-21 -8 -42 -5.5t-42 7.5q-17 4 -33.5 8t-33.5 9q-2 0 -6 2q-14 10 -30 11l-32 2q-2 0 -4 0.5t-4 -0.5q-14 -8 -28 -4t-28 5q-19 1 -31 12t-18 31
q-5 18 -10.5 36t-12.5 38l-3 -7.5t-2 -4.5q-3 -4 -6.5 -3.5t-3.5 5.5q-2 8 -2 16.5t-1 16.5q-2 31 3.5 60t16.5 58q15 38 34 75t40 72q13 23 24.5 46t22.5 46q19 42 37.5 82.5t41.5 79.5q3 6 6 13l6 14l4 8t5 8q11 13 17 -3q5 -14 13.5 -22t19.5 -15q25 -14 47 -32t44 -37
q5 -3 8 -7t8 -6q12 -5 20.5 -14t16.5 -20q24 -36 51 -69t55 -65q33 -37 50 -81t21 -95q1 -5 0.5 -9t1.5 -8q7 -35 -4.5 -62.5t-28.5 -53.5q-8 -13 -9 -19t7 -20t16 -27t16 -27q4 -7 7 -13t8 -14zM423 278q1 1 1 8q0 2 -2 6q-18 59 -56 108q-22 27 -44 53.5t-44 52.5
q-8 9 -12 8.5t-10 -11.5q-7 -14 -13 -29t-12 -29q-17 -43 -25.5 -88t-9.5 -102q2 -11 3.5 -29t3.5 -38q2 -19 15 -26q15 -8 30 -14t32 -8q5 -1 9.5 -0.5t7.5 3.5q4 4 6 3t5 -3q2 -2 4 -1.5t4 0.5q0 8 -1 10q-6 10 -16 23q-4 5 -6 11.5t0 13.5q3 11 7 21.5t12 18.5t14.5 16
t13.5 16q29 34 65 11q2 -2 4.5 -3.5t4.5 -2.5q6 0 9 1z" />
    <glyph glyph-name="r" unicode="r" horiz-adv-x="746" 
d="M731 112q11 -8 9.5 -18t-2.5 -19q-1 -8 -6.5 -11t-12.5 -5q-8 -2 -15 -6q-12 -5 -9 -17q2 -7 -1.5 -9t-8.5 -3h-8t-9 1q-17 2 -25 -11q-5 -9 -12 -8q-22 5 -44 4t-43 6q-7 2 -13 4t-10 9t-13 5q-14 -2 -23 1q-25 11 -49 21t-49 21q-15 7 -28.5 16t-27.5 20
q-14 10 -28.5 17.5t-28.5 16.5q-7 4 -13.5 8t-13.5 8q-9 5 -12.5 2.5t-5.5 -13.5q-2 -7 -2 -14t-1 -14q0 -29 -14 -54q-2 -4 -4.5 -8t-4.5 -8q-6 -11 -9.5 -16.5t-7.5 -8.5t-10 -3.5t-16 -0.5q-10 1 -17 -3.5t-15 -9.5q-5 -4 -9 -6t-9 2q-6 4 -9 2q-10 -4 -16.5 1t-14.5 10
q-13 8 -19.5 19t-11.5 25q-12 29 -10.5 59t3.5 59q2 20 5 39t4 39q2 35 3 71t1 71q0 36 -1.5 72t3.5 72q1 4 -0.5 9t-3.5 7q-5 2 -7 7t-4.5 10.5t-5.5 9.5t-10 5q-10 2 -11 5.5t4 13.5q7 17 16.5 30.5t24.5 21.5q4 2 6.5 6t5.5 7q8 8 6 17q-2 8 1 11t8 5q10 4 20 7.5t20 5.5
q7 2 12.5 4t9.5 10q3 6 13 8q38 5 77 5.5t78 -1.5q24 -1 46.5 -6.5t45.5 -9.5q5 -1 10.5 -4t10.5 -7q18 -13 37 -13q9 0 20 -8t13 -19q2 -7 5 -8.5t9 -0.5q24 3 19 -23q-3 -17 9 -24q5 -3 9.5 -6t9.5 -5q12 -5 18 -15t8 -24q2 -21 9 -39.5t21 -32.5q8 -8 15.5 -16t17.5 -19
v15q0 1 0.5 1.5t0.5 1.5t1 2q5 0 7 -1t2 -2.5t2 -2.5q5 -7 6.5 -6.5t6.5 8.5l3 3q5 -5 4.5 -10.5t-2.5 -11.5q-2 -9 1 -16q4 -12 8.5 -23.5t8.5 -22.5q13 -36 -16 -55l-4 -4t-5 -4q-2 -1 -5 -2t-5 0q-11 3 -20.5 -1.5t-13.5 -18.5q-5 -18 -16 -24t-25 -7h-23q-11 0 -19 11
l-4 6t-4 4q-15 4 -27 15t-27 14q-11 2 -21.5 1t-21.5 -3q-9 -2 -17.5 -5t-16.5 -6q-13 -5 -3 -15l18 -15q4 -3 5.5 -5.5t-3.5 -7.5q-3 -4 -0.5 -9t7.5 -7q17 -5 31.5 -15.5t31.5 -17.5q14 -5 27 -11t28 -2q3 0 6 -1t5 -2q31 -17 61.5 -32.5t61.5 -32.5q15 -9 29 -20z
M127 702q1 1 4 6q-2 1 -3 2t-3 1q-3 0 -5 -2q-5 -3 -3 -5q1 -2 2 -2.5t2 -1.5q5 0 6 2zM375 397q6 -1 11 -1.5t10 -0.5q30 2 58 7t56 13q2 0 2.5 0.5t1.5 0.5q11 5 12.5 14t-8.5 17q-3 3 -9 7q-26 17 -53.5 29t-55.5 23q-38 14 -77 25t-80 17q-3 0 -6.5 0.5t-6.5 0.5
q-19 0 -18 -22q0 -8 1 -16l2 -16q2 -23 3.5 -46.5t3.5 -47.5q1 -7 3 -14.5t10 -8.5q7 -1 10.5 4.5t5.5 13.5q3 11 15 13q13 0 25.5 -0.5t25.5 -5.5q9 -3 19 -3z" />
    <glyph glyph-name="s" unicode="s" horiz-adv-x="546" 
d="M524 174q0 -7 -4 -13q-6 -7 -11.5 -13.5t-12.5 -11.5q-9 -8 -24 -16v-2q7 -10 7 -13t-10 -9q-10 -7 -20.5 -13t-21.5 -12q-2 -2 -5 -2q-12 2 -21 -3t-19 -10q-4 -2 -7.5 -5t-7.5 -5q-9 -5 -11 -14t-7.5 -14t-13.5 -8q-40 -13 -84 -5q-60 12 -108 46q-17 12 -35 23t-33 25
q-60 53 -58 133q2 22 17 36q6 7 13 13t6 17q6 -2 9.5 0.5t7 5.5l7 6t8.5 3q10 -8 20 -15.5t15 -20.5q2 -4 4 -7t4 -7q20 -42 54 -65.5t76 -38.5q8 -2 16 -2.5t16 0.5q9 1 12 4.5t3 12.5q0 2 -0.5 4.5t-0.5 4.5q-2 10 -3 19.5t-3 18.5q-2 5 -3 10t-4 9q-8 8 -10 16.5t-7 19.5
q8 -7 13.5 -12.5l10.5 -10.5q1 1 1.5 2t1.5 2q-6 8 -11 17t-19 11q-8 1 -11 6t-6 12q2 -2 5.5 -3.5t8.5 -4.5q-7 8 -12 14.5t-10 12.5q3 -1 11 -3q-5 7 -11 3q-9 -2 -11 -1t-7 9q-4 8 -8 14t-12 11t-14 18q4 -1 11 -1q-1 1 -1 2t-1 2q-5 8 -9.5 15.5t-9.5 15.5q-5 11 -15 13
q-2 1 -4 2.5t-4 3.5q-7 7 -13 13.5t-14 13.5q-8 6 -13.5 13.5t-6.5 18.5q0 8 -8 14q-16 10 -32 23q-5 4 -7 10q-5 11 -10 23t-3 26q2 9 -2 18q-4 11 6 14q8 4 13 10.5t9 14.5q5 8 12 14q13 11 21 25q8 15 22 25t31 17q25 10 50.5 16t51.5 11q13 2 26.5 1.5t27.5 -2.5
q24 -2 46 -8t44 -15q29 -11 47 -32q15 -18 12 -34q-2 -9 0 -16.5t6 -15.5q7 -14 10 -33q4 -22 -4 -36.5t-27 -25.5q-2 -1 -7 -1q-11 -1 -13 -2.5t-6 -11.5q0 -2 -2 -4q0 -1 -2 -2q-2 1 -3.5 1.5t-3.5 1.5q-8 5 -18 3q-7 -2 -14 -1.5t-13 6.5q-4 4 -8.5 6t-8.5 4l-6 4t-8 5
q5 2 8 2.5t6 1.5q0 2 -1 2q-19 17 -17 40q0 24 -22 33q-9 4 -17.5 7.5t-19.5 2.5q-17 -1 -28.5 -9.5t-20.5 -22.5q-2 -4 -4 -7.5t-4 -6.5q-6 -8 -6 -12.5t7 -12.5l7.5 -7.5t7.5 -8.5q5 -6 11 -12t11 -13q29 -40 76 -67q46 -28 78 -68q12 -16 26 -31t25 -32q8 -11 13.5 -22.5
t10.5 -23.5q16 -33 27 -64q3 -8 4.5 -16.5t2.5 -16.5z" />
    <glyph glyph-name="t" unicode="t" horiz-adv-x="700" 
d="M694 646q-3 -5 -6.5 -5.5t-7.5 0t-8 0t-7 -3.5q5 -8 10.5 -15t12.5 -16q-6 -6 -12.5 -12t-14.5 -13q-10 2 -19.5 4t-20.5 4q-23 3 -41 -9q-9 -8 -20.5 -9t-22.5 2q-3 1 -6.5 1.5t-5.5 2.5q-30 16 -64 7q-8 -2 -17 -1t-20 1q-1 -16 -0.5 -30t2.5 -28q5 -35 0.5 -70
t-10.5 -70q0 -3 -2 -5q-9 -14 -7.5 -29.5t3.5 -30.5q2 -11 2.5 -21.5t1.5 -21.5q2 -8 3 -16.5t1 -17.5q0 -24 5 -48t8 -48q3 -22 2 -44.5t-2 -45.5q0 -15 -15 -25l-12 -9q-11 -8 -23.5 -11.5t-26.5 6.5q-4 3 -10 3t-11 -1q-29 -4 -47 11t-20 44q-2 28 1 51q5 31 2.5 61.5
t-8.5 61.5q-4 27 -6 56q-3 27 -3 54q-1 19 -2 37t0 36q2 32 5 64.5t11 64.5q4 14 -1 25.5t-24 13.5q-25 3 -49.5 6t-49.5 5q-66 8 -119 43q-3 2 -4.5 4.5t-3.5 4.5q8 14 14 26t13 24l4 8t3 9q2 5 5.5 7t8.5 3t9.5 3t12.5 5q5 -3 12 -6t15 -8q1 5 1 7t1 5h5q14 -3 27.5 -4.5
t28.5 1.5q10 2 21 0t22 -3q5 0 10 -0.5t10 0.5q30 0 62 3q17 2 33.5 4.5t33.5 4.5q50 5 99 3.5t99 -14.5q20 -5 40 -7l40 -4q16 -2 26.5 -11t5.5 -29q-2 -12 0 -20.5t12 -15.5q3 -3 5 -9z" />
    <glyph glyph-name="u" unicode="u" horiz-adv-x="614" 
d="M604 440l4 -30t-6 -30q-2 -2 -2 -5.5v-6.5q1 -11 -1 -21.5t-11 -19.5q-4 -3 -4.5 -8.5t-1.5 -10.5q-12 -53 -46 -94q-47 -56 -91 -115q-13 -17 -27 -32.5t-28 -30.5q-8 -8 -19 -10.5t-22 -4.5q-6 -1 -11.5 -1t-10.5 -3q-20 -11 -41 -14.5t-42 -5.5q-89 -8 -141 69
q-8 11 -13.5 22.5t-7.5 25.5q0 5 -2.5 9.5t-4.5 9.5q-2 4 -3.5 8t-0.5 8q2 20 -6.5 37t-10.5 36q0 2 -2.5 4.5l-4.5 4.5q-9 7 -13 16t-6 19q-12 60 -18.5 119.5t-2.5 120.5q3 45 12 87.5t29 84.5q5 9 8.5 19t8.5 20q2 8 4 12q11 19 21 0q7 -14 13 -29t10 -31q4 -14 4 -27.5
t1 -23.5q-5 -31 0.5 -56.5t8.5 -50.5q5 -39 11 -78t11 -78q5 -32 16.5 -60.5t31.5 -53.5q9 -11 21.5 -20t26.5 -17q39 -23 75.5 -16t69.5 34q26 22 47 48.5t39 55.5q6 9 8 22q5 41 5 80.5t-10 80.5q-4 17 -5 35t-3 36q-1 20 -8 41q-6 19 -2 34q2 8 1.5 14.5t0.5 14.5
q2 10 2.5 20t1.5 20q1 7 3.5 12t9.5 7q8 2 12.5 -2t7.5 -10q4 -6 9.5 -9t11.5 -6q19 -11 38 -21t27 -33q7 -17 13 -33t5 -34q-1 -4 1 -10q5 -17 -2 -32q-4 -4 -2 -9q4 -9 4.5 -17.5t-1 -17.5t-3 -17.5t-0.5 -17.5q1 -8 1 -17t2 -17z" />
    <glyph glyph-name="v" unicode="v" horiz-adv-x="521" 
d="M504 629q11 -8 11.5 -20t-1.5 -23q-3 -15 -9 -28t-20 -22q-6 -3 -9.5 -9t-7.5 -12q-11 -14 -18 -28l-4.5 -13.5t-0.5 -12.5q9 -18 8 -36.5t-6 -35.5q-6 -23 -15 -45t-17 -44q-6 -17 -11.5 -33t-10.5 -33q-5 -15 -9 -30.5t-9 -30.5q-3 -9 -8.5 -16t-13.5 -14
q-12 -12 -22 -25.5t-13 -30.5q-2 -10 -8.5 -14t-14.5 -10q2 -5 4 -9.5t4 -9.5q4 -16 -10 -13q-12 3 -17.5 -2t-10.5 -13q-7 -11 -12.5 -13.5t-17.5 1.5q-11 3 -20 2.5t-17 -8.5q-8 -5 -15.5 -4t-14.5 6q-17 16 -34.5 31.5t-28.5 38.5q-5 11 -12 20t-13 19q-3 5 -5.5 11
t-3.5 12q-3 18 -5 36.5t-6 36.5q-5 25 -5.5 49.5t-0.5 49.5q-1 13 -2.5 26t-5.5 26q-14 50 -22.5 100.5t-15.5 101.5q-2 13 -2 25.5v24.5q-1 17 6 30.5t13 27.5q2 3 5 5l6 4q5 4 10 7t10 8q8 -4 16.5 -8.5t16.5 -9.5q8 -7 13 -16q11 -31 21.5 -61.5t21.5 -61.5q6 -20 9 -39
q4 -29 13.5 -56t23.5 -53q5 -8 7.5 -17.5t6.5 -17.5q10 -29 21 -53q1 -4 10 -13q3 5 5.5 8t4.5 7q5 11 9 22.5t7 22.5q16 63 41.5 121.5t50.5 118.5q14 35 31 68t33 67q3 5 6.5 10t6.5 10q10 18 29 12q-2 -11 -3 -23t-3 -26q6 2 10 3.5t8 3.5q7 -12 10 -13.5t15 2.5
q-2 -9 -3.5 -17.5t-3.5 -17.5q-2 -11 1 -19t13 -15z" />
    <glyph glyph-name="w" unicode="w" horiz-adv-x="861" 
d="M842 752q2 -4 4.5 -6t2.5 -4q0 -13 4 -24.5t2 -24.5q-1 -2 -1 -6q1 -14 -2.5 -27.5t-8.5 -27.5q-13 -34 -2 -73q2 -9 1 -17.5t-4 -17.5q-2 -5 -1.5 -11.5t-0.5 -11.5q0 -5 0.5 -9.5t-0.5 -9.5q-4 -15 -3 -29.5t3 -29.5q2 -13 1.5 -26t-2.5 -26l-6 -46t-1 -47
q0 -12 -1.5 -24.5t-10.5 -23.5q-3 -3 -3 -9q-7 -29 -19 -54.5t-26 -51.5q-3 -4 -5 -12q-4 -15 -16 -25q-8 -6 -13.5 -14.5t-4.5 -20.5q1 -3 -1 -11q-8 -22 -15 -23.5t-21 5.5q-11 5 -13.5 3.5t-4.5 -12.5q-3 -17 -18 -10q-8 3 -15.5 7t-13.5 10q-26 26 -48 54.5t-33 64.5
q-4 11 -6 23.5t-5 23.5q-2 5 -2.5 9.5t-2.5 8.5q-7 13 -2 23q2 6 1 8q-3 10 -4 20t-2 20.5t-3.5 21t-9.5 19.5q-2 3 -2.5 7t-2.5 9q-3 13 -5.5 25.5t-5.5 25.5q-1 4 -2.5 7t-2.5 6q-8 1 -10.5 -3t-4.5 -8q-11 -20 -21.5 -40t-22.5 -40q-12 -21 -22.5 -42.5t-26.5 -40.5
q-9 -10 -10 -20q-2 -20 -13.5 -34.5t-22.5 -29.5q-1 -3 -4 -4q-17 -8 -33 -16.5t-33 -13.5q-9 -3 -19.5 -2t-20.5 3q-8 1 -13.5 -0.5t-10.5 -8.5q-13 -18 -31 0q-4 4 -7 9t-7 10t-8.5 8.5t-7.5 8.5q-4 5 -7.5 10t-5.5 10q-20 63 -38 126t-29 129q-8 53 -20 104t-26 102
q-2 10 -4 19.5t-4 19.5q-3 19 13 33q9 9 16 19.5t15 21.5q2 4 3 5q6 11 15 19t23 7q12 0 19.5 -8t12.5 -19q10 -26 16 -58q8 -33 15.5 -66.5t19.5 -65.5q17 -43 29 -86.5t22 -88.5q5 -21 9 -41.5t9 -41.5q2 -6 3 -12.5t9 -8.5t11 4t6 11q36 51 63 105t47 113q7 19 13 37.5
t14 36.5t18.5 36t21.5 35q12 20 24.5 39t24.5 38q3 5 6.5 11t8.5 14q3 -16 10 -25t21 -11q-1 -5 -1 -9t-1 -9q7 -3 14 -5.5t10 -7.5q4 -5 3.5 -12.5t1.5 -13.5q6 -36 15 -72q4 -12 5.5 -24t9.5 -23q2 -4 1 -10t-1 -11q-1 -11 0.5 -21t10.5 -19q4 -2 4 -6q-2 -8 0.5 -15.5
t5.5 -14.5t5 -14.5t-2 -16.5q13 -3 17.5 -10.5t6.5 -18.5q6 -24 13 -47.5t14 -47.5q2 -8 5.5 -14.5t6.5 -14.5q8 2 9 6.5t2 9.5q1 15 5.5 29t9.5 29q5 17 7.5 35.5t4.5 37.5q5 48 16.5 94t28.5 91q4 10 7 19.5t7 19.5l8.5 17l8.5 17t7 16.5t5 17.5q3 18 14 30q5 5 8 11t0 14
q-1 3 1.5 7.5t4.5 10.5z" />
    <glyph glyph-name="x" unicode="x" horiz-adv-x="680" 
d="M669 137q8 -13 5.5 -19t-13.5 -17q-8 -8 -14 -18.5t-11 -21.5q-4 -11 -9 -20t-17 -13q-4 -2 -5 -4q-7 -14 -20 -19.5t-25 -13.5q-18 -13 -37 0q-13 8 -25 17t-24 19q-28 25 -53 52.5t-49 56.5q-11 13 -21 24.5t-21 23.5q-9 11 -15 12t-20 -4q-1 -1 -5 -3
q-27 -15 -54.5 -30t-53.5 -31q-18 -11 -35 -23.5t-34 -24.5t-34.5 -19t-37.5 -7q-8 0 -15 -3.5t-16 -5.5l7 10.5l7 10.5q-4 2 -10 4q-7 1 -8.5 5t2.5 8l14 16t16 14q8 5 16 10.5t14 14.5l-2 4t0 3q3 4 6.5 7.5l6.5 6.5q-2 -3 -2.5 -6.5t-1.5 -6.5q15 9 33 27t26 32
q-8 -6 -13.5 -10t-10.5 -9q-8 -7 -15 -13.5t-15 -12.5q-2 0 -4 1t-4 0q-10 -4 -18.5 -8t-17.5 -9q-3 -2 -6.5 -3t-8.5 -3q15 29 37 49.5t40 44.5q-3 -2 -6 -2.5t-8 -2.5q2 2 2 3.5t2 2.5q27 29 54 58.5t55 58.5q12 15 3 31q-12 25 -23.5 49.5t-25.5 48.5q-11 20 -24.5 39
t-26.5 39q-10 14 -20.5 28t-20.5 28q-23 34 2 66l15 18l13.5 13.5t12.5 14.5t13 11t18 1q25 -7 49 -15.5t45 -24.5q33 -25 61 -53.5t51 -62.5q1 -2 2 -3t2 -3q20 -28 44 -4q17 16 32.5 32.5t32.5 33.5q23 24 46.5 48.5t47.5 48.5q9 9 15 8.5t13 -11.5q5 -10 11 -15
q10 -10 8 -20v-5q5 -6 8 -13.5t6.5 -15t8.5 -14t14 -10.5q13 -5 15.5 -17t-5.5 -23q0 -1 -1 -1.5t-1 -1.5q-14 -29 -36 -50.5t-42 -45.5q-23 -26 -42.5 -54.5t-40.5 -56.5q-12 -17 0 -33q7 -8 13 -16t13 -15q29 -31 59.5 -61t59.5 -61q14 -15 25 -31.5t22 -33.5z" />
    <glyph glyph-name="y" unicode="y" horiz-adv-x="514" 
d="M506 709q2 -21 2 -42.5t-6 -42.5q-2 -10 -2.5 -19.5t-2.5 -20.5q-1 -4 -2.5 -8.5t-4.5 -7.5q-3 -5 -5.5 -8.5t-0.5 -9.5q0 -2 -0.5 -4t-1.5 -2q-10 -5 -8.5 -13t-0.5 -16l-3 -18q-3 -10 -11 -9q-7 1 -11 -3t-7 -9q-6 -9 -12.5 -17t-17.5 -13q-3 0 -3 -3
q-3 -14 -12.5 -23.5t-14.5 -23.5q-2 -5 -3 -10t4 -11q2 -2 2 -5.5t-1 -6.5l-6 -21l-2 -6t0 -5q5 -17 1 -31t-11 -28q-4 -8 -7 -16.5t-8 -15.5q-7 -11 -15.5 -21t-16.5 -20q-15 -20 -31 -37q-4 -6 -8 -7q-12 -4 -21 -11.5t-18 -16.5q-24 -22 -46 -46q-5 -5 -8.5 -11.5
t-8.5 -11.5q-11 -14 -24 -23.5t-31 -11.5q-10 -1 -19 -5t-15 -14q-1 -1 -7 -3q-2 4 -4.5 8t-4.5 9l-21 -6q-11 7 -10 15.5t4 17.5q5 11 8.5 20.5t14.5 16.5q2 1 4 5q4 10 7.5 20t8.5 20q5 11 9 22t9 21q17 31 34 61.5t38 58.5q3 5 5.5 9t4.5 9q5 14 -3 25q-14 21 -27.5 41.5
t-25.5 41.5q-18 31 -38.5 59t-40.5 57q-10 15 -19 30.5t-18 31.5q-2 2 -3 5.5t-3 6.5q-8 18 -2 32.5t17 28.5q7 8 13 15.5t12 15.5q9 11 20 6q9 -4 17 -11q7 -8 13 -15t11 -15q16 -23 33 -44.5t37 -41.5q26 -28 50 -58t46 -62l12 -15q11 -11 19 1q8 11 12 22q8 23 15.5 47
t15.5 47q1 5 2 8.5t1 8.5q2 15 12 23q4 4 5 6q7 17 17 30.5t21 27.5q10 15 24 20q15 4 23 22q5 10 10.5 19.5t10.5 18.5q7 14 18 4q5 -3 7.5 -6t4.5 -5q0 -8 -0.5 -14.5t-0.5 -12.5z" />
    <glyph glyph-name="z" unicode="z" horiz-adv-x="819" 
d="M770 596q5 -2 8.5 -2.5t8.5 -2.5q-2 -11 -6 -18.5t-14 -11.5q-13 -4 -23.5 -13.5t-19.5 -23.5q-12 -15 -26 -26q-19 -12 -38 -21.5t-41 -11.5q-14 -1 -23.5 -12.5t-16.5 -28.5v-1q-4 -2 -10 -4q0 -2 0.5 -2.5t0.5 -2.5l9 9v1q8 3 15.5 6t15.5 6q-12 -29 -34 -34
q-32 -9 -59 -29t-56 -37q-14 -8 -26.5 -15t-25.5 -15q-11 -7 -18.5 -15t-12.5 -24q-3 -8 -7.5 -14.5t-9.5 -13.5q-2 -3 -4.5 -6t-4.5 -8q-2 -4 -4 -8.5t-2 -8.5q2 -7 6 -8t8 -1q10 -1 19 -1t18 -1q11 -1 14 -4t5 -18q5 -1 10 -1.5t10 -1.5l-1 1h1q5 -9 17 -6q5 2 8.5 4
t5.5 11q2 8 5.5 8.5t8.5 -4.5q6 -8 9 -8.5t9 5.5q8 8 10.5 8t10.5 -8q4 -2 6 -2q9 0 18.5 -0.5t18.5 0.5q5 2 10.5 5t11.5 6q2 -10 7.5 -13t11.5 -5q13 -5 25.5 -11t24.5 -12l-8 -2t-9 -3q18 -15 34 -2q6 6 14 9q3 2 6.5 3.5t8.5 3.5q-1 3 -1 5.5t-1 4.5q7 0 13 1.5t11 9.5
q6 8 15 4.5t14 -14.5q7 -19 7 -36q1 -6 -1.5 -12.5t-6.5 -11.5q-8 -11 -2 -20q-12 -12 -18.5 -13t-17.5 8q-6 5 -9 4.5t-14 -5.5q-2 -30 17 -44q-4 -8 -9 -8t-10 1q-7 0 -13.5 0.5t-12.5 -7.5q-2 -2 -5.5 -2h-6.5q-13 -1 -26 -1h-26q-8 0 -11 -1q-19 -3 -38 -7t-38 -7
q-12 -2 -23.5 -1t-23.5 1q-2 0 -3.5 0.5t-3.5 -0.5q-19 -9 -37 -4t-36 6q-58 0 -116 -6q-9 -1 -18 -0.5t-19 0.5q-4 0 -8 0.5t-9 -0.5q-28 -2 -54.5 3t-52.5 20q-13 8 -25 17.5t-24 18.5q-1 0 -3 2q-6 5 -13 8.5t-11 11.5q-3 7 -4 16.5t-6 17.5q-1 2 -0.5 7t1.5 9
q2 7 3.5 13.5t3.5 13.5q1 2 2.5 4t3.5 4q5 5 9.5 8.5t9.5 8.5q17 18 34 35.5t34 34.5q12 11 24.5 20.5t26.5 18.5q11 8 21 15t20 18q6 8 14.5 12.5t16.5 9.5q11 5 21.5 11.5t19.5 17.5q5 6 10 8q27 8 50 26.5t45 38.5q26 23 50.5 47.5t50.5 48.5q2 2 4 5t5 7q-3 2 -5.5 3
t-4.5 2q-29 5 -58 9t-58 7q-12 1 -25 -1.5t-25 -5.5q-30 -9 -65 -7q-12 1 -24.5 1t-25.5 2q-9 0 -21 7q-8 4 -8 18q1 13 11 15q2 1 5 1q8 3 10 6t3 15v25q2 17 6.5 25t17.5 10q12 3 24 4.5t25 3.5q17 3 35 5.5t35 4.5q43 4 85 14.5t85 19.5q8 2 16.5 3.5t16.5 3.5
q2 0 4.5 0.5t4.5 -0.5q8 -6 16.5 -6h17.5q21 0 42.5 -1t42.5 -10q6 -2 12.5 -2.5t12.5 -1.5q11 -3 22 -12q8 -5 16 -7.5t18 -6.5q1 -3 1.5 -8t2.5 -11h16q-2 -12 -1.5 -24t-3.5 -21q-5 -11 -5.5 -22.5t-3.5 -23.5zM413 168q-2 0 -3 -1q0 -1 2 -3l2 2q0 1 -1 2zM383 168
q-1 -1 -2 -1.5t-2 -1.5q1 -2 1 -3t1 -3q4 4 4 5q0 4 -2 4zM374 178q-10 3 -17.5 4t-14.5 -7q8 -3 15 -4t17 7zM741 663v4q-1 0 -2 -0.5t-2 -0.5q1 -2 1 -4h2q1 0 1 1zM744 689l4.5 4.5t1.5 3.5q-1 3 -2.5 6.5t-3.5 3.5q-11 4 -24 4q-4 0 -7 -3t-8 -7q11 -7 19.5 -13.5
t19.5 1.5zM441 189q2 -8 -0.5 -10.5t-4.5 -5.5q1 4 2 7.5t3 8.5z" />
    <glyph glyph-name="braceleft" unicode="{" horiz-adv-x="583" 
d="M507 705q30 -16 27 -50q-2 -23 -9 -45.5t-23 -40.5t-36 -19q-11 -1 -21.5 -1.5t-21.5 -1.5q-26 -3 -37.5 -16.5t-9.5 -41.5q3 -42 -4 -79q-9 -36 -31 -64q-14 -17 -28.5 -34t-29.5 -34q-4 -4 -9.5 -5.5t-10.5 -3.5q-16 -5 -8 -21q4 -5 7.5 -9t7.5 -9q27 -28 33 -72
q3 -29 5 -58t-1 -58q-2 -8 -2 -15v-15q0 -29 28 -30h14.5t12.5 1q23 3 44.5 -2.5t41.5 -14.5q8 -3 14.5 -8t13.5 -10q17 -16 18 -33t-16 -43q-7 -12 -25 -20q-10 -5 -18.5 -13t-16.5 -16q-14 -14 -33 -11q-29 3 -55.5 12t-52.5 20q-12 5 -23.5 8.5t-24.5 1.5q-14 -1 -24 6
t-19 17q-20 20 -28 44.5t-12 51.5q-5 34 -4 67t5 67q2 13 -3 21.5t-15 16.5q-17 14 -32.5 29.5t-32.5 31.5q-16 15 -18 40q-2 20 -2 40t7 40q3 11 10 18.5t15 14.5q14 11 28.5 21t28.5 20q17 11 33.5 22.5t33.5 21.5q15 9 13 29q-2 13 -2.5 26t0.5 26q1 20 2.5 39.5
t3.5 39.5q2 12 5.5 23t12.5 20q3 4 5.5 7.5t4.5 8.5q5 18 17.5 26.5t26.5 15.5q11 5 20 10t19 10q4 2 7.5 4t7.5 3q27 3 54 7t53 -8l30 -12t29 -14z" />
    <glyph glyph-name="bar" unicode="|" horiz-adv-x="333" 
d="M280 553q-2 -14 -3 -27.5t-3 -27.5q-1 -10 -2 -19.5t-1 -19.5q1 -53 -1.5 -105t-10.5 -105q-7 -46 -12.5 -91.5t-10.5 -91.5q-2 -17 -9.5 -29.5t-15.5 -24.5q-6 -10 -18.5 -8t-23.5 13q-8 8 -14 10.5t-14 -6.5q-3 -3 -4 -2q-11 5 -23 9.5t-23 12.5q-8 5 -10 15t-2 21
q1 13 0.5 25t-0.5 24h1q-1 14 -1 27.5t-2 26.5q-5 31 -2.5 60.5t5.5 59.5q5 38 8.5 76t4.5 76q1 19 1 37t5 37q3 10 1 23q-5 30 1 58.5t11 57.5q2 14 10 22.5t17 14.5q8 5 14.5 10t13.5 10q2 1 8 3q11 2 20.5 5.5t18.5 11.5q11 10 18 9t17 -12q45 -48 34 -122
q-2 -16 -2 -31.5t-1 -32.5z" />
    <glyph glyph-name="braceright" unicode="}" horiz-adv-x="569" 
d="M63 709q14 8 29 14t29 12q27 12 54 8t54 -7q4 -1 7.5 -3t7.5 -4q10 -5 19 -10t19 -10q15 -7 27.5 -15.5t17.5 -26.5q1 -5 4 -8.5t6 -7.5q9 -9 12.5 -20t5.5 -23q2 -20 3.5 -39.5t2.5 -39.5q1 -13 0 -26l-2 -26q-3 -20 13 -29q17 -10 33.5 -21.5t32.5 -22.5
q15 -10 29.5 -20t28.5 -21q8 -7 15 -14.5t10 -18.5q6 -20 6.5 -40t-1.5 -40q-2 -25 -18 -40q-17 -16 -33 -31.5t-33 -29.5q-9 -8 -14 -16.5t-3 -21.5q3 -34 4.5 -67t-3.5 -67q-4 -27 -12 -51.5t-28 -44.5q-9 -10 -19 -17t-24 -6q-13 2 -24.5 -1.5t-23.5 -8.5
q-26 -11 -52.5 -20t-55.5 -12q-20 -3 -34 11l-16 16t-19 13q-17 8 -25 20q-16 26 -15 43t18 33q6 5 13 10t15 8q20 9 41 14.5t45 2.5q5 -1 12 -1h15q27 1 27 30v15t-1 15q-3 29 -1.5 58t5.5 58q4 41 32 72q5 5 8.5 9t6.5 9q10 15 -7 21q-5 2 -10.5 3.5t-9.5 5.5
q-15 17 -29.5 34t-28.5 34q-22 28 -31 64q-5 20 -5.5 39.5t0.5 39.5q2 28 -9 41.5t-37 16.5q-11 1 -21.5 1.5t-21.5 1.5q-20 1 -36 19q-17 18 -23.5 40.5t-8.5 45.5q-5 34 27 50z" />
    <glyph glyph-name="asciitilde" unicode="~" horiz-adv-x="569" 
d="M513 359q7 -8 12.5 -17t12.5 -17q9 -12 5.5 -29.5t-12.5 -26.5q-11 -11 -23 -19t-25 -16q-30 -19 -63 -29q-8 -2 -16 -3t-16 1q-3 1 -11 1q-32 -2 -62 5.5t-59 18.5q-10 3 -18.5 7.5t-17.5 8.5q-9 3 -18 5.5t-18 5.5q-3 1 -6 0.5t-6 1.5q-14 4 -25 -1t-19 -15
q-9 -10 -19 -18t-20 -17q-4 -2 -5 -4q-5 -8 -11 -9.5t-14 -0.5q-5 0 -11 -0.5t-13 -1.5q1 4 3 8q-5 8 -8.5 15.5t-7.5 15.5q-1 1 -1 3q2 11 1 23t5 23q3 6 6.5 11.5t6.5 10.5q9 20 30 29q4 2 8 5t7 7q8 11 20 16t25 7q35 6 68.5 3t65.5 -19q18 -8 36 -15t36 -15q10 -4 22 0
q16 5 29.5 13.5t26.5 17.5q8 5 15.5 10t15.5 8q7 2 14.5 2h15.5q4 1 7.5 0.5t8.5 -0.5q12 0 22 -10z" />
    <glyph glyph-name="dieresis" unicode="&#xa8;" 
 />
    <glyph glyph-name="circumflex" unicode="&#x2c6;" 
 />
    <glyph glyph-name="daggerdbl" unicode="&#x2021;" 
 />
    </font>
</defs>
</svg>
